<?xml version="1.0" standalone="no"?>
  <!DOCTYPE svg PUBLIC "-//W3C//DTD SVG 1.1//EN" "http://www.w3.org/Graphics/SVG/1.1/DTD/svg11.dtd" >
  <svg>
  <metadata>
  Created by font-carrier
  </metadata>
  <defs>
  <font id="PFDinTextPro-Medium" horiz-adv-x="1818" vert-adv-y="1818" >
    <font-face
      
      font-family="PF DinText Pro Medium"
      
      font-weight="400"
      
      font-stretch="normal"
      
      units-per-em="1000"
      
      ascent="750"
      
      descent="-250"
      
    />
      <missing-glyph />

      

      
      <glyph glyph-name="uni22" unicode="&#x22;" d="M203 481L203 696L297 696L297 481L203 481M57 481L57 696L151 696L151 481L57 481Z"  horiz-adv-x="359" vert-adv-y="1000"  />

      
      <glyph glyph-name="uni23" unicode="&#x23;" d="M399 287L494 287L494 209L388 209L359 0L268 0L297 209L199 209L170 0L78 0L108 209L19 209L19 287L120 287L137 410L48 410L48 489L149 489L178 695L268 695L239 489L338 489L367 695L457 695L428 489L523 489L523 410L417 410L399 287M210 287L309 287L327 410L228 410L210 287Z"  horiz-adv-x="546" vert-adv-y="1000"  />

      
      <glyph glyph-name="uni24" unicode="&#x24;" d="M240-4Q183 0 129 21.50Q75 43 26 88L94 176Q128 147 163.50 129.50Q199 112 240 107L240 294Q203 306 168.50 322Q134 338 107.50 361.50Q81 385 65 416.50Q49 448 49 492Q49 534 62.50 569.50Q76 605 101 631.50Q126 658 161 674.50Q196 691 240 695L240 769L292 769L292 695Q341 692 387.50 676Q434 660 476 630Q474 626 465.50 611.50Q457 597 447.50 580.50Q438 564 429.50 550Q421 536 418 532Q385 554 354.50 567Q324 580 292 584L292 405Q340 390 378 372.50Q416 355 443 331Q470 307 484.50 274.50Q499 242 499 197Q499 152 483.50 115.50Q468 79 440.50 53.50Q413 28 375 13.50Q337-1 292-4L292-111L240-111L240-4M369 191Q369 229 346.50 248Q324 267 292 279L292 108Q330 114 349.50 136Q369 158 369 191M170 497Q170 469 191.50 451.50Q213 434 240 423L240 583Q210 578 190 556.50Q170 535 170 497Z"  horiz-adv-x="525" vert-adv-y="1000"  />

      
      <glyph glyph-name="uni26" unicode="&#x26;" d="M444 66Q406 32 362 13Q318-6 270-6Q218-6 180 9Q142 24 117 48.50Q92 73 80 105.50Q68 138 68 174Q68 238 99 288.50Q130 339 198 385Q185 401 172.50 418Q160 435 150 453Q140 471 134 491Q128 511 128 534Q128 571 139.50 602Q151 633 174 655.50Q197 678 232 690.50Q267 703 315 703Q357 703 404 689Q451 675 494 638L430 555Q411 570 395.50 579.50Q380 589 366 594Q352 599 338 600.50Q324 602 309 602Q273 602 254.50 582.50Q236 563 236 536Q236 516 242.50 502.50Q249 489 266 466L446 229Q460 255 468.50 282Q477 309 482 337L584 315Q575 270 557.50 225Q540 180 514 142Q542 107 570.50 70.50Q599 34 627 0L495 0L444 66M382 145Q350 186 319.50 226Q289 266 257 307Q218 281 196.50 249Q175 217 175 179Q175 144 199.50 120Q224 96 273 96Q304 96 333 111.50Q362 127 382 145Z"  horiz-adv-x="649" vert-adv-y="1000"  />

      
      <glyph glyph-name="uni27" unicode="&#x27;" d="M76 481L76 696L170 696L170 481L76 481Z"  horiz-adv-x="251" vert-adv-y="1000"  />

      
      <glyph glyph-name="uni28" unicode="&#x28;" d="M254-131Q214-88 178.50-38Q143 12 116 67.50Q89 123 73 183Q57 243 57 305Q57 369 72.50 429Q88 489 114.50 543.50Q141 598 176 647.50Q211 697 250 739L316 697Q283 653 257 604.50Q231 556 213.50 506.50Q196 457 187 407Q178 357 178 310Q178 259 187.50 207Q197 155 215 105Q233 55 258.50 7Q284-41 316-83L254-131Z"  horiz-adv-x="332" vert-adv-y="1000"  />

      
      <glyph glyph-name="uni29" unicode="&#x29;" d="M296 305Q296 243 280 183Q264 123 237 67.50Q210 12 174.50-38Q139-88 99-131L36-83Q101 2 138 104.50Q175 207 175 310Q175 357 166 407Q157 457 139.50 506.50Q122 556 96 604.50Q70 653 37 697L102 739Q141 697 176.50 647.50Q212 598 238.50 543.50Q265 489 280.50 429Q296 369 296 305Z"  horiz-adv-x="332" vert-adv-y="1000"  />

      
      <glyph glyph-name="uni2a" unicode="&#x2a;" d="M343 423Q340 420 329.50 412Q319 404 307 395.50Q295 387 284.50 379.50Q274 372 270 369L209 472L146 368L73 422L153 512Q146 514 130 518Q114 522 96.50 526.50Q79 531 63 534.50Q47 538 40 540Q41 544 44.50 556Q48 568 52.50 581.50Q57 595 60.50 607Q64 619 65 624L176 577Q176 584 174 601.50Q172 619 170.50 637.50Q169 656 167 673Q165 690 165 697L255 697L243 577L354 624L379 540L264 512L343 423Z"  horiz-adv-x="413" vert-adv-y="1000"  />

      
      <glyph glyph-name="uni2b" unicode="&#x2b;" d="M310 251L310 62L215 62L215 251L24 251L24 341L215 341L215 528L310 528L310 341L501 341L501 251L310 251Z"  horiz-adv-x="525" vert-adv-y="1000"  />

      
      <glyph glyph-name="uni2c" unicode="&#x2c;" d="M63-132L99-1L66-1L66 138L203 138L203 5L126-132L63-132Z"  horiz-adv-x="276" vert-adv-y="1000"  />

      
      <glyph glyph-name="uni2d" unicode="&#x2d;" d="M49 211L49 314L367 314L367 211L49 211Z"  horiz-adv-x="416" vert-adv-y="1000"  />

      
      <glyph glyph-name="uni2e" unicode="&#x2e;" d="M67 0L67 138L203 138L203 0L67 0Z"  horiz-adv-x="270" vert-adv-y="1000"  />

      
      <glyph glyph-name="uni2f" unicode="&#x2f;" d="M84-42L-9-42L243 725L336 725L84-42Z"  horiz-adv-x="343" vert-adv-y="1000"  />

      
      <glyph glyph-name="uni30" unicode="&#x30;" d="M475 197Q475 149 457.50 111Q440 73 411.50 47.50Q383 22 345 8.50Q307-5 267-5Q227-5 189.50 8.50Q152 22 123.50 47.50Q95 73 77.50 111Q60 149 60 197L60 498Q60 547 77.50 584.50Q95 622 123.50 648Q152 674 189.50 687.50Q227 701 267 701Q307 701 345 687.50Q383 674 411.50 648Q440 622 457.50 584.50Q475 547 475 498L475 197M360 495Q360 543 334.50 568.50Q309 594 267 594Q225 594 200 568.50Q175 543 175 495L175 201Q175 153 200 127.50Q225 102 267 102Q309 102 334.50 127.50Q360 153 360 201L360 495Z"  horiz-adv-x="525" vert-adv-y="1000"  />

      
      <glyph glyph-name="uni31" unicode="&#x31;" d="M235 0L235 570L138 501L138 622L243 696L350 696L350 0L235 0Z"  horiz-adv-x="525" vert-adv-y="1000"  />

      
      <glyph glyph-name="uni32" unicode="&#x32;" d="M55 512Q61 555 79.50 590Q98 625 126 650Q154 675 190 688Q226 701 265 701Q309 701 347 689Q385 677 413 653.50Q441 630 457 595Q473 560 473 513Q473 478 460 441.50Q447 405 423 376L202 110L469 110L469 0L51 0L51 103L325 433Q354 470 354 507Q354 540 332 566Q310 592 265 592Q228 592 202 567Q176 542 169 494L55 512Z"  horiz-adv-x="525" vert-adv-y="1000"  />

      
      <glyph glyph-name="uni33" unicode="&#x33;" d="M160 178Q168 139 195 120.50Q222 102 257 102Q302 102 330.50 132Q359 162 359 211Q359 259 331.50 287Q304 315 254 315L199 315L199 409L250 409Q301 409 327.50 436Q354 463 354 502Q354 542 326.50 567.50Q299 593 259 593Q230 593 203 574Q176 555 167 512L55 530Q63 569 82.50 601Q102 633 130 655Q158 677 191.50 689Q225 701 262 701Q317 701 357 685Q397 669 423 642.50Q449 616 461.50 581Q474 546 474 507Q474 470 453 429Q432 388 385 363Q436 337 458.50 294Q481 251 481 211Q481 163 465 123.50Q449 84 419.50 55.50Q390 27 349 11Q308-5 258-5Q224-5 190.50 4Q157 13 128.50 32.50Q100 52 78.50 84Q57 116 48 162L160 178Z"  horiz-adv-x="525" vert-adv-y="1000"  />

      
      <glyph glyph-name="uni34" unicode="&#x34;" d="M442 101L442 0L327 0L327 101L28 101L28 199L269 696L396 696L158 207L327 207L327 400L442 400L442 207L499 207L499 101L442 101Z"  horiz-adv-x="525" vert-adv-y="1000"  />

      
      <glyph glyph-name="uni35" unicode="&#x35;" d="M479 265Q479 206 467 156.50Q455 107 429.50 71Q404 35 362.50 15Q321-5 263-5Q228-5 194 2.50Q160 10 131.50 28.50Q103 47 82 79Q61 111 52 161L166 181Q174 136 199.50 118Q225 100 261 100Q294 100 313.50 114Q333 128 344 149.50Q355 171 358.50 196.50Q362 222 362 245Q362 270 358 293Q354 316 343 334Q332 352 313 363Q294 374 265 374Q240 374 217.50 359Q195 344 179 314L71 314L71 696L460 696L460 589L180 589L180 438Q207 462 237 470Q267 478 295 478Q343 478 377 462.50Q411 447 433.50 418.50Q456 390 467 351Q478 312 479 265Z"  horiz-adv-x="525" vert-adv-y="1000"  />

      
      <glyph glyph-name="uni36" unicode="&#x36;" d="M479 217Q479 158 460.50 116Q442 74 411 47Q380 20 341 7.50Q302-5 262-5Q220-5 182.50 8.50Q145 22 117 49Q89 76 72.50 116Q56 156 56 208Q56 239 64 274.50Q72 310 89 342L275 696L403 696L253 408Q255 406 255 406Q276 412 299 412Q340 412 373.50 397Q407 382 430.50 355.50Q454 329 466.50 293.50Q479 258 479 217M360 210Q360 264 332 290.50Q304 317 265 317Q229 317 200 290Q171 263 171 210Q171 157 196.50 129Q222 101 265 101Q303 101 331.50 129Q360 157 360 210Z"  horiz-adv-x="525" vert-adv-y="1000"  />

      
      <glyph glyph-name="uni37" unicode="&#x37;" d="M225 0L101 0L340 586L169 586L169 487L54 487L54 696L470 696L470 592L225 0Z"  horiz-adv-x="525" vert-adv-y="1000"  />

      
      <glyph glyph-name="uni38" unicode="&#x38;" d="M489 204Q489 157 471.50 118.50Q454 80 423.50 52.50Q393 25 352.50 10Q312-5 267-5Q222-5 181.50 10Q141 25 111 52.50Q81 80 63 118.50Q45 157 45 204Q45 226 51 249.50Q57 273 69 294Q81 315 98.50 331.50Q116 348 140 358L140 361Q97 380 78 419Q59 458 59 500Q59 543 75 579.50Q91 616 118.50 643Q146 670 184 685.50Q222 701 267 701Q318 701 357 685.50Q396 670 422.50 643Q449 616 462.50 579.50Q476 543 476 500Q476 457 455.50 420Q435 383 395 361L395 359Q419 350 436.50 333Q454 316 466 295Q478 274 483.50 250Q489 226 489 204M362 499Q362 544 334.50 570.50Q307 597 267 597Q228 597 200.50 571Q173 545 173 499Q173 454 201.50 431Q230 408 267 408Q285 408 302.50 414Q320 420 333 431.50Q346 443 354 460Q362 477 362 499M375 207Q375 229 366.50 247.50Q358 266 343 279.50Q328 293 308.50 301Q289 309 267 309Q246 309 226.50 301Q207 293 192 279.50Q177 266 168 247.50Q159 229 159 207Q159 185 167.50 165.50Q176 146 190.50 131.50Q205 117 224.50 108.50Q244 100 267 100Q290 100 309.50 108.50Q329 117 343.50 131.50Q358 146 366.50 165.50Q375 185 375 207Z"  horiz-adv-x="525" vert-adv-y="1000"  />

      
      <glyph glyph-name="uni39" unicode="&#x39;" d="M57 479Q57 537 75.50 579Q94 621 125 648Q156 675 194.50 688Q233 701 274 701Q316 701 353.50 687.50Q391 674 419 647Q447 620 463.50 580Q480 540 480 488Q480 457 472 421.50Q464 386 447 354L261 0L133 0L283 288Q281 290 281 290Q260 284 237 284Q196 284 162.50 299Q129 314 105.50 340Q82 366 69.50 402Q57 438 57 479M176 486Q176 432 204 405.50Q232 379 271 379Q307 379 336 406Q365 433 365 486Q365 539 339.50 567Q314 595 271 595Q233 595 204.50 567Q176 539 176 486Z"  horiz-adv-x="525" vert-adv-y="1000"  />

      
      <glyph glyph-name="uni3a" unicode="&#x3a;" d="M66 0L66 138L202 138L202 0L66 0M66 276L66 415L202 415L202 276L66 276Z"  horiz-adv-x="271" vert-adv-y="1000"  />

      
      <glyph glyph-name="uni3b" unicode="&#x3b;" d="M67 276L67 415L203 415L203 276L67 276M64-132L99-1L67-1L67 138L203 138L203 5L126-132L64-132Z"  horiz-adv-x="271" vert-adv-y="1000"  />

      
      <glyph glyph-name="uni3c" unicode="&#x3c;" d="M30 253L30 340L490 553L490 451L150 296L490 141L490 40L30 253Z"  horiz-adv-x="525" vert-adv-y="1000"  />

      
      <glyph glyph-name="uni3d" unicode="&#x3d;" d="M23 357L23 446L501 446L501 357L23 357M23 146L23 236L501 236L501 146L23 146Z"  horiz-adv-x="525" vert-adv-y="1000"  />

      
      <glyph glyph-name="uni3e" unicode="&#x3e;" d="M31 40L31 141L371 296L31 451L31 553L491 340L491 253L31 40Z"  horiz-adv-x="525" vert-adv-y="1000"  />

      
      <glyph glyph-name="uni3f" unicode="&#x3f;" d="M470 510Q470 481 458.50 455Q447 429 430.50 405Q414 381 394 358Q374 335 357.50 313Q341 291 329.50 269Q318 247 318 225L318 189L201 189L201 228Q201 258 211.50 283Q222 308 238 330.50Q254 353 272.50 373Q291 393 307 414Q323 435 333.50 457.50Q344 480 344 506Q344 520 339 535Q334 550 322.50 562Q311 574 294 582Q277 590 253 590Q229 590 211 580.50Q193 571 180.50 556Q168 541 161 521.50Q154 502 153 483Q124 488 96.50 491.50Q69 495 40 499Q48 549 69 586.50Q90 624 120 649.50Q150 675 186.50 687.50Q223 700 263 700Q311 700 349.50 685.50Q388 671 414.50 645.50Q441 620 455.50 585Q470 550 470 510M200 0L200 113L318 113L318 0L200 0Z"  horiz-adv-x="510" vert-adv-y="1000"  />

      
      <glyph glyph-name="uni40" unicode="&#x40;" d="M584 260Q584 240 596.50 223.50Q609 207 632 207Q679 207 704 250Q729 293 729 383Q729 444 706.50 493Q684 542 645.50 575.50Q607 609 556.50 627Q506 645 451 645Q383 645 326 620.50Q269 596 227.50 554Q186 512 162.50 455Q139 398 139 333Q139 264 162.50 206.50Q186 149 228.50 108.50Q271 68 329.50 45.50Q388 23 459 23Q492 23 521 26Q550 29 576 35Q602 41 627.50 50.50Q653 60 679 72L705-1Q646-24 589-37.50Q532-51 464-51Q377-51 302-25Q227 1 172 50.50Q117 100 86 171.50Q55 243 55 334Q55 416 85 486Q115 556 167.50 607.50Q220 659 292.50 688.50Q365 718 450 718Q528 718 594.50 694Q661 670 709.50 626Q758 582 785.50 520.50Q813 459 813 385Q813 326 800.50 279Q788 232 763.50 199Q739 166 703.50 148Q668 130 622 130Q610 130 594 134Q578 138 562.50 146Q547 154 534 166Q521 178 515 194L510 194Q498 171 467 154Q436 137 397 137Q368 137 343 144Q318 151 298.50 165.50Q279 180 268 202.50Q257 225 257 256Q257 280 265.50 301.50Q274 323 291.50 339.50Q309 356 334 365.50Q359 375 392 375L497 375L497 403Q497 426 480.50 443Q464 460 418 460Q386 460 367 450.50Q348 441 330 425L279 482Q340 541 428 541Q461 541 489.50 534.50Q518 528 539 513Q560 498 572.50 472.50Q585 447 585 409L584 260M497 306L407 306Q372 306 357.50 294Q343 282 343 263Q343 247 358.50 231Q374 215 413 215Q450 215 473.50 230.50Q497 246 497 278L497 306Z"  horiz-adv-x="874" vert-adv-y="1000"  />

      
      <glyph glyph-name="uni41" unicode="&#x41;" d="M498 0L443 154L185 154L129 0L2 0L265 696L363 696L626 0L498 0M361 398L315 541L312 541L267 401L220 257L407 257L361 398Z"  horiz-adv-x="629" vert-adv-y="1000"  />

      
      <glyph glyph-name="uni42" unicode="&#x42;" d="M582 200Q582 155 565.50 118Q549 81 521 54.50Q493 28 456 14Q419 0 378 0L73 0L73 696L351 696Q404 696 445 682Q486 668 513.50 643Q541 618 555 583Q569 548 569 506Q569 486 564.50 466Q560 446 549 427.50Q538 409 519.50 392Q501 375 473 363L473 359Q500 351 520.50 334Q541 317 554.50 295Q568 273 575 248.50Q582 224 582 200M443 499Q443 537 417 562.50Q391 588 335 588L194 588L194 407L335 407Q391 407 417 434Q443 461 443 499M459 207Q459 226 452.50 243.50Q446 261 432.50 274.50Q419 288 398 296.50Q377 305 349 305L194 305L194 110L349 110Q377 110 398 118Q419 126 432.50 139.50Q446 153 452.50 170.50Q459 188 459 207Z"  horiz-adv-x="618" vert-adv-y="1000"  />

      
      <glyph glyph-name="uni43" unicode="&#x43;" d="M551 156Q525 80 461.50 37Q398-6 307-6Q242-6 193 14.50Q144 35 112 70.50Q80 106 64 154.50Q48 203 48 259L48 437Q48 489 64 537Q80 585 112 621.50Q144 658 193 679.50Q242 701 307 701Q399 701 461.50 656.50Q524 612 550 539L436 494Q423 535 390.50 560.50Q358 586 307 586Q272 586 246.50 574Q221 562 204 541.50Q187 521 178.50 495Q170 469 170 442L170 257Q170 228 178.50 201.50Q187 175 204 154Q221 133 246.50 120.50Q272 108 307 108Q357 108 390 134.50Q423 161 436 204L551 156Z"  horiz-adv-x="572" vert-adv-y="1000"  />

      
      <glyph glyph-name="uni44" unicode="&#x44;" d="M194 110L313 110Q357 110 387 122.50Q417 135 435 157.50Q453 180 461 212Q469 244 469 283L469 413Q469 506 428 546Q387 586 311 586L194 586L194 110M326 696Q404 696 467 666Q530 636 563 567Q582 529 586 477Q590 425 590 360Q590 287 586 233Q582 179 565 138Q548 99 521.50 72.50Q495 46 462 30Q429 14 390 7Q351 0 309 0L73 0L73 696L326 696Z"  horiz-adv-x="638" vert-adv-y="1000"  />

      
      <glyph glyph-name="uni45" unicode="&#x45;" d="M73 0L73 696L539 696L539 586L194 586L194 404L488 404L488 298L194 298L194 110L539 110L539 0L73 0Z"  horiz-adv-x="564" vert-adv-y="1000"  />

      
      <glyph glyph-name="uni46" unicode="&#x46;" d="M194 586L194 398L488 398L488 293L194 293L194 0L73 0L73 696L539 696L539 586L194 586Z"  horiz-adv-x="545" vert-adv-y="1000"  />

      
      <glyph glyph-name="uni47" unicode="&#x47;" d="M308 104Q338 104 363.50 115.50Q389 127 407.50 146.50Q426 166 437 192Q448 218 448 246L448 276L303 276L303 380L568 380L568 243Q568 189 548 143.50Q528 98 493.50 64.50Q459 31 411 12.50Q363-6 308-6Q242-6 193.50 14.50Q145 35 113 70.50Q81 106 65.50 154.50Q50 203 50 259L50 437Q50 489 65.50 537Q81 585 112.50 621.50Q144 658 192 679.50Q240 701 305 701Q397 701 460 656.50Q523 612 549 539L435 494Q422 535 388.50 560.50Q355 586 304 586Q269 586 244 574Q219 562 203 541.50Q187 521 179 495Q171 469 171 442L171 254Q171 226 179.50 199Q188 172 205 151Q222 130 247.50 117Q273 104 308 104Z"  horiz-adv-x="618" vert-adv-y="1000"  />

      
      <glyph glyph-name="uni48" unicode="&#x48;" d="M462 0L462 298L194 298L194 0L73 0L73 696L194 696L194 404L462 404L462 696L582 696L582 0L462 0Z"  horiz-adv-x="655" vert-adv-y="1000"  />

      
      <glyph glyph-name="uni49" unicode="&#x49;" d="M74 0L74 696L196 696L196 0L74 0Z"  horiz-adv-x="268" vert-adv-y="1000"  />

      
      <glyph glyph-name="uni4a" unicode="&#x4a;" d="M424 224Q424 159 405 115Q386 71 354.50 44.50Q323 18 281.50 6.50Q240-5 195-5Q138-5 90 17Q42 39 5 81L91 160Q113 137 140 121.50Q167 106 192 106Q213 106 232.50 110.50Q252 115 268 128.50Q284 142 293.50 166Q303 190 303 228L303 696L424 696L424 224L424 224Z"  horiz-adv-x="489" vert-adv-y="1000"  />

      
      <glyph glyph-name="uni4b" unicode="&#x4b;" d="M502 0L307 324L194 193L194 0L73 0L73 696L195 696L195 359L197 358L314 501L478 696L622 696L387 418L645 0L502 0Z"  horiz-adv-x="638" vert-adv-y="1000"  />

      
      <glyph glyph-name="uni4c" unicode="&#x4c;" d="M73 0L73 696L194 696L194 110L539 110L539 0L73 0Z"  horiz-adv-x="564" vert-adv-y="1000"  />

      
      <glyph glyph-name="uni4d" unicode="&#x4d;" d="M581 0L581 413L578 413L541 324L490 212L436 98L339 98L299 183L233 329L197 414L194 411L194 0L73 0L73 696L186 696L277 497Q306 434 332.50 372Q359 310 386 247L390 247L446 380L497 497L586 696L702 696L702 0L581 0Z"  horiz-adv-x="765" vert-adv-y="1000"  />

      
      <glyph glyph-name="uni4e" unicode="&#x4e;" d="M509 0L294 324L197 483L194 482L194 0L73 0L73 696L185 696L380 400L498 212L500 214L500 696L621 696L621 0L509 0Z"  horiz-adv-x="692" vert-adv-y="1000"  />

      
      <glyph glyph-name="uni4f" unicode="&#x4f;" d="M304 701Q364 701 412 681Q460 661 494 626Q528 591 546 542.50Q564 494 564 437L564 259Q564 198 545.50 149Q527 100 493 65.50Q459 31 411 12.50Q363-6 304-6Q239-6 190 15.50Q141 37 109 73.50Q77 110 61 158Q45 206 45 259L45 437Q45 489 61 537Q77 585 109 621.50Q141 658 190 679.50Q239 701 304 701M304 587Q269 587 243.50 575Q218 563 201 542.50Q184 522 175.50 496Q167 470 167 443L167 256Q167 227 175.50 200.50Q184 174 201 153Q218 132 243.50 119.50Q269 107 304 107Q336 107 361.50 118.50Q387 130 404.50 150Q422 170 431.50 197Q441 224 441 256L441 443Q441 473 431.50 499Q422 525 404.50 544.50Q387 564 361.50 575.50Q336 587 304 587Z"  horiz-adv-x="610" vert-adv-y="1000"  />

      
      <glyph glyph-name="uni50" unicode="&#x50;" d="M581 478Q581 436 564.50 398Q548 360 518 331Q488 302 446 284.50Q404 267 353 267L194 267L194 0L73 0L73 696L344 696Q393 696 436 682Q479 668 511.50 641Q544 614 562.50 573Q581 532 581 478M457 481Q457 535 425 560.50Q393 586 341 586L194 586L194 377L345 377Q398 377 427.50 408Q457 439 457 481Z"  horiz-adv-x="591" vert-adv-y="1000"  />

      
      <glyph glyph-name="uni51" unicode="&#x51;" d="M307 701Q367 701 415.50 681Q464 661 498 626Q532 591 550 542.50Q568 494 568 437L568 259Q568 184 539 126L625 57L559-20L474 46Q408-6 307-6Q242-6 193.50 15.50Q145 37 113 73.50Q81 110 65 158Q49 206 49 259L49 437Q49 489 65 537Q81 585 113 621.50Q145 658 193.50 679.50Q242 701 307 701M307 586Q268 586 241.50 572Q215 558 199 534.50Q183 511 176.50 482Q170 453 170 423L170 257Q170 228 178.50 201.50Q187 175 204 154Q221 133 246.50 120.50Q272 108 307 108Q343 108 372 127L289 193L356 273Q376 257 396.50 240.50Q417 224 437 208Q445 232 445 257L445 423Q445 454 438 483.50Q431 513 414.50 536Q398 559 371.50 572.50Q345 586 307 586Z"  horiz-adv-x="618" vert-adv-y="1000"  />

      
      <glyph glyph-name="uni52" unicode="&#x52;" d="M444 0L323 287L194 287L194 0L73 0L73 696L369 696Q413 696 452 682Q491 668 520 642.50Q549 617 565.50 579.50Q582 542 582 496Q582 429 545.50 379Q509 329 443 305L580 0L444 0M458 496Q458 545 428 567Q398 589 350 589L194 589L194 395L346 395Q395 395 426.50 421Q458 447 458 496Z"  horiz-adv-x="625" vert-adv-y="1000"  />

      
      <glyph glyph-name="uni53" unicode="&#x53;" d="M458 537Q414 566 369 577.50Q324 589 286 589Q222 589 195 563.50Q168 538 168 501Q168 479 177.50 464.50Q187 450 208 439.50Q229 429 261 421.50Q293 414 338 406Q376 399 413 387.50Q450 376 479 353.50Q508 331 525.50 295.50Q543 260 543 206Q543 155 522 115.50Q501 76 465 49Q429 22 381.50 8Q334-6 281-6Q212-6 139.50 14.50Q67 35 5 90L78 184Q123 142 176 124.50Q229 107 287 107Q345 107 380.50 131Q416 155 416 202Q416 244 384.50 265.50Q353 287 289 297Q244 303 200.50 313.50Q157 324 123 345.50Q89 367 68.50 403Q48 439 48 497Q48 549 68 587.50Q88 626 121 651.50Q154 677 196.50 689.50Q239 702 284 702Q351 702 409.50 687Q468 672 518 637L458 537Z"  horiz-adv-x="569" vert-adv-y="1000"  />

      
      <glyph glyph-name="uni54" unicode="&#x54;" d="M319 588L319 0L198 0L198 588L5 588L5 696L513 696L513 588L319 588Z"  horiz-adv-x="521" vert-adv-y="1000"  />

      
      <glyph glyph-name="uni55" unicode="&#x55;" d="M579 247Q579 190 559.50 143.50Q540 97 505.50 64Q471 31 423 13Q375-5 319-5Q260-5 212 14.50Q164 34 130 68.50Q96 103 78 150Q60 197 60 252L60 696L180 696L180 261Q180 229 189.50 201Q199 173 217 152.50Q235 132 261 120Q287 108 320 108Q382 108 419.50 146Q457 184 457 256L457 696L579 696L579 247L579 247Z"  horiz-adv-x="638" vert-adv-y="1000"  />

      
      <glyph glyph-name="uni56" unicode="&#x56;" d="M336 0L237 0L1 696L130 696L230 378L286 194L291 194L344 377L442 696L571 696L336 0Z"  horiz-adv-x="575" vert-adv-y="1000"  />

      
      <glyph glyph-name="uni57" unicode="&#x57;" d="M419 473Q418 473 417.50 472.50Q417 472 416 472Q399 408 382.50 345Q366 282 349 218Q347 211 342.50 194Q338 177 331.50 155Q325 133 318.50 109Q312 85 305.50 63Q299 41 294.50 24Q290 7 288-1L187-1L6 695L135 695Q155 609 174.50 525Q194 441 213 355L241 228L245 228L277 354Q298 430 312.50 483.50Q327 537 338 575Q349 613 356.50 641Q364 669 372 695L464 695Q489 609 513 523Q537 437 560 351L593 227L597 227Q604 256 610 288.50Q616 321 622 350Q639 428 659.50 519Q680 610 701 695L829 695Q784 520 739 347Q694 174 648-1L548-1Q531 62 513.50 124.50Q496 187 478 250Q464 306 449 361.50Q434 417 419 473Z"  horiz-adv-x="839" vert-adv-y="1000"  />

      
      <glyph glyph-name="uni58" unicode="&#x58;" d="M439 0L287 257L136 0L0 0L225 356L13 696L150 696L287 456L425 696L561 696L350 356L575 0L439 0Z"  horiz-adv-x="576" vert-adv-y="1000"  />

      
      <glyph glyph-name="uni59" unicode="&#x59;" d="M553 696Q499 593 445 491Q391 389 336 286L336 0L221 0L221 286Q166 389 112.50 491Q59 593 4 696L133 696L217 524Q233 491 248 457.50Q263 424 278 390L280 390L342 527L425 696L553 696L553 696Z"  horiz-adv-x="557" vert-adv-y="1000"  />

      
      <glyph glyph-name="uni5a" unicode="&#x5a;" d="M30 0L30 104L353 589L43 589L43 696L497 696L497 597L174 111L497 111L497 0L30 0Z"  horiz-adv-x="527" vert-adv-y="1000"  />

      
      <glyph glyph-name="uni5b" unicode="&#x5b;" d="M70-100L70 699L269 699L269 617L176 617L176-19L269-19L269-100L70-100Z"  horiz-adv-x="288" vert-adv-y="1000"  />

      
      <glyph glyph-name="uni5c" unicode="&#x5c;" d="M-8 725L85 725L337-42L244-42L-8 725Z"  horiz-adv-x="343" vert-adv-y="1000"  />

      
      <glyph glyph-name="uni5d" unicode="&#x5d;" d="M22-100L22-19L115-19L115 617L22 617L22 699L221 699L221-100L22-100Z"  horiz-adv-x="288" vert-adv-y="1000"  />

      
      <glyph glyph-name="uni5e" unicode="&#x5e;" d="M404 282L264 580L124 281L24 281L221 695L308 695L505 282L404 282Z"  horiz-adv-x="525" vert-adv-y="1000"  />

      
      <glyph glyph-name="uni5f" unicode="&#x5f;" d="M0-145L0-69L500-69L500-145L0-145Z"  horiz-adv-x="500" vert-adv-y="1000"  />

      
      <glyph glyph-name="uni60" unicode="&#x60;" d="M275 544L152 723L260 759L342 573L275 544Z"  horiz-adv-x="504" vert-adv-y="1000"  />

      
      <glyph glyph-name="uni61" unicode="&#x61;" d="M245 500Q287 500 324 492.50Q361 485 389 466Q417 447 433.50 415.50Q450 384 450 336L450 0L337 0L337 44Q337 44 335 45Q315 19 279.50 7Q244-5 206-5Q127-5 81 33.50Q35 72 35 144Q35 174 46 201Q57 228 78 248.50Q99 269 130.50 281Q162 293 203 293L337 293L337 329Q337 343 332.50 356Q328 369 317 378.50Q306 388 287 394Q268 400 239 400Q198 400 170 389.50Q142 379 121 359L61 435Q97 471 145 485.50Q193 500 245 500M142 152Q142 141 146.50 130Q151 119 161.50 110.50Q172 102 188.50 96.50Q205 91 230 91Q249 91 267 94.50Q285 98 299.50 106Q314 114 324 127Q334 140 336 160Q337 166 337 175Q337 184 337 207L222 207Q179 207 160.50 191Q142 175 142 152Z"  horiz-adv-x="499" vert-adv-y="1000"  />

      
      <glyph glyph-name="uni62" unicode="&#x62;" d="M473 257Q473 213 467 166.50Q461 120 442 82Q423 44 388 19.50Q353-5 295-5Q263-5 229.50 6.50Q196 18 173 48L171 47L171 0L58 0L58 727L171 727L171 448L173 447Q198 474 231 487Q264 500 295 500Q351 500 385.50 477.50Q420 455 439.50 420Q459 385 466 342Q473 299 473 257M357 248Q357 273 354.50 298.50Q352 324 342.50 345Q333 366 314.50 379.50Q296 393 264 393Q233 393 214.50 379Q196 365 186.50 343.50Q177 322 174 296.50Q171 271 171 248Q171 225 173.50 199Q176 173 185.50 150.50Q195 128 213.50 113Q232 98 264 98Q296 98 314.50 112.50Q333 127 342.50 149Q352 171 354.50 197.50Q357 224 357 248Z"  horiz-adv-x="515" vert-adv-y="1000"  />

      
      <glyph glyph-name="uni63" unicode="&#x63;" d="M430 67Q394 32 350 13Q306-6 255-6Q210-6 169 8.50Q128 23 96.50 53.50Q65 84 46.50 132Q28 180 28 247Q28 314 47.50 362Q67 410 99 441Q131 472 173 486Q215 500 259 500Q358 500 428 430L355 351Q311 397 261 397Q204 397 174 361Q144 325 144 247Q144 170 173.50 134Q203 98 260 98Q285 98 310 111Q335 124 356 145L430 67L430 67Z"  horiz-adv-x="447" vert-adv-y="1000"  />

      
      <glyph glyph-name="uni64" unicode="&#x64;" d="M350 0L350 46L348 48Q322 19 289 7Q256-5 224-5Q165-5 130 18Q95 41 77 77.50Q59 114 53.50 160Q48 206 48 251Q48 293 56 337.50Q64 382 85 418.50Q106 455 142.50 478Q179 501 236 501Q268 501 298.50 489Q329 477 348 453L350 454L350 726L463 726L463 0L350 0M350 248Q350 271 347.50 296.50Q345 322 335.50 343.50Q326 365 308 379Q290 393 259 393Q226 393 207.50 378.50Q189 364 179 342Q169 320 166.50 293Q164 266 164 241Q164 218 166.50 193Q169 168 179 147.50Q189 127 207 114Q225 101 257 101Q288 101 306.50 115.50Q325 130 335 152Q345 174 347.50 199.50Q350 225 350 248Z"  horiz-adv-x="515" vert-adv-y="1000"  />

      
      <glyph glyph-name="uni65" unicode="&#x65;" d="M154 215Q154 192 160 170.50Q166 149 179 132.50Q192 116 212 106Q232 96 259 96Q281 96 314.50 106.50Q348 117 376 143Q394 123 409 103.50Q424 84 442 64Q400 26 351 10Q302-6 255-6Q216-6 177 5Q138 16 107 44.50Q76 73 56.50 121.50Q37 170 37 246Q37 318 56.50 366.50Q76 415 107 445Q138 475 176.50 488Q215 501 253 501Q303 501 342.50 484Q382 467 409.50 436.50Q437 406 451.50 362Q466 318 466 264L466 215L154 215M252 398Q213 398 187 371Q161 344 156 295L346 295Q343 346 316.50 372Q290 398 252 398Z"  horiz-adv-x="507" vert-adv-y="1000"  />

      
      <glyph glyph-name="uni66" unicode="&#x66;" d="M192 404L192 0L79 0L79 404L21 404L21 495L79 495L79 591Q79 626 90 651.50Q101 677 120 694Q139 711 165 719.50Q191 728 220 728L293 728L293 630L238 630Q212 630 202 615.50Q192 601 192 578L192 495L293 495L293 404L192 404Z"  horiz-adv-x="302" vert-adv-y="1000"  />

      
      <glyph glyph-name="uni67" unicode="&#x67;" d="M456 495L456 20Q456-43 439.50-85.50Q423-128 394-154Q365-180 324.50-191.50Q284-203 235-203Q217-203 195-200Q173-197 150-190Q127-183 104.50-171.50Q82-160 63-143L122-60Q147-78 177.50-89Q208-100 244-100Q291-100 318.50-74Q346-48 346 2L346 48L344 48Q320 20 288 7.50Q256-5 225-5Q168-5 132 17Q96 39 76.50 73.50Q57 108 50 151Q43 194 43 236Q43 280 49 326.50Q55 373 74.50 411.50Q94 450 130.50 475Q167 500 228 500Q260 500 291 488Q322 476 343 450L345 450L345 495L456 495M158 247Q158 220 160.50 194Q163 168 172.50 147Q182 126 201 113.50Q220 101 252 101Q283 101 301.50 115Q320 129 329.50 150.50Q339 172 342 197.50Q345 223 345 247Q345 268 343 294Q341 320 332 342Q323 364 304.50 379Q286 394 253 394Q220 394 201.50 380Q183 366 173 344.50Q163 323 160.50 297Q158 271 158 247Z"  horiz-adv-x="522" vert-adv-y="1000"  />

      
      <glyph glyph-name="uni68" unicode="&#x68;" d="M372 0L372 294Q372 342 350.50 368Q329 394 283 394Q242 394 214 368Q186 342 186 294L186 0L73 0L73 726L186 726L186 447L189 447Q212 472 247 486Q282 500 316 500Q351 500 382 489Q413 478 436 456Q459 434 472 401Q485 368 485 325L485 0L372 0Z"  horiz-adv-x="529" vert-adv-y="1000"  />

      
      <glyph glyph-name="uni69" unicode="&#x69;" d="M67 592L67 696L180 696L180 592L67 592M67 0L67 495L180 495L180 0L67 0Z"  horiz-adv-x="247" vert-adv-y="1000"  />

      
      <glyph glyph-name="uni6a" unicode="&#x6a;" d="M76 592L76 696L190 696L190 592L76 592M190-59Q190-123 153.50-162Q117-201 44-201L-8-201L-8-101L20-101Q52-101 64-84.50Q76-68 76-42L76 496L190 496L190-59Z"  horiz-adv-x="265" vert-adv-y="1000"  />

      
      <glyph glyph-name="uni6b" unicode="&#x6b;" d="M391 0Q354 56 318.50 111Q283 166 246 222Q229 203 211 184.50Q193 166 176 146L176 0L64 0L64 726L176 726L176 291L179 291L275 401L361 495L499 495L320 302Q371 226 421.50 150.50Q472 75 523 0L391 0Z"  horiz-adv-x="520" vert-adv-y="1000"  />

      
      <glyph glyph-name="uni6c" unicode="&#x6c;" d="M202 0Q173 0 148 6Q123 12 104 27Q85 42 74.50 67.50Q64 93 64 131L64 726L177 726L177 148Q177 120 189.50 110Q202 100 225 100L245 100L245 0L202 0Z"  horiz-adv-x="265" vert-adv-y="1000"  />

      
      <glyph glyph-name="uni6d" unicode="&#x6d;" d="M660 0L660 295Q660 343 637.50 369.50Q615 396 567 396Q528 396 501 368Q474 340 474 295L474 0L361 0L361 295Q361 343 338 369.50Q315 396 268 396Q229 396 201.50 368Q174 340 174 295L174 0L61 0L61 495L174 495L174 442Q175 442 175.50 441.50Q176 441 177 441Q199 469 235.50 484.50Q272 500 309 500Q402 500 446 429Q478 462 517.50 481Q557 500 603 500Q678 500 725 455.50Q772 411 772 326L772 0L660 0Z"  horiz-adv-x="833" vert-adv-y="1000"  />

      
      <glyph glyph-name="uni6e" unicode="&#x6e;" d="M357 0L357 294Q357 342 335.50 368Q314 394 266 394Q225 394 198 368Q171 342 171 294L171 0L58 0L58 496L171 496L171 444L173 444Q197 471 232.50 485.50Q268 500 302 500Q378 500 424 456.50Q470 413 470 325L470 0L357 0Z"  horiz-adv-x="529" vert-adv-y="1000"  />

      
      <glyph glyph-name="uni6f" unicode="&#x6f;" d="M264 501Q320 501 364.50 479.50Q409 458 436 418Q455 389 464 347.50Q473 306 472 255Q472 198 463.50 157.50Q455 117 438 87Q409 40 360 16.50Q311-7 252-7Q196-7 152 12Q108 31 81 71Q40 132 42 247Q42 287 47.50 323Q53 359 67 387Q93 442 144.50 471.50Q196 501 264 501M260 399Q231 399 208 384Q185 369 173 343Q164 323 160.50 299Q157 275 156 246Q156 217 159 193Q162 169 171 151Q182 125 204 110.50Q226 96 255 96Q287 96 312 113.50Q337 131 348 167Q353 181 355 202Q357 223 357 255Q357 313 344 342Q333 371 310.50 385Q288 399 260 399Z"  horiz-adv-x="515" vert-adv-y="1000"  />

      
      <glyph glyph-name="uni70" unicode="&#x70;" d="M172 495L172 451L175 450Q200 478 232 489Q264 500 296 500Q354 500 389.50 476.50Q425 453 444 416Q463 379 469 334Q475 289 475 246Q475 203 467.50 158.50Q460 114 439 77.50Q418 41 381 17.50Q344-6 284-6Q253-6 223 5.50Q193 17 174 41L172 41L172-200L60-200L60 495L172 495M172 246Q172 223 174.50 197Q177 171 186.50 149.50Q196 128 214.50 114Q233 100 264 100Q295 100 314 113.50Q333 127 342.50 148Q352 169 355 195Q358 221 358 246Q358 270 356 296Q354 322 345 344Q336 366 317.50 380Q299 394 266 394Q234 394 215.50 379.50Q197 365 187.50 343Q178 321 175 295Q172 269 172 246Z"  horiz-adv-x="516" vert-adv-y="1000"  />

      
      <glyph glyph-name="uni71" unicode="&#x71;" d="M53 238Q53 285 60.50 332Q68 379 89 416.50Q110 454 147.50 477Q185 500 245 500Q277 500 305 487.50Q333 475 354 449L356 449L356 495L469 495L469-202L356-202L356 47L354 47Q329 20 296.50 7Q264-6 234-6Q176-6 141 16Q106 38 86.50 72.50Q67 107 60 150.50Q53 194 53 238M169 246Q169 221 171.50 195.50Q174 170 183.50 149Q193 128 212 114.50Q231 101 263 101Q294 101 312 115Q330 129 340 150.50Q350 172 353 197.50Q356 223 356 246Q356 269 353.50 295.50Q351 322 341.50 344.50Q332 367 313.50 382Q295 397 264 397Q231 397 212.50 382.50Q194 368 184 345.50Q174 323 171.50 296.50Q169 270 169 246Z"  horiz-adv-x="522" vert-adv-y="1000"  />

      
      <glyph glyph-name="uni72" unicode="&#x72;" d="M270 395Q229 395 203 370Q177 345 177 297L177-1L64-1L64 495L175 495L175 436L179 436Q224 500 299 500Q327 500 350 494Q373 488 393 474L351 372Q330 385 310 390Q290 395 270 395Z"  horiz-adv-x="388" vert-adv-y="1000"  />

      
      <glyph glyph-name="uni73" unicode="&#x73;" d="M433 151Q433 114 417 85Q401 56 373.50 35.50Q346 15 309.50 4.50Q273-6 231-6Q176-6 121.50 9Q67 24 16 69L77 150Q112 118 151.50 104.50Q191 91 236 91Q272 91 297 106Q322 121 322 148Q322 174 301 186.50Q280 199 234 204Q201 208 167.50 214Q134 220 107 235Q80 250 63 276Q46 302 46 345Q46 383 61 412Q76 441 101 460.50Q126 480 159.50 490Q193 500 231 500Q288 500 334 487.50Q380 475 421 444L367 358Q332 381 297.50 391Q263 401 233 401Q193 401 173 385.50Q153 370 153 348Q153 323 181 312Q209 301 271 294Q301 291 330.50 282.50Q360 274 382.50 258Q405 242 419 216Q433 190 433 151Z"  horiz-adv-x="463" vert-adv-y="1000"  />

      
      <glyph glyph-name="uni74" unicode="&#x74;" d="M217 0Q162 0 126 32Q90 64 90 124L90 404L33 404L33 496L91 496L91 625L201 625L201 496L277 496L277 404L202 404L202 155Q202 129 212 114Q222 99 248 99L285 99L285 0L217 0Z"  horiz-adv-x="316" vert-adv-y="1000"  />

      
      <glyph glyph-name="uni75" unicode="&#x75;" d="M171 495L171 200Q171 149 192 124Q213 99 263 99Q303 99 330.50 125.50Q358 152 358 200L358 495L471 495L471 0L358 0L358 49L355 49Q332 21 297 7.50Q262-6 229-6Q152-6 105.50 37Q59 80 59 170L59 495L171 495Z"  horiz-adv-x="533" vert-adv-y="1000"  />

      
      <glyph glyph-name="uni76" unicode="&#x76;" d="M243 155L286 293L353 495L475 495L286 0L195 0L5 495L127 495Q144 446 160 395Q176 344 193 293Q205 258 217 224Q229 190 240 155L243 155Z"  horiz-adv-x="480" vert-adv-y="1000"  />

      
      <glyph glyph-name="uni77" unicode="&#x77;" d="M520 168Q526 189 531.50 211Q537 233 542 253Q546 268 550.50 284.50Q555 301 562 327Q569 353 580 393Q591 433 609 495L730 495Q689 370 648.50 247.50Q608 125 566 0L467 0Q449 57 431.50 115Q414 173 397 231L368 325L366 325L335 219Q303 109 268 0L169 0L5 495L126 495Q137 460 146.50 425Q156 390 166 355Q180 309 191.50 263Q203 217 217 171L221 171Q229 197 234 212.50Q239 228 242.50 240.50Q246 253 250.50 268.50Q255 284 263 310L321 495L416 495Q435 435 453.50 374Q472 313 490 252L514 168L520 168Z"  horiz-adv-x="736" vert-adv-y="1000"  />

      
      <glyph glyph-name="uni78" unicode="&#x78;" d="M354 0L250 167L147 0L11 0L191 253L19 495L154 495L250 335L347 495L482 495L310 252L490 0L354 0Z"  horiz-adv-x="501" vert-adv-y="1000"  />

      
      <glyph glyph-name="uni79" unicode="&#x79;" d="M252-100Q231-157 192-178.50Q153-200 108-200L66-200L66-105L97-105Q119-105 134-89.50Q149-74 157-53L182 25L0 495L122 495L186 313L235 157L239 157L288 311L351 495L470 495L252-100Z"  horiz-adv-x="470" vert-adv-y="1000"  />

      
      <glyph glyph-name="uni7a" unicode="&#x7a;" d="M31 0L31 94L280 398L45 398L45 495L417 495L417 403L169 102L417 102L417 0L31 0Z"  horiz-adv-x="449" vert-adv-y="1000"  />

      
      <glyph glyph-name="uni7b" unicode="&#x7b;" d="M196-98Q155-98 126-71.50Q97-45 92 0Q91 8 90.50 17Q90 26 90 35L90 136Q90 145 90 154.50Q90 164 89 172Q86 213 67 235.50Q48 258 13 260L13 337Q52 341 71 371Q90 401 90 447L90 580Q90 633 120.50 664.50Q151 696 196 696L279 696L279 618L238 618Q226 618 217.50 611Q209 604 204 593.50Q199 583 197 570.50Q195 558 195 546L195 425Q195 397 187.50 376Q180 355 168.50 339.50Q157 324 143.50 314.50Q130 305 119 300L119 298Q132 293 145.50 283.50Q159 274 170 258.50Q181 243 188 222.50Q195 202 195 175L195 51Q195 39 196 26Q197 13 201.50 2.50Q206-8 214.50-14.50Q223-21 238-21L279-21L279-98L196-98Z"  horiz-adv-x="288" vert-adv-y="1000"  />

      
      <glyph glyph-name="uni7c" unicode="&#x7c;" d="M68-195L68 723L163 723L163-195L68-195Z"  horiz-adv-x="232" vert-adv-y="1000"  />

      
      <glyph glyph-name="uni7d" unicode="&#x7d;" d="M276 260Q252 261 237 249.50Q222 238 213.50 220Q205 202 202 179.50Q199 157 199 136L199 35Q199 26 199 17Q199 8 197 0Q192-45 163.50-71.50Q135-98 94-98L11-98L11-21L52-21Q66-21 74.50-14.50Q83-8 87.50 2.50Q92 13 93.50 26Q95 39 95 51L95 175Q95 202 102 222.50Q109 243 120 258.50Q131 274 144.50 283.50Q158 293 171 298L171 300Q159 305 146 314.50Q133 324 121.50 339.50Q110 355 102.50 376Q95 397 95 425L95 546Q95 558 93.50 570.50Q92 583 87.50 593.50Q83 604 74.50 611Q66 618 52 618L11 618L11 694L93 694Q142 694 170.50 662.50Q199 631 199 580L199 447Q199 426 203.50 406.50Q208 387 218 372Q228 357 242 347.50Q256 338 276 337L276 260L276 260Z"  horiz-adv-x="288" vert-adv-y="1000"  />

      
      <glyph glyph-name="uni7e" unicode="&#x7e;" d="M494 308Q465 253 432 227Q399 201 355 201Q333 201 310.50 210Q288 219 265.50 230.50Q243 242 221.50 251Q200 260 182 260Q158 260 140.50 248Q123 236 100 207Q83 218 67 228.50Q51 239 34 250Q63 303 97.50 329Q132 355 178 355Q201 355 224 345.50Q247 336 268.50 324.50Q290 313 310 304Q330 295 348 295Q371 295 388.50 310Q406 325 427 353L494 308L494 308Z"  horiz-adv-x="525" vert-adv-y="1000"  />

      
      <glyph glyph-name="unic4" unicode="&#xc4;" d="M498 0L443 154L185 154L129 0L2 0L265 696L363 696L626 0L498 0M361 398L315 541L312 541L267 401L220 257L407 257L361 398M352 757L352 868L472 868L472 757L352 757M154 757L154 868L275 868L275 757L154 757Z"  horiz-adv-x="629" vert-adv-y="1000"  />

      
      <glyph glyph-name="unid6" unicode="&#xd6;" d="M304 701Q364 701 412 681Q460 661 494 626Q528 591 546 542.50Q564 494 564 437L564 259Q564 198 545.50 149Q527 100 493 65.50Q459 31 411 12.50Q363-6 304-6Q239-6 190 15.50Q141 37 109 73.50Q77 110 61 158Q45 206 45 259L45 437Q45 489 61 537Q77 585 109 621.50Q141 658 190 679.50Q239 701 304 701M304 587Q269 587 243.50 575Q218 563 201 542.50Q184 522 175.50 496Q167 470 167 443L167 256Q167 227 175.50 200.50Q184 174 201 153Q218 132 243.50 119.50Q269 107 304 107Q336 107 361.50 118.50Q387 130 404.50 150Q422 170 431.50 197Q441 224 441 256L441 443Q441 473 431.50 499Q422 525 404.50 544.50Q387 564 361.50 575.50Q336 587 304 587M343 757L343 868L463 868L463 757L343 757M145 757L145 868L266 868L266 757L145 757Z"  horiz-adv-x="610" vert-adv-y="1000"  />

      
      <glyph glyph-name="unidc" unicode="&#xdc;" d="M579 247Q579 190 559.50 143.50Q540 97 505.50 64Q471 31 423 13Q375-5 319-5Q260-5 212 14.50Q164 34 130 68.50Q96 103 78 150Q60 197 60 252L60 696L180 696L180 261Q180 229 189.50 201Q199 173 217 152.50Q235 132 261 120Q287 108 320 108Q382 108 419.50 146Q457 184 457 256L457 696L579 696L579 247M360 757L360 868L480 868L480 757L360 757M162 757L162 868L283 868L283 757L162 757Z"  horiz-adv-x="638" vert-adv-y="1000"  />

      
      <glyph glyph-name="uni0385" unicode="&#x0385;" d="M340 579L340 689L458 689L458 579L340 579M38 579L38 689L155 689L155 579L38 579M165 569L244 759L351 725L233 544L165 569Z"  horiz-adv-x="502" vert-adv-y="1000"  />

      
      <glyph glyph-name="unie0" unicode="&#xe0;" d="M245 500Q287 500 324 492.50Q361 485 389 466Q417 447 433.50 415.50Q450 384 450 336L450 0L337 0L337 44Q337 44 335 45Q315 19 279.50 7Q244-5 206-5Q127-5 81 33.50Q35 72 35 144Q35 174 46 201Q57 228 78 248.50Q99 269 130.50 281Q162 293 203 293L337 293L337 329Q337 343 332.50 356Q328 369 317 378.50Q306 388 287 394Q268 400 239 400Q198 400 170 389.50Q142 379 121 359L61 435Q97 471 145 485.50Q193 500 245 500M142 152Q142 141 146.50 130Q151 119 161.50 110.50Q172 102 188.50 96.50Q205 91 230 91Q249 91 267 94.50Q285 98 299.50 106Q314 114 324 127Q334 140 336 160Q337 166 337 175Q337 184 337 207L222 207Q179 207 160.50 191Q142 175 142 152M247 544L124 723L232 759L314 573L247 544Z"  horiz-adv-x="499" vert-adv-y="1000"  />

      
      <glyph glyph-name="unie2" unicode="&#xe2;" d="M245 500Q287 500 324 492.50Q361 485 389 466Q417 447 433.50 415.50Q450 384 450 336L450 0L337 0L337 44Q337 44 335 45Q315 19 279.50 7Q244-5 206-5Q127-5 81 33.50Q35 72 35 144Q35 174 46 201Q57 228 78 248.50Q99 269 130.50 281Q162 293 203 293L337 293L337 329Q337 343 332.50 356Q328 369 317 378.50Q306 388 287 394Q268 400 239 400Q198 400 170 389.50Q142 379 121 359L61 435Q97 471 145 485.50Q193 500 245 500M248 642Q239 636 219.50 621Q200 606 178.50 589.50Q157 573 137 558Q117 543 108 537L62 580L211 734L289 734L435 581L387 537L248 642M142 152Q142 141 146.50 130Q151 119 161.50 110.50Q172 102 188.50 96.50Q205 91 230 91Q249 91 267 94.50Q285 98 299.50 106Q314 114 324 127Q334 140 336 160Q337 166 337 175Q337 184 337 207L222 207Q179 207 160.50 191Q142 175 142 152Z"  horiz-adv-x="499" vert-adv-y="1000"  />

      
      <glyph glyph-name="unie4" unicode="&#xe4;" d="M245 500Q287 500 324 492.50Q361 485 389 466Q417 447 433.50 415.50Q450 384 450 336L450 0L337 0L337 44Q337 44 335 45Q315 19 279.50 7Q244-5 206-5Q127-5 81 33.50Q35 72 35 144Q35 174 46 201Q57 228 78 248.50Q99 269 130.50 281Q162 293 203 293L337 293L337 329Q337 343 332.50 356Q328 369 317 378.50Q306 388 287 394Q268 400 239 400Q198 400 170 389.50Q142 379 121 359L61 435Q97 471 145 485.50Q193 500 245 500M142 152Q142 141 146.50 130Q151 119 161.50 110.50Q172 102 188.50 96.50Q205 91 230 91Q249 91 267 94.50Q285 98 299.50 106Q314 114 324 127Q334 140 336 160Q337 166 337 175Q337 184 337 207L222 207Q179 207 160.50 191Q142 175 142 152M93 583L93 692L212 692L212 583L93 583M293 583L293 692L411 692L411 583L293 583Z"  horiz-adv-x="499" vert-adv-y="1000"  />

      
      <glyph glyph-name="uni0384" unicode="&#x0384;" d="M188 569L267 759L374 725L256 544L188 569Z"  horiz-adv-x="504" vert-adv-y="1000"  />

      
      <glyph glyph-name="unia8" unicode="&#xa8;" d="M292 583L292 692L410 692L410 583L292 583M92 583L92 692L211 692L211 583L92 583Z"  horiz-adv-x="504" vert-adv-y="1000"  />

      
      <glyph glyph-name="unie7" unicode="&#xe7;" d="M430 67Q395 33 352 14Q309-5 258-6L249-37Q276-39 295-48Q314-57 325.50-69.50Q337-82 342-96.50Q347-111 347-124Q347-139 340-155Q333-171 319-184Q305-197 283.50-205Q262-213 233-213Q207-213 181.50-207.50Q156-202 133-189L154-137Q177-148 194-150.50Q211-153 226-153Q243-153 256.50-146Q270-139 270-120Q270-103 257.50-95.50Q245-88 227-88Q220-88 210-90L180-70L202-1Q166 6 134 24.50Q102 43 78.50 73.50Q55 104 41.50 147Q28 190 28 247Q28 314 47.50 362Q67 410 99 441Q131 472 173 486Q215 500 259 500Q358 500 428 430L355 351Q311 397 261 397Q204 397 174 361Q144 325 144 247Q144 170 173.50 134Q203 98 260 98Q285 98 310 111Q335 124 356 145L430 67L430 67Z"  horiz-adv-x="447" vert-adv-y="1000"  />

      
      <glyph glyph-name="unie9" unicode="&#xe9;" d="M154 215Q154 192 160 170.50Q166 149 179 132.50Q192 116 212 106Q232 96 259 96Q281 96 314.50 106.50Q348 117 376 143Q394 123 409 103.50Q424 84 442 64Q400 26 351 10Q302-6 255-6Q216-6 177 5Q138 16 107 44.50Q76 73 56.50 121.50Q37 170 37 246Q37 318 56.50 366.50Q76 415 107 445Q138 475 176.50 488Q215 501 253 501Q303 501 342.50 484Q382 467 409.50 436.50Q437 406 451.50 362Q466 318 466 264L466 215L154 215M252 398Q213 398 187 371Q161 344 156 295L346 295Q343 346 316.50 372Q290 398 252 398M198 569L277 759L384 725L266 544L198 569Z"  horiz-adv-x="507" vert-adv-y="1000"  />

      
      <glyph glyph-name="unie8" unicode="&#xe8;" d="M154 215Q154 192 160 170.50Q166 149 179 132.50Q192 116 212 106Q232 96 259 96Q281 96 314.50 106.50Q348 117 376 143Q394 123 409 103.50Q424 84 442 64Q400 26 351 10Q302-6 255-6Q216-6 177 5Q138 16 107 44.50Q76 73 56.50 121.50Q37 170 37 246Q37 318 56.50 366.50Q76 415 107 445Q138 475 176.50 488Q215 501 253 501Q303 501 342.50 484Q382 467 409.50 436.50Q437 406 451.50 362Q466 318 466 264L466 215L154 215M252 398Q213 398 187 371Q161 344 156 295L346 295Q343 346 316.50 372Q290 398 252 398M249 544L126 723L234 759L316 573L249 544Z"  horiz-adv-x="507" vert-adv-y="1000"  />

      
      <glyph glyph-name="uniea" unicode="&#xea;" d="M154 215Q154 192 160 170.50Q166 149 179 132.50Q192 116 212 106Q232 96 259 96Q281 96 314.50 106.50Q348 117 376 143Q394 123 409 103.50Q424 84 442 64Q400 26 351 10Q302-6 255-6Q216-6 177 5Q138 16 107 44.50Q76 73 56.50 121.50Q37 170 37 246Q37 318 56.50 366.50Q76 415 107 445Q138 475 176.50 488Q215 501 253 501Q303 501 342.50 484Q382 467 409.50 436.50Q437 406 451.50 362Q466 318 466 264L466 215L154 215M252 398Q213 398 187 371Q161 344 156 295L346 295Q343 346 316.50 372Q290 398 252 398M258 642Q249 636 229.50 621Q210 606 188.50 589.50Q167 573 147 558Q127 543 118 537L72 580L221 734L299 734L445 581L397 537L258 642Z"  horiz-adv-x="507" vert-adv-y="1000"  />

      
      <glyph glyph-name="unieb" unicode="&#xeb;" d="M154 215Q154 192 160 170.50Q166 149 179 132.50Q192 116 212 106Q232 96 259 96Q281 96 314.50 106.50Q348 117 376 143Q394 123 409 103.50Q424 84 442 64Q400 26 351 10Q302-6 255-6Q216-6 177 5Q138 16 107 44.50Q76 73 56.50 121.50Q37 170 37 246Q37 318 56.50 366.50Q76 415 107 445Q138 475 176.50 488Q215 501 253 501Q303 501 342.50 484Q382 467 409.50 436.50Q437 406 451.50 362Q466 318 466 264L466 215L154 215M252 398Q213 398 187 371Q161 344 156 295L346 295Q343 346 316.50 372Q290 398 252 398M297 583L297 692L415 692L415 583L297 583M97 583L97 692L216 692L216 583L97 583Z"  horiz-adv-x="507" vert-adv-y="1000"  />

      
      <glyph glyph-name="unia3" unicode="&#xa3;" d="M393 526Q364 569 335 582Q306 595 274 595Q260 595 246 589.50Q232 584 220 573.50Q208 563 200.50 546.50Q193 530 193 508Q193 491 197.50 474.50Q202 458 208.50 441Q215 424 222 406Q229 388 233 367L383 367L383 280L237 280Q235 234 224 188.50Q213 143 187 101L482 101L482 0L39 0L39 86Q72 130 92.50 176.50Q113 223 117 280L37 280L37 367L104 367Q93 405 78.50 440Q64 475 64 510Q64 546 76.50 580Q89 614 114.50 641Q140 668 179 684Q218 700 271 700Q305 700 334 696.50Q363 693 389 681.50Q415 670 439 649Q463 628 489 592L393 526Z"  horiz-adv-x="525" vert-adv-y="1000"  />

      
      <glyph glyph-name="uni2122" unicode="&#x2122;" d="M717 283L717 513L637 340L575 340L496 516L496 283L417 283L417 696L490 696L608 437L721 696L794 696L794 283L717 283M245 619L245 283L161 283L161 619L37 619L37 696L369 696L369 619L245 619Z"  horiz-adv-x="856" vert-adv-y="1000"  />

      
      <glyph glyph-name="uni2022" unicode="&#x2022;" d="M85 274Q85 304 96 330.50Q107 357 126.50 376.50Q146 396 172.50 407.50Q199 419 229 419Q259 419 285.50 407.50Q312 396 331.50 376.50Q351 357 362.50 330.50Q374 304 374 274Q374 244 362.50 217.50Q351 191 331.50 171.50Q312 152 285.50 140.50Q259 129 229 129Q199 129 172.50 140.50Q146 152 126.50 171.50Q107 191 96 217.50Q85 244 85 274Z"  horiz-adv-x="443" vert-adv-y="1000"  />

      
      <glyph glyph-name="unif4" unicode="&#xf4;" d="M264 501Q320 501 364.50 479.50Q409 458 436 418Q455 389 464 347.50Q473 306 472 255Q472 198 463.50 157.50Q455 117 438 87Q409 40 360 16.50Q311-7 252-7Q196-7 152 12Q108 31 81 71Q40 132 42 247Q42 287 47.50 323Q53 359 67 387Q93 442 144.50 471.50Q196 501 264 501M260 399Q231 399 208 384Q185 369 173 343Q164 323 160.50 299Q157 275 156 246Q156 217 159 193Q162 169 171 151Q182 125 204 110.50Q226 96 255 96Q287 96 312 113.50Q337 131 348 167Q353 181 355 202Q357 223 357 255Q357 313 344 342Q333 371 310.50 385Q288 399 260 399M258 642Q249 636 229.50 621Q210 606 188.50 589.50Q167 573 147 558Q127 543 118 537L72 580L221 734L299 734L445 581L397 537L258 642Z"  horiz-adv-x="515" vert-adv-y="1000"  />

      
      <glyph glyph-name="unif6" unicode="&#xf6;" d="M264 501Q320 501 364.50 479.50Q409 458 436 418Q455 389 464 347.50Q473 306 472 255Q472 198 463.50 157.50Q455 117 438 87Q409 40 360 16.50Q311-7 252-7Q196-7 152 12Q108 31 81 71Q40 132 42 247Q42 287 47.50 323Q53 359 67 387Q93 442 144.50 471.50Q196 501 264 501M260 399Q231 399 208 384Q185 369 173 343Q164 323 160.50 299Q157 275 156 246Q156 217 159 193Q162 169 171 151Q182 125 204 110.50Q226 96 255 96Q287 96 312 113.50Q337 131 348 167Q353 181 355 202Q357 223 357 255Q357 313 344 342Q333 371 310.50 385Q288 399 260 399M297 583L297 692L415 692L415 583L297 583M97 583L97 692L216 692L216 583L97 583Z"  horiz-adv-x="515" vert-adv-y="1000"  />

      
      <glyph glyph-name="uniad" unicode="&#xad;" d="M49 211L49 314L367 314L367 211L49 211Z"  horiz-adv-x="416" vert-adv-y="1000"  />

      
      <glyph glyph-name="unif9" unicode="&#xf9;" d="M171 495L171 200Q171 149 192 124Q213 99 263 99Q303 99 330.50 125.50Q358 152 358 200L358 495L471 495L471 0L358 0L358 49L355 49Q332 21 297 7.50Q262-6 229-6Q152-6 105.50 37Q59 80 59 170L59 495L171 495M255 544L132 723L240 759L322 573L255 544Z"  horiz-adv-x="533" vert-adv-y="1000"  />

      
      <glyph glyph-name="unifb" unicode="&#xfb;" d="M171 495L171 200Q171 149 192 124Q213 99 263 99Q303 99 330.50 125.50Q358 152 358 200L358 495L471 495L471 0L358 0L358 49L355 49Q332 21 297 7.50Q262-6 229-6Q152-6 105.50 37Q59 80 59 170L59 495L171 495M263 642Q254 636 234.50 621Q215 606 193.50 589.50Q172 573 152 558Q132 543 123 537L77 580L226 734L304 734L450 581L402 537L263 642Z"  horiz-adv-x="533" vert-adv-y="1000"  />

      
      <glyph glyph-name="unifc" unicode="&#xfc;" d="M171 495L171 200Q171 149 192 124Q213 99 263 99Q303 99 330.50 125.50Q358 152 358 200L358 495L471 495L471 0L358 0L358 49L355 49Q332 21 297 7.50Q262-6 229-6Q152-6 105.50 37Q59 80 59 170L59 495L171 495M298 583L298 692L416 692L416 583L298 583M98 583L98 692L217 692L217 583L98 583Z"  horiz-adv-x="533" vert-adv-y="1000"  />

      
      <glyph glyph-name="uni2020" unicode="&#x2020;" d="M300 373L300-177L189-177L189 373L21 373L21 465L189 465L189 696L300 696L300 465L467 465L467 373L300 373Z"  horiz-adv-x="488" vert-adv-y="1000"  />

      
      <glyph glyph-name="uni0393" unicode="&#x0393;" d="M194 586L194 0L73 0L73 696L539 696L539 586L194 586Z"  horiz-adv-x="545" vert-adv-y="1000"  />

      
      <glyph glyph-name="uni0394" unicode="&#x0394;" d="M2 0L264 696L363 696L625 0L2 0M460 105Q435 178 411 251.50Q387 325 363 398L316 548L311 548Q301 516 292 484.50Q283 453 272 421Q262 389 249 349Q236 309 221.50 267Q207 225 193 183Q179 141 166 105L460 105Z"  horiz-adv-x="630" vert-adv-y="1000"  />

      
      <glyph glyph-name="uni2206" unicode="&#x2206;" d="M2 0L264 696L363 696L625 0L2 0M460 105Q435 178 411 251.50Q387 325 363 398L316 548L311 548Q301 516 292 484.50Q283 453 272 421Q262 389 249 349Q236 309 221.50 267Q207 225 193 183Q179 141 166 105L460 105Z"  horiz-adv-x="630" vert-adv-y="1000"  />

      
      <glyph glyph-name="uni0398" unicode="&#x0398;" d="M300 701Q360 701 408 681Q456 661 490 626Q524 591 542 542.50Q560 494 560 437L560 259Q560 198 541.50 149Q523 100 489 65.50Q455 31 407 12.50Q359-6 300-6Q235-6 186 15.50Q137 37 105 73.50Q73 110 57 158Q41 206 41 259L41 437Q41 489 57 537Q73 585 105 621.50Q137 658 186 679.50Q235 701 300 701M300 586Q265 586 239.50 574Q214 562 197 541.50Q180 521 171.50 495Q163 469 163 442L163 257Q163 228 171.50 201.50Q180 175 197 154Q214 133 239.50 120.50Q265 108 300 108Q332 108 357.50 119.50Q383 131 400.50 151Q418 171 427.50 198Q437 225 437 257L437 442Q437 472 427.50 498Q418 524 400.50 543.50Q383 563 357.50 574.50Q332 586 300 586M407 301L194 301L194 401L407 401L407 301Z"  horiz-adv-x="602" vert-adv-y="1000"  />

      
      <glyph glyph-name="uni039B" unicode="&#x039B;" d="M493 0Q487 18 476.50 47.50Q466 77 455.50 107.50Q445 138 436 164Q427 190 423 201Q419 212 406.50 246.50Q394 281 378 327Q362 373 344 425Q326 477 310 523L307 523Q291 477 273 425.50Q255 374 239 328Q223 282 211 247.50Q199 213 195 202Q191 191 182 164.50Q173 138 162 107.50Q151 77 140.50 47.50Q130 18 124 0L-3 0L259 696L358 696L621 0L493 0Z"  horiz-adv-x="618" vert-adv-y="1000"  />

      
      <glyph glyph-name="uni039E" unicode="&#x039E;" d="M55 586L55 696L530 696L530 586L55 586M107 298L107 404L478 404L478 298L107 298M53 0L53 110L533 110L533 0L53 0Z"  horiz-adv-x="589" vert-adv-y="1000"  />

      
      <glyph glyph-name="uni03A0" unicode="&#x03A0;" d="M462 0L462 588L194 588L194 0L73 0L73 696L582 696L582 0L462 0Z"  horiz-adv-x="655" vert-adv-y="1000"  />

      
      <glyph glyph-name="unidf" unicode="&#xdf;" d="M493 236Q493 196 483.50 154Q474 112 449.50 77.50Q425 43 384 21Q343-1 280-1L246-1L246 93L275 93Q320 93 347.50 132Q375 171 375 233Q375 252 371 274.50Q367 297 357 316Q347 335 329.50 347.50Q312 360 286 360L264 360L264 452L285 452Q306 452 319.50 461.50Q333 471 341 484.50Q349 498 352 512.50Q355 527 355 537Q355 552 350 568.50Q345 585 334.50 599Q324 613 307.50 622Q291 631 268 631Q242 631 224 622Q206 613 195 598.50Q184 584 179.50 566Q175 548 175 530L175 0L62 0L62 527Q62 574 77 611.50Q92 649 119 674.50Q146 700 184 713.50Q222 727 268 727Q319 727 355.50 711Q392 695 416 669.50Q440 644 451.50 612.50Q463 581 463 549Q463 532 458 511.50Q453 491 443.50 472Q434 453 420 437.50Q406 422 388 413L388 412Q418 403 438 384Q458 365 470.50 340Q483 315 488 288Q493 261 493 236Z"  horiz-adv-x="542" vert-adv-y="1000"  />

      
      <glyph glyph-name="uniae" unicode="&#xae;" d="M273 464L238 464L238 367L191 367L191 610L290 610Q321 610 343 591Q365 572 365 539Q365 494 321 472L373 367L320 367L273 464M238 567L238 508L285 508Q300 508 309.50 516.50Q319 525 319 539Q319 567 287 567L238 567M272 277Q226 277 187 293Q148 309 119 337Q90 365 73.50 404Q57 443 57 488Q57 534 74 573Q91 612 120 640.50Q149 669 188.50 685Q228 701 272 701Q318 701 357 685Q396 669 425 640.50Q454 612 470.50 573Q487 534 487 488Q487 443 470 404Q453 365 423.50 337Q394 309 355 293Q316 277 272 277M272 657Q236 657 205.50 644Q175 631 152.50 608.50Q130 586 117.50 555Q105 524 105 488Q105 452 117.50 421.50Q130 391 152.50 368.50Q175 346 205.50 333Q236 320 272 320Q308 320 338 333Q368 346 390.50 368.50Q413 391 425.50 421.50Q438 452 438 488Q438 524 425.50 555Q413 586 390.50 608.50Q368 631 338 644Q308 657 272 657Z"  horiz-adv-x="543" vert-adv-y="1000"  />

      
      <glyph glyph-name="unia9" unicode="&#xa9;" d="M408-12Q332-12 267.50 14Q203 40 156 87Q109 134 82.50 199Q56 264 56 342Q56 418 83 483.50Q110 549 157.50 596Q205 643 269 670Q333 697 408 697Q483 697 547 670.50Q611 644 658.50 596.50Q706 549 733 484Q760 419 760 342Q760 265 733 200.50Q706 136 658.50 88.50Q611 41 547 14.50Q483-12 408-12M408 627Q349 627 298.50 605Q248 583 211 545Q174 507 153 455Q132 403 132 342Q132 281 153 229Q174 177 211 139Q248 101 298.50 79.50Q349 58 408 58Q467 58 517.50 79.50Q568 101 604.50 139Q641 177 662 229Q683 281 683 342Q683 404 662 456.50Q641 509 604.50 547Q568 585 517.50 606Q467 627 408 627M565 218Q548 168 508 140.50Q468 113 410 113Q369 113 338.50 126Q308 139 287.50 161.50Q267 184 257 214.50Q247 245 247 280L247 389Q247 422 257 452Q267 482 287.50 505.50Q308 529 338.50 542.50Q369 556 410 556Q468 556 507.50 527.50Q547 499 564 451L488 421Q480 446 460 462.50Q440 479 410 479Q368 479 348 452.50Q328 426 328 393L328 278Q328 261 333 245.50Q338 230 348 217Q358 204 373.50 196.50Q389 189 410 189Q440 189 460 206Q480 223 488 250L565 218Z"  horiz-adv-x="812" vert-adv-y="1000"  />

      
      <glyph glyph-name="uni03A3" unicode="&#x03A3;" d="M30 0L30 110L191 357L30 592L30 696L484 696L484 588L175 588L334 358L175 112L497 112L497 0L30 0Z"  horiz-adv-x="527" vert-adv-y="1000"  />

      
      <glyph glyph-name="uni03AA" unicode="&#x03AA;" d="M74 0L74 696L196 696L196 0L74 0M171 757L171 868L291 868L291 757L171 757M-27 757L-27 868L94 868L94 757L-27 757Z"  horiz-adv-x="268" vert-adv-y="1000"  />

      
      <glyph glyph-name="unia7" unicode="&#xa7;" d="M454 292Q454 260 438.50 229.50Q423 199 401 183Q420 165 432.50 140.50Q445 116 445 89Q445 50 429.50 18.50Q414-13 386.50-35Q359-57 321-68.50Q283-80 239-80Q181-80 128.50-58.50Q76-37 39 0L102 73Q132 43 168.50 28Q205 13 240 13Q282 13 310.50 29.50Q339 46 339 84Q339 111 313.50 129Q288 147 229 165Q188 177 155.50 191Q123 205 100.50 224.50Q78 244 65.50 270Q53 296 53 334Q53 366 71 394.50Q89 423 113 440Q91 460 78 484Q65 508 65 539Q65 575 79.50 605Q94 635 119.50 656Q145 677 179.50 688.50Q214 700 254 700Q309 700 355 687Q401 674 443 641L386 563Q349 589 315 597.50Q281 606 249 606Q216 606 192 588.50Q168 571 168 545Q168 525 182 512Q196 499 217 489.50Q238 480 262.50 473Q287 466 308 459Q335 450 361.50 437.50Q388 425 408.50 406Q429 387 441.50 359.50Q454 332 454 292M185 391Q154 373 154 340Q154 320 168 307Q182 294 207 283Q236 270 269.50 260.50Q303 251 332 238Q355 255 355 288Q355 319 327.50 336Q300 353 239 372Q225 376 213.50 380Q202 384 185 391Z"  horiz-adv-x="488" vert-adv-y="1000"  />

      
      <glyph glyph-name="unib0" unicode="&#xb0;" d="M353 558Q353 528 341.50 501.50Q330 475 309.50 455.50Q289 436 262 425Q235 414 204 414Q173 414 146 425Q119 436 98.50 455.50Q78 475 66.50 501.50Q55 528 55 558Q55 588 66.50 614Q78 640 98.50 659.50Q119 679 146 690Q173 701 204 701Q235 701 262 690Q289 679 309.50 659.50Q330 640 341.50 614Q353 588 353 558M277 558Q277 587 256 607.50Q235 628 204 628Q175 628 153.50 607.50Q132 587 132 558Q132 529 153.50 508Q175 487 204 487Q235 487 256 508Q277 529 277 558Z"  horiz-adv-x="409" vert-adv-y="1000"  />

      
      <glyph glyph-name="unib7" unicode="&#xb7;" d="M67 205L67 343L203 343L203 205L67 205Z"  horiz-adv-x="271" vert-adv-y="1000"  />

      
      <glyph glyph-name="uni0391" unicode="&#x0391;" d="M498 0L443 154L185 154L129 0L2 0L265 696L363 696L626 0L498 0M361 398L315 541L312 541L267 401L220 257L407 257L361 398Z"  horiz-adv-x="629" vert-adv-y="1000"  />

      
      <glyph glyph-name="unib1" unicode="&#xb1;" d="M312 306L312 132L217 132L217 306L28 306L28 396L217 396L217 574L312 574L312 396L501 396L501 306L312 306M26 0L26 89L503 89L503 0L26 0Z"  horiz-adv-x="525" vert-adv-y="1000"  />

      
      <glyph glyph-name="unia5" unicode="&#xa5;" d="M268 386L326 532L398 696L521 696Q481 612 441 529.50Q401 447 360 363L470 363L470 295L325 295L320 278L320 226L470 226L470 158L320 158L320 0L206 0L206 158L58 158L58 226L206 226L206 278Q205 284 204 286.50Q203 289 201 295L58 295L58 363L166 363Q124 447 84 529.50Q44 612 3 696L132 696L213 510Q227 479 239 448Q251 417 264 386L268 386Z"  horiz-adv-x="525" vert-adv-y="1000"  />

      
      <glyph glyph-name="uni0392" unicode="&#x0392;" d="M582 200Q582 155 565.50 118Q549 81 521 54.50Q493 28 456 14Q419 0 378 0L73 0L73 696L351 696Q404 696 445 682Q486 668 513.50 643Q541 618 555 583Q569 548 569 506Q569 486 564.50 466Q560 446 549 427.50Q538 409 519.50 392Q501 375 473 363L473 359Q500 351 520.50 334Q541 317 554.50 295Q568 273 575 248.50Q582 224 582 200M443 499Q443 537 417 562.50Q391 588 335 588L194 588L194 407L335 407Q391 407 417 434Q443 461 443 499M459 207Q459 226 452.50 243.50Q446 261 432.50 274.50Q419 288 398 296.50Q377 305 349 305L194 305L194 110L349 110Q377 110 398 118Q419 126 432.50 139.50Q446 153 452.50 170.50Q459 188 459 207Z"  horiz-adv-x="618" vert-adv-y="1000"  />

      
      <glyph glyph-name="uni0395" unicode="&#x0395;" d="M73 0L73 696L539 696L539 586L194 586L194 404L488 404L488 298L194 298L194 110L539 110L539 0L73 0Z"  horiz-adv-x="564" vert-adv-y="1000"  />

      
      <glyph glyph-name="uni0396" unicode="&#x0396;" d="M30 0L30 104L353 589L43 589L43 696L497 696L497 597L174 111L497 111L497 0L30 0Z"  horiz-adv-x="527" vert-adv-y="1000"  />

      
      <glyph glyph-name="uni0397" unicode="&#x0397;" d="M462 0L462 298L194 298L194 0L73 0L73 696L194 696L194 404L462 404L462 696L582 696L582 0L462 0Z"  horiz-adv-x="655" vert-adv-y="1000"  />

      
      <glyph glyph-name="uni0399" unicode="&#x0399;" d="M74 0L74 696L196 696L196 0L74 0Z"  horiz-adv-x="268" vert-adv-y="1000"  />

      
      <glyph glyph-name="uni039A" unicode="&#x039A;" d="M502 0L307 324L194 193L194 0L73 0L73 696L195 696L195 359L197 358L314 501L478 696L622 696L387 418L645 0L502 0Z"  horiz-adv-x="638" vert-adv-y="1000"  />

      
      <glyph glyph-name="uni039C" unicode="&#x039C;" d="M581 0L581 413L578 413L541 324L490 212L436 98L339 98L299 183L233 329L197 414L194 411L194 0L73 0L73 696L186 696L277 497Q306 434 332.50 372Q359 310 386 247L390 247L446 380L497 497L586 696L702 696L702 0L581 0Z"  horiz-adv-x="765" vert-adv-y="1000"  />

      
      <glyph glyph-name="uni03A6" unicode="&#x03A6;" d="M717 354Q717 293 698.50 240.50Q680 188 644.50 148.50Q609 109 556.50 85.50Q504 62 436 60L436 0L320 0L320 60Q251 65 199 88.50Q147 112 112 150.50Q77 189 59.50 240.50Q42 292 42 354Q42 415 59.50 469Q77 523 112 563.50Q147 604 199 628.50Q251 653 320 656L320 696L436 696L436 656Q510 651 563.50 627.50Q617 604 651 564Q685 524 701 470.50Q717 417 717 354M436 157Q482 159 513.50 175Q545 191 564 217.50Q583 244 591.50 279Q600 314 600 355Q600 393 592 429Q584 465 564.50 493.50Q545 522 513.50 539.50Q482 557 436 559L436 157M320 559Q277 555 246.50 538Q216 521 196.50 493.50Q177 466 168 430.50Q159 395 159 355Q159 272 198 218.50Q237 165 320 157L320 559Z"  horiz-adv-x="758" vert-adv-y="1000"  />

      
      <glyph glyph-name="uni03AB" unicode="&#x03AB;" d="M553 696Q499 593 445 491Q391 389 336 286L336 0L221 0L221 286Q166 389 112.50 491Q59 593 4 696L133 696L217 524Q233 491 248 457.50Q263 424 278 390L280 390L342 527L425 696L553 696M118 757L118 868L239 868L239 757L118 757M316 757L316 868L436 868L436 757L316 757Z"  horiz-adv-x="557" vert-adv-y="1000"  />

      
      <glyph glyph-name="uni03A8" unicode="&#x03A8;" d="M689 384Q689 331 669.50 288Q650 245 616 213.50Q582 182 535.50 163.50Q489 145 435 141L435 0L314 0L314 141Q259 144 212.50 163Q166 182 132 214.50Q98 247 78.50 292Q59 337 59 393L59 696L178 696L178 401Q178 336 216.50 296.50Q255 257 314 252L314 696L435 696L435 252Q493 256 532 291.50Q571 327 571 391L571 696L689 696L689 384L689 384Z"  horiz-adv-x="750" vert-adv-y="1000"  />

      
      <glyph glyph-name="uni03A9" unicode="&#x03A9;" d="M345 120Q373 127 390.50 144Q408 161 418.50 184.50Q429 208 433 234.50Q437 261 437 287L437 443Q437 473 428 499.50Q419 526 401.50 546Q384 566 358 577.50Q332 589 299 589Q263 589 237 576.50Q211 564 194.50 543.50Q178 523 170 496.50Q162 470 162 443L162 287Q162 261 165.50 235Q169 209 179.50 186Q190 163 208.50 145.50Q227 128 256 119L256 0L26 0L26 109L100 109Q100 110 100.50 110.50Q101 111 101 112Q83 125 71.50 144.50Q60 164 53.50 186.50Q47 209 44 234Q41 259 41 283L41 437Q41 489 57 537Q73 585 105 621.50Q137 658 185.50 679.50Q234 701 299 701Q359 701 407 681Q455 661 489 626Q523 591 541 542.50Q559 494 559 437L559 283Q559 230 546 186Q533 142 498 110Q498 110 499 109L575 109L575 0L345 0L345 120L345 120Z"  horiz-adv-x="604" vert-adv-y="1000"  />

      
      <glyph glyph-name="uni03AC" unicode="&#x03AC;" d="M45 240Q45 285 52 331Q59 377 79.50 414.50Q100 452 137 475.50Q174 499 234 499Q266 499 294 488.50Q322 478 345 450L347 451L347 495L460 495L460 0L347 0L347 47L345 48Q320 21 289.50 7.50Q259-6 229-6Q171-6 135 16Q99 38 79 73Q59 108 52 152Q45 196 45 240M161 246Q161 221 163.50 195.50Q166 170 175.50 149Q185 128 204 114.50Q223 101 255 101Q286 101 304 115.50Q322 130 331.50 151.50Q341 173 344 198.50Q347 224 347 246Q347 269 344.50 295Q342 321 332.50 343Q323 365 304.50 379.50Q286 394 255 394Q222 394 203.50 380Q185 366 175.50 344Q166 322 163.50 296Q161 270 161 246M192 569L271 759L378 725L260 544L192 569Z"  horiz-adv-x="519" vert-adv-y="1000"  />

      
      <glyph glyph-name="uni039D" unicode="&#x039D;" d="M509 0L294 324L197 483L194 482L194 0L73 0L73 696L185 696L380 400L498 212L500 214L500 696L621 696L621 0L509 0Z"  horiz-adv-x="692" vert-adv-y="1000"  />

      
      <glyph glyph-name="uni039F" unicode="&#x039F;" d="M304 701Q364 701 412 681Q460 661 494 626Q528 591 546 542.50Q564 494 564 437L564 259Q564 198 545.50 149Q527 100 493 65.50Q459 31 411 12.50Q363-6 304-6Q239-6 190 15.50Q141 37 109 73.50Q77 110 61 158Q45 206 45 259L45 437Q45 489 61 537Q77 585 109 621.50Q141 658 190 679.50Q239 701 304 701M304 587Q269 587 243.50 575Q218 563 201 542.50Q184 522 175.50 496Q167 470 167 443L167 256Q167 227 175.50 200.50Q184 174 201 153Q218 132 243.50 119.50Q269 107 304 107Q336 107 361.50 118.50Q387 130 404.50 150Q422 170 431.50 197Q441 224 441 256L441 443Q441 473 431.50 499Q422 525 404.50 544.50Q387 564 361.50 575.50Q336 587 304 587Z"  horiz-adv-x="610" vert-adv-y="1000"  />

      
      <glyph glyph-name="uni03A1" unicode="&#x03A1;" d="M581 478Q581 436 564.50 398Q548 360 518 331Q488 302 446 284.50Q404 267 353 267L194 267L194 0L73 0L73 696L344 696Q393 696 436 682Q479 668 511.50 641Q544 614 562.50 573Q581 532 581 478M457 481Q457 535 425 560.50Q393 586 341 586L194 586L194 377L345 377Q398 377 427.50 408Q457 439 457 481Z"  horiz-adv-x="591" vert-adv-y="1000"  />

      
      <glyph glyph-name="uni03A4" unicode="&#x03A4;" d="M319 588L319 0L198 0L198 588L5 588L5 696L513 696L513 588L319 588Z"  horiz-adv-x="521" vert-adv-y="1000"  />

      
      <glyph glyph-name="uniab" unicode="&#xab;" d="M382 28L245 228L382 428L491 428L358 228L491 28L382 28M182 28L45 228L182 428L291 428L157 228L291 28L182 28Z"  horiz-adv-x="525" vert-adv-y="1000"  />

      
      <glyph glyph-name="unibb" unicode="&#xbb;" d="M46 28L178 228L46 428L155 428L291 228L155 28L46 28M246 28L379 228L246 428L355 428L491 228L355 28L246 28Z"  horiz-adv-x="525" vert-adv-y="1000"  />

      
      <glyph glyph-name="uni2026" unicode="&#x2026;" d="M84 0L84 138L220 138L220 0L84 0M392 0L392 138L528 138L528 0L392 0M693 0L693 138L829 138L829 0L693 0Z"  horiz-adv-x="919" vert-adv-y="1000"  />

      
      <glyph glyph-name="uni03A5" unicode="&#x03A5;" d="M553 696Q499 593 445 491Q391 389 336 286L336 0L221 0L221 286Q166 389 112.50 491Q59 593 4 696L133 696L217 524Q233 491 248 457.50Q263 424 278 390L280 390L342 527L425 696L553 696L553 696Z"  horiz-adv-x="557" vert-adv-y="1000"  />

      
      <glyph glyph-name="uni03A7" unicode="&#x03A7;" d="M439 0L287 257L136 0L0 0L225 356L13 696L150 696L287 456L425 696L561 696L350 356L575 0L439 0Z"  horiz-adv-x="576" vert-adv-y="1000"  />

      
      <glyph glyph-name="uni0386" unicode="&#x0386;" d="M498 0L443 154L185 154L129 0L2 0L265 696L363 696L626 0L498 0M361 398L315 541L312 541L267 401L220 257L407 257L361 398M-53 544L26 734L133 700L15 519L-53 544Z"  horiz-adv-x="629" vert-adv-y="1000"  />

      
      <glyph glyph-name="uni0388" unicode="&#x0388;" d="M73 0L73 696L539 696L539 586L194 586L194 404L488 404L488 298L194 298L194 110L539 110L539 0L73 0M-157 544L-78 734L29 700L-89 519L-157 544Z"  horiz-adv-x="564" vert-adv-y="1000"  />

      
      <glyph glyph-name="uni0153" unicode="&#x0153;" d="M258 500Q307 500 349 481.50Q391 463 416 424L416 423Q445 467 487.50 483.50Q530 500 572 500Q622 500 662 483Q702 466 730 435.50Q758 405 773 361.50Q788 318 788 264L788 215L472 215Q474 157 502.50 126.50Q531 96 582 96Q604 96 635.50 106.50Q667 117 694 142L764 64Q723 26 675 10Q627-6 581-6Q534-6 489 11.50Q444 29 413 73Q386 32 342 13Q298-6 250-6Q194-6 150 13Q106 32 80 71Q58 103 48.50 145Q39 187 39 239Q39 282 44 319Q49 356 63 386Q88 441 139 470.50Q190 500 258 500M255 399Q225 399 202 384Q179 369 167 343Q158 323 155 298.50Q152 274 152 245Q152 216 155 192.50Q158 169 167 150Q179 124 200.50 110Q222 96 253 96Q285 96 310.50 113.50Q336 131 347 167Q352 181 353.50 201Q355 221 355 247Q355 309 341 342Q329 371 306 385Q283 399 255 399M669 295Q666 346 639 372.50Q612 399 573 399Q534 399 506.50 372Q479 345 475 295L669 295Z"  horiz-adv-x="835" vert-adv-y="1000"  />

      
      <glyph glyph-name="uni2013" unicode="&#x2013;" d="M20 224L20 325L493 325L493 224L20 224Z"  horiz-adv-x="513" vert-adv-y="1000"  />

      
      <glyph glyph-name="uni2015" unicode="&#x2015;" d="M20 224L20 325L1005 325L1005 224L20 224Z"  horiz-adv-x="1025" vert-adv-y="1000"  />

      
      <glyph glyph-name="uni201C" unicode="&#x201C;" d="M168 731L133 599L165 599L165 461L29 461L29 594L106 731L168 731M343 731L308 599L340 599L340 461L204 461L204 594L281 731L343 731Z"  horiz-adv-x="375" vert-adv-y="1000"  />

      
      <glyph glyph-name="uni201D" unicode="&#x201D;" d="M209 461L244 592L212 592L212 731L348 731L348 597L271 461L209 461M34 461L69 592L37 592L37 731L173 731L173 597L96 461L34 461Z"  horiz-adv-x="375" vert-adv-y="1000"  />

      
      <glyph glyph-name="uni2018" unicode="&#x2018;" d="M193 731L158 599L190 599L190 461L54 461L54 594L131 731L193 731Z"  horiz-adv-x="252" vert-adv-y="1000"  />

      
      <glyph glyph-name="uni2019" unicode="&#x2019;" d="M54 461L89 592L57 592L57 731L193 731L193 597L116 461L54 461Z"  horiz-adv-x="252" vert-adv-y="1000"  />

      
      <glyph glyph-name="unif7" unicode="&#xf7;" d="M338 489Q338 460 316.50 439.50Q295 419 265 419Q234 419 212.50 439.50Q191 460 191 489Q191 518 212.50 539Q234 560 265 560Q295 560 316.50 539Q338 518 338 489M23 251L23 341L506 341L506 251L23 251M338 98Q338 69 316.50 48.50Q295 28 265 28Q234 28 212.50 48.50Q191 69 191 98Q191 127 212.50 147.50Q234 168 265 168Q295 168 316.50 147.50Q338 127 338 98Z"  horiz-adv-x="525" vert-adv-y="1000"  />

      
      <glyph glyph-name="uni0389" unicode="&#x0389;" d="M462 0L462 298L194 298L194 0L73 0L73 696L194 696L194 404L462 404L462 696L582 696L582 0L462 0M-150 544L-71 734L36 700L-82 519L-150 544Z"  horiz-adv-x="655" vert-adv-y="1000"  />

      
      <glyph glyph-name="uni038A" unicode="&#x038A;" d="M74 0L74 696L196 696L196 0L74 0M-152 544L-73 734L34 700L-84 519L-152 544Z"  horiz-adv-x="268" vert-adv-y="1000"  />

      
      <glyph glyph-name="uni038C" unicode="&#x038C;" d="M304 701Q364 701 412 681Q460 661 494 626Q528 591 546 542.50Q564 494 564 437L564 259Q564 198 545.50 149Q527 100 493 65.50Q459 31 411 12.50Q363-6 304-6Q239-6 190 15.50Q141 37 109 73.50Q77 110 61 158Q45 206 45 259L45 437Q45 489 61 537Q77 585 109 621.50Q141 658 190 679.50Q239 701 304 701M304 587Q269 587 243.50 575Q218 563 201 542.50Q184 522 175.50 496Q167 470 167 443L167 256Q167 227 175.50 200.50Q184 174 201 153Q218 132 243.50 119.50Q269 107 304 107Q336 107 361.50 118.50Q387 130 404.50 150Q422 170 431.50 197Q441 224 441 256L441 443Q441 473 431.50 499Q422 525 404.50 544.50Q387 564 361.50 575.50Q336 587 304 587M-134 544L-55 734L52 700L-66 519L-134 544Z"  horiz-adv-x="610" vert-adv-y="1000"  />

      
      <glyph glyph-name="uni038E" unicode="&#x038E;" d="M553 696Q499 593 445 491Q391 389 336 286L336 0L221 0L221 286Q166 389 112.50 491Q59 593 4 696L133 696L217 524Q233 491 248 457.50Q263 424 278 390L280 390L342 527L425 696L553 696M-207 544L-128 734L-21 700L-139 519L-207 544Z"  horiz-adv-x="557" vert-adv-y="1000"  />

      
      <glyph glyph-name="uni03AD" unicode="&#x03AD;" d="M441 69Q400 31 348.50 13Q297-5 243-5Q199-5 162.50 5Q126 15 100 34.50Q74 54 59.50 82Q45 110 45 146Q45 158 49 173.50Q53 189 61.50 204.50Q70 220 84 234Q98 248 118 256L118 258Q100 264 87 275Q74 286 66.50 299Q59 312 55.50 326Q52 340 52 353Q52 383 64.50 409.50Q77 436 101.50 456.50Q126 477 162 488.50Q198 500 245 500Q299 500 346.50 484.50Q394 469 432 431L363 351Q339 375 308.50 385Q278 395 250 395Q217 395 192 381Q167 367 167 342Q167 323 181 310Q195 297 235 297L307 297L307 209L233 209Q198 209 178.50 194Q159 179 159 155Q159 133 181.50 116Q204 99 252 99Q280 99 312.50 110Q345 121 368 147L441 69M186 569L265 759L372 725L254 544L186 569Z"  horiz-adv-x="458" vert-adv-y="1000"  />

      
      <glyph glyph-name="uni03AE" unicode="&#x03AE;" d="M362 0L362 294Q362 342 340.50 368Q319 394 271 394Q230 394 202.50 368Q175 342 175 294L175 0L62 0L62 496L175 496L175 444L178 444Q202 471 237.50 485.50Q273 500 307 500Q383 500 428.50 456.50Q474 413 474 325L474 0L362 0M188 569L267 759L374 725L256 544L188 569Z"  horiz-adv-x="538" vert-adv-y="1000"  />

      
      <glyph glyph-name="uni03AF" unicode="&#x03AF;" d="M227-4Q218-5 209-5Q200-5 192-5Q150-5 125 6Q100 17 86.50 35Q73 53 69 77Q65 101 65 128L65 495L177 495L177 135Q177 109 186 99Q195 89 229 89L227-4M70 569L149 759L256 725L138 544L70 569Z"  horiz-adv-x="263" vert-adv-y="1000"  />

      
      <glyph glyph-name="uni03CC" unicode="&#x03CC;" d="M264 501Q320 501 364.50 479.50Q409 458 436 418Q455 389 464 347.50Q473 306 472 255Q472 198 463.50 157.50Q455 117 438 87Q409 40 360 16.50Q311-7 252-7Q196-7 152 12Q108 31 81 71Q40 132 42 247Q42 287 47.50 323Q53 359 67 387Q93 442 144.50 471.50Q196 501 264 501M260 399Q231 399 208 384Q185 369 173 343Q164 323 160.50 299Q157 275 156 246Q156 217 159 193Q162 169 171 151Q182 125 204 110.50Q226 96 255 96Q287 96 312 113.50Q337 131 348 167Q353 181 355 202Q357 223 357 255Q357 313 344 342Q333 371 310.50 385Q288 399 260 399M196 569L275 759L382 725L264 544L196 569Z"  horiz-adv-x="515" vert-adv-y="1000"  />

      
      <glyph glyph-name="uni038F" unicode="&#x038F;" d="M345 120Q373 127 390.50 144Q408 161 418.50 184.50Q429 208 433 234.50Q437 261 437 287L437 443Q437 473 428 499.50Q419 526 401.50 546Q384 566 358 577.50Q332 589 299 589Q263 589 237 576.50Q211 564 194.50 543.50Q178 523 170 496.50Q162 470 162 443L162 287Q162 261 165.50 235Q169 209 179.50 186Q190 163 208.50 145.50Q227 128 256 119L256 0L26 0L26 109L100 109Q100 110 100.50 110.50Q101 111 101 112Q83 125 71.50 144.50Q60 164 53.50 186.50Q47 209 44 234Q41 259 41 283L41 437Q41 489 57 537Q73 585 105 621.50Q137 658 185.50 679.50Q234 701 299 701Q359 701 407 681Q455 661 489 626Q523 591 541 542.50Q559 494 559 437L559 283Q559 230 546 186Q533 142 498 110Q498 110 499 109L575 109L575 0L345 0L345 120M-132 544L-53 734L54 700L-64 519L-132 544Z"  horiz-adv-x="604" vert-adv-y="1000"  />

      
      <glyph glyph-name="uni03CD" unicode="&#x03CD;" d="M477 178Q477 137 461.50 103Q446 69 418.50 45Q391 21 353 8Q315-5 270-5Q226-5 188 8.50Q150 22 122.50 46Q95 70 79.50 103.50Q64 137 64 178L64 495L177 495L177 201Q177 153 203.50 127Q230 101 271 101Q311 101 337.50 127Q364 153 364 201L364 495L477 495L477 178M208 569L287 759L394 725L276 544L208 569Z"  horiz-adv-x="540" vert-adv-y="1000"  />

      
      <glyph glyph-name="uni03B1" unicode="&#x03B1;" d="M45 240Q45 285 52 331Q59 377 79.50 414.50Q100 452 137 475.50Q174 499 234 499Q266 499 294 488.50Q322 478 345 450L347 451L347 495L460 495L460 0L347 0L347 47L345 48Q320 21 289.50 7.50Q259-6 229-6Q171-6 135 16Q99 38 79 73Q59 108 52 152Q45 196 45 240M161 246Q161 221 163.50 195.50Q166 170 175.50 149Q185 128 204 114.50Q223 101 255 101Q286 101 304 115.50Q322 130 331.50 151.50Q341 173 344 198.50Q347 224 347 246Q347 269 344.50 295Q342 321 332.50 343Q323 365 304.50 379.50Q286 394 255 394Q222 394 203.50 380Q185 366 175.50 344Q166 322 163.50 296Q161 270 161 246Z"  horiz-adv-x="519" vert-adv-y="1000"  />

      
      <glyph glyph-name="uni03B2" unicode="&#x03B2;" d="M484 230Q484 183 474.50 140.50Q465 98 443 65.50Q421 33 385.50 14Q350-5 297-5Q265-5 232.50 6.50Q200 18 175 46L173 46L173-152L61-152L61 488Q61 541 71.50 585Q82 629 105.50 660Q129 691 166.50 708Q204 725 257 725Q310 725 347 708.50Q384 692 407 666.50Q430 641 440.50 610.50Q451 580 451 553Q451 536 447.50 516.50Q444 497 436 478Q428 459 414.50 443Q401 427 381 416L381 415Q417 406 437.50 385Q458 364 468.50 337.50Q479 311 481.50 282.50Q484 254 484 230M365 248Q365 267 361 287Q357 307 347 323Q337 339 320.50 349.50Q304 360 277 360L219 360L219 451L265 451Q286 451 300 459.50Q314 468 323 481.50Q332 495 335.50 510.50Q339 526 339 540Q339 556 334 572.50Q329 589 319 601.50Q309 614 293.50 622Q278 630 257 630Q233 630 216.50 621Q200 612 190.50 597.50Q181 583 177 565Q173 547 173 529L173 242Q173 218 175.50 192Q178 166 188 144.50Q198 123 217 109Q236 95 268 95Q299 95 318 109Q337 123 347.50 145Q358 167 361.50 194Q365 221 365 248Z"  horiz-adv-x="530" vert-adv-y="1000"  />

      
      <glyph glyph-name="uni03C8" unicode="&#x03C8;" d="M609 193Q609 144 589.50 108Q570 72 539 47.50Q508 23 469 10Q430-3 390-5L390-201L278-201L278-4Q237-2 198.50 11Q160 24 129.50 48.50Q99 73 80.50 108.50Q62 144 62 191L62 495L175 495L175 211Q175 183 183.50 162.50Q192 142 206.50 128.50Q221 115 239.50 107.50Q258 100 278 99L278 515L390 515L390 99Q411 100 430 107Q449 114 463.50 127.50Q478 141 487 161.50Q496 182 496 211L496 495L609 495L609 193L609 193Z"  horiz-adv-x="669" vert-adv-y="1000"  />

      
      <glyph glyph-name="uni03B4" unicode="&#x03B4;" d="M264 726Q309 726 349.50 717.50Q390 709 436 684L392 592Q356 612 327.50 619Q299 626 272 626Q236 626 220.50 613Q205 600 205 582Q205 559 229 540.50Q253 522 290 504Q329 483 366.50 459.50Q404 436 427 402Q449 369 456.50 328.50Q464 288 464 240Q464 190 455 154Q446 118 429 89Q400 40 351.50 17Q303-6 246-6Q190-6 146.50 12.50Q103 31 77 70Q55 101 46 140Q37 179 37 230Q37 272 42 306Q47 340 62 369Q74 396 98 421.50Q122 447 154 460Q121 480 103.50 511.50Q86 543 86 575Q86 611 99.50 639Q113 667 137 686.50Q161 706 193.50 716Q226 726 264 726M251 405Q218 400 196 381.50Q174 363 164 338Q155 317 152.50 291.50Q150 266 149 241Q149 212 152.50 189Q156 166 164 148Q176 122 195.50 109Q215 96 249 96Q282 96 306.50 113.50Q331 131 342 167Q347 183 348.50 202.50Q350 222 350 253Q350 280 346.50 300Q343 320 337 334Q314 390 251 405Z"  horiz-adv-x="504" vert-adv-y="1000"  />

      
      <glyph glyph-name="uni03B5" unicode="&#x03B5;" d="M441 69Q400 31 348.50 13Q297-5 243-5Q199-5 162.50 5Q126 15 100 34.50Q74 54 59.50 82Q45 110 45 146Q45 158 49 173.50Q53 189 61.50 204.50Q70 220 84 234Q98 248 118 256L118 258Q100 264 87 275Q74 286 66.50 299Q59 312 55.50 326Q52 340 52 353Q52 383 64.50 409.50Q77 436 101.50 456.50Q126 477 162 488.50Q198 500 245 500Q299 500 346.50 484.50Q394 469 432 431L363 351Q339 375 308.50 385Q278 395 250 395Q217 395 192 381Q167 367 167 342Q167 323 181 310Q195 297 235 297L307 297L307 209L233 209Q198 209 178.50 194Q159 179 159 155Q159 133 181.50 116Q204 99 252 99Q280 99 312.50 110Q345 121 368 147L441 69L441 69Z"  horiz-adv-x="458" vert-adv-y="1000"  />

      
      <glyph glyph-name="uni03C6" unicode="&#x03C6;" d="M264-5Q205-3 157.50 15Q110 33 81 74Q58 105 49 146Q40 187 40 247Q40 277 42.50 306Q45 335 53.50 361.50Q62 388 77 411.50Q92 435 117 455Q131 466 145.50 474.50Q160 483 180 489L217 390Q179 375 165 341Q157 324 155 302Q153 280 153 246Q153 223 155.50 202.50Q158 182 164 164Q175 133 201 114Q227 95 264 95L264 500L379 500Q402 500 428 496Q454 492 479.50 482Q505 472 528 455Q551 438 567 412Q589 377 595.50 336.50Q602 296 602 247Q602 190 593.50 151Q585 112 565 83Q537 42 489 20.50Q441-1 377-5L377-199L264-199L264-5M377 96Q414 96 442 114.50Q470 133 481 168Q486 185 487.50 205.50Q489 226 489 248Q489 285 485.50 308.50Q482 332 476 346Q462 375 434 386.50Q406 398 377 398L377 96Z"  horiz-adv-x="643" vert-adv-y="1000"  />

      
      <glyph glyph-name="uni03B3" unicode="&#x03B3;" d="M477 495Q430 375 386 259Q342 143 300 18L300-200L188-200L188-4Q161 90 131.50 178Q102 266 69 351Q63 367 58.50 376.50Q54 386 48.50 391.50Q43 397 36 398.50Q29 400 18 400L11 400L3 492Q41 503 68 503Q90 503 105.50 496.50Q121 490 132.50 477Q144 464 153 445.50Q162 427 171 402Q189 351 207.50 295.50Q226 240 243 184L248 184Q275 268 300 344Q325 420 354 495L477 495Z"  horiz-adv-x="481" vert-adv-y="1000"  />

      
      <glyph glyph-name="uni03B7" unicode="&#x03B7;" d="M362 0L362 294Q362 342 340.50 368Q319 394 271 394Q230 394 202.50 368Q175 342 175 294L175 0L62 0L62 496L175 496L175 444L178 444Q202 471 237.50 485.50Q273 500 307 500Q383 500 428.50 456.50Q474 413 474 325L474 0L362 0Z"  horiz-adv-x="538" vert-adv-y="1000"  />

      
      <glyph glyph-name="uni03B9" unicode="&#x03B9;" d="M227-4Q218-5 209-5Q200-5 192-5Q150-5 125 6Q100 17 86.50 35Q73 53 69 77Q65 101 65 128L65 495L177 495L177 135Q177 109 186 99Q195 89 229 89L227-4Z"  horiz-adv-x="263" vert-adv-y="1000"  />

      
      <glyph glyph-name="uni03BE" unicode="&#x03BE;" d="M402 586Q367 609 336 617Q305 625 276 625Q249 625 228.50 616.50Q208 608 195 594.50Q182 581 175.50 564Q169 547 169 530Q169 508 178.50 490Q188 472 204 459Q220 446 242 439Q264 432 290 432L382 432L382 339L264 339Q238 339 217 329Q196 319 181 302Q166 285 158 263.50Q150 242 150 218Q150 172 177.50 148Q205 124 246 109Q303 88 340 74Q377 60 398.50 46Q420 32 428.50 15Q437-2 437-28Q437-46 429-67.50Q421-89 408.50-111.50Q396-134 380-156.50Q364-179 348-199Q328-187 307.50-175.50Q287-164 267-153Q270-147 277.50-134.50Q285-122 293.50-108Q302-94 308-81Q314-68 314-60Q314-35 269-19Q230-5 187.50 9.50Q145 24 109.50 48Q74 72 51.50 110.50Q29 149 29 211Q29 229 34.50 253Q40 277 53 301.50Q66 326 88 349Q110 372 142 388Q115 399 97.50 417Q80 435 69.50 455Q59 475 55 495.50Q51 516 51 531Q51 574 68 610.50Q85 647 114.50 672.50Q144 698 184 712.50Q224 727 269 727Q311 727 359.50 717Q408 707 455 674Q441 652 428 630.50Q415 609 402 586Z"  horiz-adv-x="426" vert-adv-y="1000"  />

      
      <glyph glyph-name="uni03BA" unicode="&#x03BA;" d="M389 0Q352 56 317.50 111Q283 166 246 222Q229 203 211 184.50Q193 166 176 146L176 0L64 0L64 495L176 495L176 291L179 291L275 399L362 495L499 495L320 302Q371 226 421.50 150.50Q472 75 523 0L389 0Z"  horiz-adv-x="520" vert-adv-y="1000"  />

      
      <glyph glyph-name="uni03BB" unicode="&#x03BB;" d="M483-1Q467-5 452.50-6Q438-7 428-7Q389-7 367 8.50Q345 24 334 53Q329 63 325.50 73.50Q322 84 319 95Q309 127 299 160Q289 193 278 225Q270 253 261.50 280.50Q253 308 244 336L240 336L197 208Q180 157 162 104.50Q144 52 124 0L6 0L189 487L162 578Q154 606 141 618.50Q128 631 95 631Q90 631 84.50 631Q79 631 73 630L67 723Q103 732 131 732Q182 732 210.50 709Q239 686 256 643Q261 632 264 621.50Q267 611 271 600Q311 480 349 361Q387 242 427 122Q435 99 444.50 91Q454 83 480 83L483-1Z"  horiz-adv-x="479" vert-adv-y="1000"  />

      
      <glyph glyph-name="unib5" unicode="&#xb5;" d="M363 0L363 45Q362 46 360 46Q337 20 306 7.50Q275-5 241-5Q207-5 178 11L177 10L177-200L64-200L64 495L177 495L177 200Q177 157 199.50 129Q222 101 270 101Q310 101 336.50 126.50Q363 152 363 200L363 495L476 495L476 0L363 0Z"  horiz-adv-x="537" vert-adv-y="1000"  />

      
      <glyph glyph-name="uni03BC" unicode="&#x03BC;" d="M363 0L363 45Q362 46 360 46Q337 20 306 7.50Q275-5 241-5Q207-5 178 11L177 10L177-200L64-200L64 495L177 495L177 200Q177 157 199.50 129Q222 101 270 101Q310 101 336.50 126.50Q363 152 363 200L363 495L476 495L476 0L363 0Z"  horiz-adv-x="537" vert-adv-y="1000"  />

      
      <glyph glyph-name="uni03BD" unicode="&#x03BD;" d="M284 0L194 0L4 495L125 495L183 326L238 157L240 157L294 325L352 495L473 495L284 0Z"  horiz-adv-x="477" vert-adv-y="1000"  />

      
      <glyph glyph-name="uni03BF" unicode="&#x03BF;" d="M264 501Q320 501 364.50 479.50Q409 458 436 418Q455 389 464 347.50Q473 306 472 255Q472 198 463.50 157.50Q455 117 438 87Q409 40 360 16.50Q311-7 252-7Q196-7 152 12Q108 31 81 71Q40 132 42 247Q42 287 47.50 323Q53 359 67 387Q93 442 144.50 471.50Q196 501 264 501M260 399Q231 399 208 384Q185 369 173 343Q164 323 160.50 299Q157 275 156 246Q156 217 159 193Q162 169 171 151Q182 125 204 110.50Q226 96 255 96Q287 96 312 113.50Q337 131 348 167Q353 181 355 202Q357 223 357 255Q357 313 344 342Q333 371 310.50 385Q288 399 260 399Z"  horiz-adv-x="515" vert-adv-y="1000"  />

      
      <glyph glyph-name="uni03C0" unicode="&#x03C0;" d="M360 0L360 398L173 398L173 0L60 0L60 495L473 495L473 0L360 0Z"  horiz-adv-x="536" vert-adv-y="1000"  />

      
      <glyph glyph-name="uni03CE" unicode="&#x03CE;" d="M528 500Q583 497 619.50 476.50Q656 456 678 422Q700 388 708.50 343Q717 298 717 248Q717 192 706.50 145.50Q696 99 672.50 66Q649 33 612 14.50Q575-4 521-4Q429-4 382 70L380 70Q355 35 322 15Q289-5 244-5Q188-5 149.50 13Q111 31 87 64Q63 97 52.50 143.50Q42 190 42 247Q42 298 51.50 342.50Q61 387 83.50 420.50Q106 454 142.50 475Q179 496 232 500L247 394Q195 387 175 348.50Q155 310 155 244Q155 216 161.50 191Q168 166 180.50 147Q193 128 212 116.50Q231 105 256 105Q287 105 304.50 132Q322 159 322 198L322 355L432 355L432 198Q432 156 455 127.50Q478 99 519 99Q544 99 560.50 111.50Q577 124 586.50 145Q596 166 599.50 192Q603 218 603 245Q603 310 584 349.50Q565 389 513 394L528 500M318 569L397 759L504 725L386 544L318 569Z"  horiz-adv-x="755" vert-adv-y="1000"  />

      
      <glyph glyph-name="uni03C1" unicode="&#x03C1;" d="M277-5Q244-5 217.50 5.50Q191 16 169 39L166 37L166-200L53-200L53 247Q54 287 59.50 325.50Q65 364 75 386Q101 441 151.50 471Q202 501 269 501Q325 501 369.50 479Q414 457 441 417Q462 385 470.50 342Q479 299 479 245Q479 148 443 88Q414 39 370.50 17Q327-5 277-5M266 399Q237 399 215.50 384Q194 369 181 343Q172 323 169 299Q166 275 165 246Q165 217 168 193Q171 169 179 151Q191 125 211.50 110.50Q232 96 261 96Q293 96 318 113.50Q343 131 354 167Q363 195 363 247Q364 308 350 342Q339 371 316 385Q293 399 266 399Z"  horiz-adv-x="521" vert-adv-y="1000"  />

      
      <glyph glyph-name="uni03C3" unicode="&#x03C3;" d="M410 404Q424 389 435 373.50Q446 358 453 339.50Q460 321 463.50 298Q467 275 467 244Q467 211 461 174.50Q455 138 444 112Q418 52 366.50 23Q315-6 249-6Q193-6 151.50 12.50Q110 31 84 68Q61 101 50 145.50Q39 190 39 246Q40 279 44.50 308.50Q49 338 59 363Q82 426 132.50 460.50Q183 495 257 495L498 495L498 404L410 404M254 393Q228 393 208.50 381Q189 369 176 347Q155 311 153 246Q153 177 177 137Q201 97 252 97Q286 97 309.50 116Q333 135 343 172Q347 186 349.50 204Q352 222 352 245Q352 281 346.50 306.50Q341 332 330 349Q304 393 254 393Z"  horiz-adv-x="520" vert-adv-y="1000"  />

      
      <glyph glyph-name="uni03C4" unicode="&#x03C4;" d="M235 404L235 156Q235 130 245 115.50Q255 101 281 101L322 101L322 0L250 0Q194 0 158 32.50Q122 65 122 125L122 404L15 404L15 495L354 495L354 404L235 404Z"  horiz-adv-x="372" vert-adv-y="1000"  />

      
      <glyph glyph-name="uni03B8" unicode="&#x03B8;" d="M267 729Q324 729 365.50 707Q407 685 432 644Q441 630 449 608.50Q457 587 463.50 555Q470 523 473.50 477.50Q477 432 477 369Q477 309 473.50 264Q470 219 464.50 185.50Q459 152 451 129Q443 106 434 90Q408 44 361 18.50Q314-7 256-7Q200-7 157 13Q114 33 88 73Q77 89 68.50 113Q60 137 54 172Q48 207 45.50 254Q43 301 43 363Q43 463 54 524.50Q65 586 79 614Q104 669 152 699Q200 729 267 729M350 165Q351 171 354.50 183.50Q358 196 361 215.50Q364 235 366 264Q368 293 367 332L152 332Q151 289 153 258.50Q155 228 158 206Q161 184 165.50 170.50Q170 157 173 148Q184 122 205 107Q226 92 259 92Q330 92 350 165M263 632Q234 632 212 617Q190 602 177 575Q173 567 169 556Q165 545 161.50 528Q158 511 155.50 485Q153 459 152 421L367 421Q367 459 364.50 485Q362 511 358.50 528Q355 545 351.50 555.50Q348 566 346 573Q337 602 314.50 617Q292 632 263 632Z"  horiz-adv-x="519" vert-adv-y="1000"  />

      
      <glyph glyph-name="uni03C9" unicode="&#x03C9;" d="M528 500Q583 497 619.50 476.50Q656 456 678 422Q700 388 708.50 343Q717 298 717 248Q717 192 706.50 145.50Q696 99 672.50 66Q649 33 612 14.50Q575-4 521-4Q429-4 382 70L380 70Q355 35 322 15Q289-5 244-5Q188-5 149.50 13Q111 31 87 64Q63 97 52.50 143.50Q42 190 42 247Q42 298 51.50 342.50Q61 387 83.50 420.50Q106 454 142.50 475Q179 496 232 500L247 394Q195 387 175 348.50Q155 310 155 244Q155 216 161.50 191Q168 166 180.50 147Q193 128 212 116.50Q231 105 256 105Q287 105 304.50 132Q322 159 322 198L322 355L432 355L432 198Q432 156 455 127.50Q478 99 519 99Q544 99 560.50 111.50Q577 124 586.50 145Q596 166 599.50 192Q603 218 603 245Q603 310 584 349.50Q565 389 513 394L528 500Z"  horiz-adv-x="755" vert-adv-y="1000"  />

      
      <glyph glyph-name="uni03C2" unicode="&#x03C2;" d="M395 350Q369 374 341.50 384Q314 394 291 394Q233 394 199 357Q165 320 165 245Q165 197 183 164.50Q201 132 250 112Q296 94 330.50 79Q365 64 388 48.50Q411 33 423 15Q435-3 435-27Q435-46 428-66.50Q421-87 409-107.50Q397-128 382-148.50Q367-169 351-188L270-143Q275-136 282.50-124.50Q290-113 296.50-100.50Q303-88 307.50-76.50Q312-65 312-58Q312-32 266-16Q208 4 167.50 25.50Q127 47 101 76Q75 105 63 144Q51 183 51 239Q51 306 70.50 355.50Q90 405 122 437.50Q154 470 195.50 485.50Q237 501 282 501Q329 501 376.50 485.50Q424 470 465 432Q447 412 430 391Q413 370 395 350Z"  horiz-adv-x="456" vert-adv-y="1000"  />

      
      <glyph glyph-name="uni03C7" unicode="&#x03C7;" d="M354 0L250 167L147 0L11 0L191 253L19 495L154 495L250 335L347 495L482 495L310 252L490 0L354 0Z"  horiz-adv-x="501" vert-adv-y="1000"  />

      
      <glyph glyph-name="uni03C5" unicode="&#x03C5;" d="M477 178Q477 137 461.50 103Q446 69 418.50 45Q391 21 353 8Q315-5 270-5Q226-5 188 8.50Q150 22 122.50 46Q95 70 79.50 103.50Q64 137 64 178L64 495L177 495L177 201Q177 153 203.50 127Q230 101 271 101Q311 101 337.50 127Q364 153 364 201L364 495L477 495L477 178L477 178Z"  horiz-adv-x="540" vert-adv-y="1000"  />

      
      <glyph glyph-name="uni03B6" unicode="&#x03B6;" d="M156 218Q156 193 164 175.50Q172 158 186 145Q200 132 220.50 121.50Q241 111 265 101Q314 83 347 69Q380 55 399.50 40.50Q419 26 427 9.50Q435-7 435-30Q435-50 426-72Q417-94 403.50-116Q390-138 374-159.50Q358-181 343-199L262-154Q266-148 274.50-135.50Q283-123 291.50-108.50Q300-94 306-80Q312-66 312-58Q312-45 300.50-36.50Q289-28 266-19Q220-2 178.50 16Q137 34 105.50 59.50Q74 85 55.50 121Q37 157 37 211Q37 255 58 307.50Q79 360 115.50 414Q152 468 201.50 519Q251 570 309 612L74 612L74 711L465 711L465 623Q400 575 344 522Q288 469 246 415.50Q204 362 180 311Q156 260 156 218Z"  horiz-adv-x="418" vert-adv-y="1000"  />

      
      <glyph glyph-name="uni03CA" unicode="&#x03CA;" d="M227-4Q218-5 209-5Q200-5 192-5Q150-5 125 6Q100 17 86.50 35Q73 53 69 77Q65 101 65 128L65 495L177 495L177 135Q177 109 186 99Q195 89 229 89L227-4M156 583L156 692L274 692L274 583L156 583M-44 583L-44 692L75 692L75 583L-44 583Z"  horiz-adv-x="263" vert-adv-y="1000"  />

      
      <glyph glyph-name="uni03CB" unicode="&#x03CB;" d="M477 178Q477 137 461.50 103Q446 69 418.50 45Q391 21 353 8Q315-5 270-5Q226-5 188 8.50Q150 22 122.50 46Q95 70 79.50 103.50Q64 137 64 178L64 495L177 495L177 201Q177 153 203.50 127Q230 101 271 101Q311 101 337.50 127Q364 153 364 201L364 495L477 495L477 178M307 583L307 692L425 692L425 583L307 583M107 583L107 692L226 692L226 583L107 583Z"  horiz-adv-x="540" vert-adv-y="1000"  />

      
      <glyph glyph-name="uni0390" unicode="&#x0390;" d="M227-4Q218-5 209-5Q200-5 192-5Q150-5 125 6Q100 17 86.50 35Q73 53 69 77Q65 101 65 128L65 495L177 495L177 135Q177 109 186 99Q195 89 229 89L227-4M227 579L227 689L345 689L345 579L227 579M-75 579L-75 689L42 689L42 579L-75 579M52 569L131 759L238 725L120 544L52 569Z"  horiz-adv-x="263" vert-adv-y="1000"  />

      
      <glyph glyph-name="uni03B0" unicode="&#x03B0;" d="M477 178Q477 137 461.50 103Q446 69 418.50 45Q391 21 353 8Q315-5 270-5Q226-5 188 8.50Q150 22 122.50 46Q95 70 79.50 103.50Q64 137 64 178L64 495L177 495L177 201Q177 153 203.50 127Q230 101 271 101Q311 101 337.50 127Q364 153 364 201L364 495L477 495L477 178M363 579L363 689L481 689L481 579L363 579M61 579L61 689L178 689L178 579L61 579M188 569L267 759L374 725L256 544L188 569Z"  horiz-adv-x="540" vert-adv-y="1000"  />

      
      <glyph glyph-name="uni20AC" unicode="&#x20AC;" d="M174 365L174 325L363 325L363 255L175 255Q176 225 183.50 197.50Q191 170 205.50 150Q220 130 242 118Q264 106 294 106Q335 106 363 128Q391 150 410 192L519 150Q487 78 432.50 36Q378-6 293-6Q191-6 129 52.50Q67 111 58 220Q57 229 56.50 237.50Q56 246 56 255L15 255L15 325L56 325L56 365L15 365L15 435L56 435Q56 444 56.50 452.50Q57 461 58 469Q62 519 81 561Q100 603 130.50 633.50Q161 664 202 681Q243 698 293 698Q374 698 430.50 658Q487 618 514 546L405 502Q390 540 360.50 562Q331 584 294 584Q262 584 240 571.50Q218 559 204.50 538Q191 517 184 490Q177 463 175 435L363 435L363 365L174 365Z"  horiz-adv-x="525" vert-adv-y="1000"  />

      
      <glyph glyph-name="uniac" unicode="&#xac;" d="M500 62L406 62L406 251L24 251L24 341L500 341L500 62Z"  horiz-adv-x="525" vert-adv-y="1000"  />

      
      <glyph glyph-name="unia6" unicode="&#xa6;" d="M68 294L68 723L163 723L163 294L68 294M163 232L163-195L68-195L68 232L163 232Z"  horiz-adv-x="232" vert-adv-y="1000"  />

      
      <glyph glyph-name="uni21" unicode="&#x21;" d="M180 184L88 184L78 696L190 696L180 184M75 0L75 113L194 113L194 0L75 0Z"  horiz-adv-x="268" vert-adv-y="1000"  />

      
      <glyph glyph-name="unie6" unicode="&#xe6;" d="M459 215Q460 194 464 177.50Q468 161 476 147Q506 97 573 97Q595 97 624 107Q653 117 680 142L750 64Q709 26 662.50 10.50Q616-5 570-5Q523-5 476 10Q429 25 395 66Q369 34 324 14.50Q279-5 216-5Q137-5 88.50 33.50Q40 72 40 144Q40 174 51 201Q62 228 83 248.50Q104 269 135.50 281Q167 293 208 293L342 293L342 329Q342 343 337 356.50Q332 370 320.50 380.50Q309 391 290 397Q271 403 242 403Q198 403 169.50 391.50Q141 380 122 360L64 433Q97 471 144.50 485.50Q192 500 243 500Q266 500 290.50 497.50Q315 495 338 489Q361 483 381 472Q401 461 416 443Q445 474 482.50 487Q520 500 557 500Q611 500 652 480.50Q693 461 720 427.50Q747 394 760.50 348Q774 302 774 249L774 215L459 215M147 152Q147 141 151.50 130Q156 119 166.50 110.50Q177 102 193.50 96.50Q210 91 235 91Q286 91 314 112.50Q342 134 342 185L342 208L227 208Q184 208 165.50 191.50Q147 175 147 152M657 295Q654 346 626.50 372Q599 398 560 398Q520 398 493 371.50Q466 345 461 295L657 295Z"  horiz-adv-x="816" vert-adv-y="1000"  />

      
      <glyph glyph-name="unif0" unicode="&#xf0;" d="M246 476Q262 476 280 471.50Q298 467 315 459Q332 451 346.50 439.50Q361 428 370 413L372 413Q373 413 374 414Q373 449 365 490Q357 531 337 556Q323 545 309.50 534.50Q296 524 282 513L249 557L300 597Q280 615 249.50 628.50Q219 642 168 650L185 739Q314 728 382 660L451 715L486 674L421 620Q463 561 473 482.50Q483 404 483 311Q483 238 467 174.50Q451 111 413 66Q384 32 341.50 12.50Q299-7 239-7Q182-7 138.50 16Q95 39 71 74Q52 103 43 139.50Q34 176 33 219Q31 261 38.50 301.50Q46 342 62 372Q87 420 132 448Q177 476 246 476M248 373Q219 373 198 359.50Q177 346 164 322Q158 310 153.50 287.50Q149 265 148 221Q148 201 151 183Q154 165 161 150Q186 96 246 96Q272 96 293 107.50Q314 119 327 140Q341 160 344.50 187Q348 214 348 242Q348 266 345 281.50Q342 297 338 308Q327 340 303.50 356.50Q280 373 248 373Z"  horiz-adv-x="514" vert-adv-y="1000"  />

      
      <glyph glyph-name="unid7" unicode="&#xd7;" d="M268 221L107 60L40 126L201 287L37 452L101 515L265 351L424 511L491 444L331 285L496 120L433 56L268 221Z"  horiz-adv-x="525" vert-adv-y="1000"  />

      
      <glyph glyph-name="unib8" unicode="&#xb8;" d="M214 44Q229 44 243.50 43.50Q258 43 273 43Q266 23 259.50 3Q253-17 247-37Q274-39 293-48Q312-57 323.50-69.50Q335-82 340-96.50Q345-111 345-124Q345-139 338-155Q331-171 317-184Q303-197 281.50-205Q260-213 231-213Q205-213 179.50-207.50Q154-202 131-189L152-137Q175-148 192-150.50Q209-153 224-153Q241-153 254.50-146Q268-139 268-120Q268-103 255.50-95.50Q243-88 225-88Q218-88 208-90L178-70L214 44L214 44Z"  horiz-adv-x="447" vert-adv-y="1000"  />

      
      <glyph glyph-name="uni0192" unicode="&#x0192;" d="M125 426L220 426L228 489Q233 525 244.50 562Q256 599 278 630Q300 661 335 680.50Q370 700 421 700Q445 699 470.50 694Q496 689 516 681L492 587Q472 594 454.50 595.50Q437 597 420 597Q402 597 388.50 587.50Q375 578 366 563Q357 548 352 528.50Q347 509 344 489L335 426L434 426L435 328L323 328L295 120Q289 75 276.50 35Q264-5 243.50-34Q223-63 192.50-80Q162-97 119-97Q96-97 63.50-89.50Q31-82 7-71L35 20Q60 10 76 8Q92 6 104 6Q137 6 154 38Q171 70 179 127Q180 138 184 166.50Q188 195 192.50 227.50Q197 260 200.50 288.50Q204 317 206 328L126 328L125 426Z"  horiz-adv-x="525" vert-adv-y="1000"  />

      
      <glyph glyph-name="uni02C6" unicode="&#x02C6;" d="M253 642Q244 636 224.50 621Q205 606 183.50 589.50Q162 573 142 558Q122 543 113 537L67 580L216 734L294 734L440 581L392 537L253 642Z"  horiz-adv-x="504" vert-adv-y="1000"  />

      
      <glyph glyph-name="uni02C7" unicode="&#x02C7;" d="M392 734L440 690L294 537L216 537L67 691L113 734Q122 728 142 713Q162 698 183.50 681.50Q205 665 224.50 650Q244 635 253 629L392 734Z"  horiz-adv-x="504" vert-adv-y="1000"  />

      
      <glyph glyph-name="uni02D8" unicode="&#x02D8;" d="M268 564Q226 564 198 579Q170 594 152.50 616Q135 638 127 663.50Q119 689 118 710L205 710Q205 700 209.50 688.50Q214 677 222 667Q230 657 241.50 650.50Q253 644 268 644Q284 644 296 650.50Q308 657 316 667Q324 677 328 688.50Q332 700 332 710L418 710Q416 689 408 663.50Q400 638 383 616Q366 594 338 579Q310 564 268 564Z"  horiz-adv-x="522" vert-adv-y="1000"  />

      
      <glyph glyph-name="uni02DC" unicode="&#x02DC;" d="M189 705Q208 705 226.50 697.50Q245 690 262 681Q279 672 294.50 664.50Q310 657 322 657Q339 657 354 668Q369 679 386 704L446 669Q422 617 394 593.50Q366 570 332 570Q313 570 294.50 577Q276 584 258.50 593Q241 602 224.50 609Q208 616 194 616Q177 616 161 606.50Q145 597 125 571L68 604Q91 652 121 678.50Q151 705 189 705Z"  horiz-adv-x="504" vert-adv-y="1000"  />

      
      <glyph glyph-name="unid1" unicode="&#xd1;" d="M509 0L294 324L197 483L194 482L194 0L73 0L73 696L185 696L380 400L498 212L500 214L500 696L621 696L621 0L509 0M274 876Q293 876 311.50 868.50Q330 861 347 852Q364 843 379.50 835.50Q395 828 407 828Q424 828 439 839Q454 850 471 875L531 840Q507 788 479 764.50Q451 741 417 741Q398 741 379.50 748Q361 755 343.50 764Q326 773 309.50 780Q293 787 279 787Q262 787 246 777.50Q230 768 210 742L153 775Q176 823 206 849.50Q236 876 274 876Z"  horiz-adv-x="692" vert-adv-y="1000"  />

      
      <glyph glyph-name="unif5" unicode="&#xf5;" d="M264 501Q320 501 364.50 479.50Q409 458 436 418Q455 389 464 347.50Q473 306 472 255Q472 198 463.50 157.50Q455 117 438 87Q409 40 360 16.50Q311-7 252-7Q196-7 152 12Q108 31 81 71Q40 132 42 247Q42 287 47.50 323Q53 359 67 387Q93 442 144.50 471.50Q196 501 264 501M260 399Q231 399 208 384Q185 369 173 343Q164 323 160.50 299Q157 275 156 246Q156 217 159 193Q162 169 171 151Q182 125 204 110.50Q226 96 255 96Q287 96 312 113.50Q337 131 348 167Q353 181 355 202Q357 223 357 255Q357 313 344 342Q333 371 310.50 385Q288 399 260 399M194 705Q213 705 231.50 697.50Q250 690 267 681Q284 672 299.50 664.50Q315 657 327 657Q344 657 359 668Q374 679 391 704L451 669Q427 617 399 593.50Q371 570 337 570Q318 570 299.50 577Q281 584 263.50 593Q246 602 229.50 609Q213 616 199 616Q182 616 166 606.50Q150 597 130 571L73 604Q96 652 126 678.50Q156 705 194 705Z"  horiz-adv-x="515" vert-adv-y="1000"  />

      
      <glyph glyph-name="unic7" unicode="&#xc7;" d="M551 156Q525 82 465 39.50Q405-3 318-6L309-37Q336-39 355-48Q374-57 385.50-69.50Q397-82 402-96.50Q407-111 407-124Q407-139 400-155Q393-171 379-184Q365-197 343.50-205Q322-213 293-213Q267-213 241.50-207.50Q216-202 193-189L214-137Q237-148 254-150.50Q271-153 286-153Q303-153 316.50-146Q330-139 330-120Q330-103 317.50-95.50Q305-88 287-88Q280-88 270-90L240-70L261-3Q207 4 167 27Q127 50 100.50 84.50Q74 119 61 163.50Q48 208 48 259L48 437Q48 489 64 537Q80 585 112 621.50Q144 658 193 679.50Q242 701 307 701Q399 701 461.50 656.50Q524 612 550 539L436 494Q423 535 390.50 560.50Q358 586 307 586Q272 586 246.50 574Q221 562 204 541.50Q187 521 178.50 495Q170 469 170 442L170 257Q170 228 178.50 201.50Q187 175 204 154Q221 133 246.50 120.50Q272 108 307 108Q357 108 390 134.50Q423 161 436 204L551 156Z"  horiz-adv-x="572" vert-adv-y="1000"  />

      
      <glyph glyph-name="unib4" unicode="&#xb4;" d="M188 569L267 759L374 725L256 544L188 569Z"  horiz-adv-x="504" vert-adv-y="1000"  />

      
      <glyph glyph-name="uniF6CB" unicode="&#xF6CB;" d="M352 757L352 868L472 868L472 757L352 757M154 757L154 868L275 868L275 757L154 757Z"  horiz-adv-x="630" vert-adv-y="1000"  />

      
      <glyph glyph-name="unic6" unicode="&#xc6;" d="M517 0L517 176L270 176Q244 131 217 88Q190 45 163 0L26 0L459 696L983 696L983 586L638 586L638 403L932 403L932 298L638 298L638 109L983 109L983 0L517 0M515 585Q469 508 423 433Q377 358 331 281L517 281L517 585L515 585Z"  horiz-adv-x="1034" vert-adv-y="1000"  />

      
      <glyph glyph-name="uni201A" unicode="&#x201A;" d="M68-132L103 0L71 0L71 139L203 139L203 5L126-132L68-132Z"  horiz-adv-x="276" vert-adv-y="1000"  />

      
      <glyph glyph-name="uni201E" unicode="&#x201E;" d="M244-132L279 0L247 0L247 139L383 139L383 5L306-132L244-132M68-132L103 0L71 0L71 139L208 139L208 5L131-132L68-132Z"  horiz-adv-x="456" vert-adv-y="1000"  />

      
      <glyph glyph-name="uni2021" unicode="&#x2021;" d="M189 373L21 373L21 465L189 465L189 696L300 696L300 465L467 465L467 373L300 373L300 207L467 207L467 115L300 115L300-177L189-177L189 115L21 115L21 207L189 207L189 373Z"  horiz-adv-x="488" vert-adv-y="1000"  />

      
      <glyph glyph-name="uni2039" unicode="&#x2039;" d="M183 28L46 228L183 428L292 428L159 228L292 28L183 28Z"  horiz-adv-x="352" vert-adv-y="1000"  />

      
      <glyph glyph-name="uni2014" unicode="&#x2014;" d="M20 224L20 325L1005 325L1005 224L20 224Z"  horiz-adv-x="1025" vert-adv-y="1000"  />

      
      <glyph glyph-name="uni203A" unicode="&#x203A;" d="M46 28L179 228L46 428L155 428L291 228L155 28L46 28Z"  horiz-adv-x="352" vert-adv-y="1000"  />

      
      <glyph glyph-name="unia1" unicode="&#xa1;" d="M88 308L185 308L192-203L80-203L88 308M195 493L195 379L76 379L76 493L195 493Z"  horiz-adv-x="268" vert-adv-y="1000"  />

      
      <glyph glyph-name="unia4" unicode="&#xa4;" d="M155 320Q155 296 164.50 274Q174 252 190.50 235.50Q207 219 228.50 209.50Q250 200 275 200Q300 200 322 209.50Q344 219 360.50 235.50Q377 252 386.50 273.50Q396 295 396 320Q396 345 386.50 367Q377 389 360.50 405.50Q344 422 322 431Q300 440 275 440Q250 440 228.50 430.50Q207 421 190.50 405Q174 389 164.50 367Q155 345 155 320M33 500Q36 503 45 512Q54 521 63.50 531Q73 541 82 550Q91 559 94 562L162 494Q218 529 276 529Q335 529 390 495Q393 499 402.50 508.50Q412 518 423 529Q434 540 443.50 549.50Q453 559 457 562L518 500L450 433Q485 377 485 320Q485 290 476.50 263Q468 236 451 207Q466 193 485 174.50Q504 156 518 141L457 79L390 146Q337 111 276 111Q246 111 217 120Q188 129 162 146L94 79Q92 82 83 91Q74 100 63.50 110Q53 120 44 129Q35 138 33 140L101 207Q67 262 67 320Q67 376 101 433L33 500Z"  horiz-adv-x="556" vert-adv-y="1000"  />

      
      </font>
</defs>
</svg>
