<?xml version="1.0" standalone="no"?>
  <!DOCTYPE svg PUBLIC "-//W3C//DTD SVG 1.1//EN" "http://www.w3.org/Graphics/SVG/1.1/DTD/svg11.dtd" >
  <svg>
  <metadata>
  Created by font-carrier
  </metadata>
  <defs>
  <font id="PFDinTextPro-BoldItalic" horiz-adv-x="1818" vert-adv-y="1818" >
    <font-face
      
      font-family="PF DinText Pro"
      
      font-weight="400"
      
      font-stretch="normal"
      
      units-per-em="1000"
      
      ascent="750"
      
      descent="-250"
      
    />
      <missing-glyph />

      

      
      <glyph glyph-name="uni21" unicode="&#x21;" d="M202 191L81 191L168 696L310 696L202 191M32 0L57 128L201 128L176 0L32 0Z"  horiz-adv-x="288" vert-adv-y="1000"  />

      
      <glyph glyph-name="uni22" unicode="&#x22;" d="M270 469L314 696L435 696L391 469L270 469M104 469L148 696L269 696L225 469L104 469Z"  horiz-adv-x="401" vert-adv-y="1000"  />

      
      <glyph glyph-name="uni23" unicode="&#x23;" d="M457 301L547 301L528 203L424 203L356 0L237 0L306 203L225 203L156 0L37 0L106 203L22 203L41 301L140 301L173 396L87 396L106 495L206 495L274 696L390 696L323 495L406 495L475 696L590 696L523 495L612 495L593 396L489 396L457 301M257 301L340 301L373 396L289 396L257 301Z"  horiz-adv-x="550" vert-adv-y="1000"  />

      
      <glyph glyph-name="uni24" unicode="&#x24;" d="M206-3Q145 1 96.50 24.50Q48 48 0 94L104 211Q136 179 166 162Q196 145 234 141L261 279Q229 288 198.50 304Q168 320 145 343Q122 366 108 396Q94 426 94 464Q94 514 113 556.50Q132 599 165 629.50Q198 660 243.50 678.50Q289 697 342 699L355 766L410 766L398 700Q449 698 493.50 680.50Q538 663 584 626L493 499Q457 526 429.50 540Q402 554 370 557L344 426Q389 410 424.50 391.50Q460 373 484.50 349.50Q509 326 521.50 296Q534 266 534 228Q534 170 512 126.50Q490 83 452.50 54.50Q415 26 365.50 11.50Q316-3 261-4L241-106L186-106L206-3M289 142Q359 155 359 209Q359 228 347 240Q335 252 312 262L289 142M259 501Q259 484 266.50 471.50Q274 459 294 448L314 554Q294 549 279 536.50Q264 524 259 501Z"  horiz-adv-x="550" vert-adv-y="1000"  />

      
      <glyph glyph-name="uni26" unicode="&#x26;" d="M409 57Q367 27 322 10.50Q277-6 231-6Q183-6 150 8Q117 22 96.50 45Q76 68 67 99Q58 130 58 163Q58 224 101 284.50Q144 345 217 388L207 404Q196 423 185.50 454Q175 485 175 519Q175 604 231 652.50Q287 701 395 701Q416 701 440.50 697.50Q465 694 489 686Q513 678 536 665Q559 652 578 632L494 526Q462 558 434.50 566.50Q407 575 381 575Q351 575 333 556.50Q315 538 315 514Q315 503 318.50 493.50Q322 484 330 470L449 262Q461 281 472.50 306Q484 331 493 357L612 324Q595 279 569 232.50Q543 186 514 151L606 0L441 0L409 57M273 289Q238 267 214.50 236.50Q191 206 191 174Q191 151 207.50 136Q224 121 258 121Q282 121 306 131Q330 141 351 155L273 289Z"  horiz-adv-x="662" vert-adv-y="1000"  />

      
      <glyph glyph-name="uni27" unicode="&#x27;" d="M117 469L161 696L283 696L239 469L117 469Z"  horiz-adv-x="255" vert-adv-y="1000"  />

      
      <glyph glyph-name="uni28" unicode="&#x28;" d="M201-142Q145-65 108.50 27.50Q72 120 74 223Q75 301 100.50 374Q126 447 167.50 513.50Q209 580 262 639Q315 698 371 748L446 693Q399 644 358.50 587Q318 530 288 467Q258 404 241 337.50Q224 271 224 202Q224 130 242.50 58Q261-14 297-79L201-142Z"  horiz-adv-x="373" vert-adv-y="1000"  />

      
      <glyph glyph-name="uni29" unicode="&#x29;" d="M-3-79Q42-31 82.50 24.50Q123 80 153.50 141Q184 202 202 267.50Q220 333 220 401Q220 473 204 548Q188 623 148 693L244 748Q298 673 334 586Q370 499 370 399Q370 318 344.50 243Q319 168 276.50 99.50Q234 31 179.50-30Q125-91 68-142L-3-79Z"  horiz-adv-x="373" vert-adv-y="1000"  />

      
      <glyph glyph-name="uni2a" unicode="&#x2a;" d="M424 404L320 339L281 442L198 339L121 404L220 493L111 519L163 621L265 575L275 694L388 694L351 575L470 621L482 519L361 493L424 404Z"  horiz-adv-x="464" vert-adv-y="1000"  />

      
      <glyph glyph-name="uni2b" unicode="&#x2b;" d="M343 240L307 54L183 54L219 240L25 240L48 356L242 356L277 539L401 539L366 356L560 356L537 240L343 240Z"  horiz-adv-x="550" vert-adv-y="1000"  />

      
      <glyph glyph-name="uni2c" unicode="&#x2c;" d="M-8-151L59-1L23-1L56 165L221 165L191 7L64-151L-8-151Z"  horiz-adv-x="293" vert-adv-y="1000"  />

      
      <glyph glyph-name="uni2d" unicode="&#x2d;" d="M44 192L69 323L408 323L382 192L44 192Z"  horiz-adv-x="431" vert-adv-y="1000"  />

      
      <glyph glyph-name="uni2e" unicode="&#x2e;" d="M-17 0L15 165L180 165L148 0L-17 0Z"  horiz-adv-x="291" vert-adv-y="1000"  />

      
      <glyph glyph-name="uni2f" unicode="&#x2f;" d="M54-42L-64-42L337 725L457 725L54-42Z"  horiz-adv-x="368" vert-adv-y="1000"  />

      
      <glyph glyph-name="uni30" unicode="&#x30;" d="M463 204Q442 97 380.50 46Q319-5 223-5Q177-5 137.50 9Q98 23 71 49.50Q44 76 32 115Q20 154 30 204L85 491Q105 592 170 646.50Q235 701 327 701Q370 701 409 687Q448 673 476 646Q504 619 516.50 580Q529 541 519 491L463 204M374 491Q382 530 362.50 549Q343 568 310 568Q245 568 229 491L174 205Q166 166 186.50 147Q207 128 239 128Q303 128 318 205L374 491Z"  horiz-adv-x="550" vert-adv-y="1000"  />

      
      <glyph glyph-name="uni31" unicode="&#x31;" d="M141 0L244 531L129 459L158 613L292 696L421 696L285 0L141 0Z"  horiz-adv-x="550" vert-adv-y="1000"  />

      
      <glyph glyph-name="uni32" unicode="&#x32;" d="M106 512Q119 557 144.50 592.50Q170 628 202.50 652Q235 676 273 688.50Q311 701 350 701Q390 701 425.50 692Q461 683 488 663.50Q515 644 530.50 614Q546 584 546 543Q546 516 539 489.50Q532 463 520.50 440Q509 417 495 397.50Q481 378 466 364L228 138L468 138L441 0L6 0L30 123L364 442Q380 457 386.50 475Q393 493 393 511Q393 534 378.50 548.50Q364 563 336 563Q308 563 282 546.50Q256 530 242 482L106 512Z"  horiz-adv-x="550" vert-adv-y="1000"  />

      
      <glyph glyph-name="uni33" unicode="&#x33;" d="M160 205Q161 161 181.50 147Q202 133 232 133Q252 133 270 140.50Q288 148 301 161.50Q314 175 321.50 192.50Q329 210 329 230Q329 262 311 283.50Q293 305 263 305L185 305L207 415L277 415Q296 415 314 422Q332 429 345.50 441Q359 453 367 469.50Q375 486 375 506Q375 531 357.50 547Q340 563 313 563Q302 563 288.50 559.50Q275 556 262.50 548Q250 540 239.50 526.50Q229 513 223 493L86 518Q101 565 125.50 599.50Q150 634 182.50 656.50Q215 679 253.50 690Q292 701 334 701Q381 701 417.50 686.50Q454 672 479 648Q504 624 517 591.50Q530 559 530 523Q530 469 498.50 424Q467 379 415 361L414 356Q454 339 468.50 304.50Q483 270 483 235Q483 181 462 137Q441 93 405.50 61.50Q370 30 323.50 12.50Q277-5 226-5Q189-5 153 5.50Q117 16 87.50 39Q58 62 39.50 97.50Q21 133 20 184L160 205Z"  horiz-adv-x="550" vert-adv-y="1000"  />

      
      <glyph glyph-name="uni34" unicode="&#x34;" d="M446 97L427 0L283 0L302 97L18 97L40 212L370 696L531 696L210 230L328 230L360 403L504 403L472 230L527 230L501 97L446 97Z"  horiz-adv-x="550" vert-adv-y="1000"  />

      
      <glyph glyph-name="uni35" unicode="&#x35;" d="M185 202Q184 182 190.50 169Q197 156 207.50 148Q218 140 229.50 136.50Q241 133 251 133Q281 133 301 150.50Q321 168 332 193Q343 218 347.50 245Q352 272 352 290Q352 319 339 338Q326 357 291 357Q271 357 248.50 344Q226 331 206 299L77 299L155 696L553 696L526 558L266 558L246 460L250 457Q273 472 298 479.50Q323 487 346 487Q390 487 420 474Q450 461 468.50 439Q487 417 495 388.50Q503 360 503 329Q503 260 486.50 199Q470 138 436.50 93Q403 48 352 21.50Q301-5 232-5Q197-5 164 6Q131 17 105 40Q79 63 63 98Q47 133 46 182L185 202Z"  horiz-adv-x="550" vert-adv-y="1000"  />

      
      <glyph glyph-name="uni36" unicode="&#x36;" d="M219-5Q172-5 137.50 9Q103 23 80.50 46.50Q58 70 47.50 101.50Q37 133 37 168Q37 210 51.50 253Q66 296 93 334L352 696L514 696L316 418L317 416Q325 417 331.50 417.50Q338 418 345 418Q415 418 451.50 374Q488 330 488 264Q488 190 463 139Q438 88 398.50 56Q359 24 311.50 9.50Q264-5 219-5M277 302Q261 302 244.50 295Q228 288 214.50 274Q201 260 192.50 240Q184 220 184 194Q184 162 201.50 147.50Q219 133 244 133Q257 133 273 139Q289 145 303 157.50Q317 170 326.50 190Q336 210 336 238Q336 269 318.50 285.50Q301 302 277 302Z"  horiz-adv-x="550" vert-adv-y="1000"  />

      
      <glyph glyph-name="uni37" unicode="&#x37;" d="M161 0L8 0L347 558L224 558L206 464L61 464L107 696L541 696L517 573L161 0Z"  horiz-adv-x="550" vert-adv-y="1000"  />

      
      <glyph glyph-name="uni38" unicode="&#x38;" d="M342 701Q387 701 421.50 688Q456 675 480 652Q504 629 516.50 597.50Q529 566 529 529Q529 470 498 428.50Q467 387 416 361Q432 353 445 338Q458 323 467 305Q476 287 481 266.50Q486 246 486 227Q486 174 463 131Q440 88 402.50 58Q365 28 317.50 11.50Q270-5 221-5Q176-5 139 8Q102 21 75.50 44.50Q49 68 34.50 101.50Q20 135 20 176Q20 203 26.50 230.50Q33 258 47.50 282.50Q62 307 85 327.50Q108 348 140 361Q111 378 99 404.50Q87 431 87 463Q87 512 106 555.50Q125 599 159 631Q193 663 239.50 682Q286 701 342 701M323 570Q286 570 259.50 544Q233 518 233 476Q233 450 250.50 436Q268 422 294 422Q310 422 326.50 428.50Q343 435 355.50 446.50Q368 458 376 474Q384 490 384 510Q384 536 368.50 553Q353 570 323 570M269 294Q249 294 230.50 286.50Q212 279 197.50 265.50Q183 252 174 234.50Q165 217 165 197Q165 168 184 148.50Q203 129 237 129Q258 129 277.50 137.50Q297 146 311 159.50Q325 173 333.50 191Q342 209 342 229Q342 258 321.50 276Q301 294 269 294Z"  horiz-adv-x="550" vert-adv-y="1000"  />

      
      <glyph glyph-name="uni39" unicode="&#x39;" d="M322 700Q369 700 404.50 686Q440 672 464 648.50Q488 625 500 593.50Q512 562 512 527Q512 485 497.50 442Q483 399 456 361L197-1L35-1L233 277L232 279Q224 278 217.50 277.50Q211 277 204 277Q134 277 97.50 321Q61 365 61 431Q61 498 84 548Q107 598 144 632Q181 666 228 683Q275 700 322 700M272 393Q288 393 304.50 400Q321 407 334.50 421Q348 435 356.50 455Q365 475 365 501Q365 533 347.50 547.50Q330 562 305 562Q292 562 276 556Q260 550 246 537.50Q232 525 222.50 505Q213 485 213 457Q213 426 230.50 409.50Q248 393 272 393Z"  horiz-adv-x="550" vert-adv-y="1000"  />

      
      <glyph glyph-name="uni3a" unicode="&#x3a;" d="M26 0L58 165L223 165L191 0L26 0M78 268L110 433L275 433L243 268L78 268Z"  horiz-adv-x="297" vert-adv-y="1000"  />

      
      <glyph glyph-name="uni3b" unicode="&#x3b;" d="M78 268L110 433L275 433L243 268L78 268M-6-151L61-1L25-1L58 165L223 165L193 7L66-151L-6-151Z"  horiz-adv-x="297" vert-adv-y="1000"  />

      
      <glyph glyph-name="uni3c" unicode="&#x3c;" d="M25 242L46 354L601 577L575 443L193 294L517 145L492 17L25 242Z"  horiz-adv-x="550" vert-adv-y="1000"  />

      
      <glyph glyph-name="uni3d" unicode="&#x3d;" d="M47 357L68 468L582 468L561 357L47 357M2 128L24 239L538 239L516 128L2 128Z"  horiz-adv-x="550" vert-adv-y="1000"  />

      
      <glyph glyph-name="uni3e" unicode="&#x3e;" d="M-18 17L6 153L388 302L64 451L91 577L558 354L537 242L-18 17Z"  horiz-adv-x="550" vert-adv-y="1000"  />

      
      <glyph glyph-name="uni3f" unicode="&#x3f;" d="M61 492Q81 595 151 648Q221 701 324 701Q365 701 400.50 689Q436 677 461.50 655.50Q487 634 501.50 604.50Q516 575 516 540Q516 502 503 472Q490 442 470 416.50Q450 391 425 368.50Q400 346 377 322.50Q354 299 334.50 273.50Q315 248 306 216L301 194L157 194L162 221Q167 250 176.50 273.50Q186 297 201.50 320Q217 343 239.50 368Q262 393 292 425Q301 435 312.50 445.50Q324 456 333.50 467.50Q343 479 349.50 491Q356 503 356 516Q356 538 338 550.50Q320 563 297 563Q283 563 268.50 559.50Q254 556 241.50 546Q229 536 219 518.50Q209 501 203 474L61 492M119 0L144 128L288 128L264 0L119 0Z"  horiz-adv-x="485" vert-adv-y="1000"  />

      
      <glyph glyph-name="uni40" unicode="&#x40;" d="M606 241Q604 230 613 223Q622 216 632 216Q659 216 682 229Q705 242 722 265Q739 288 749.50 318Q760 348 763 383Q767 443 750.50 491.50Q734 540 700.50 574Q667 608 619 626.50Q571 645 512 645Q440 645 380.50 619.50Q321 594 277.50 551.50Q234 509 208 452Q182 395 176 332Q171 264 189 208Q207 152 244.50 111.50Q282 71 337 49Q392 27 460 27Q497 27 528.50 30.50Q560 34 588.50 41Q617 48 644 57.50Q671 67 699 79L721-8Q686-21 656-31.50Q626-42 596-49Q566-56 534.50-59.50Q503-63 466-63Q376-63 301-37Q226-11 174 39.50Q122 90 95 163.50Q68 237 74 332Q80 419 115 492Q150 565 208.50 618Q267 671 345 701Q423 731 516 731Q595 731 661 707Q727 683 773.50 638.50Q820 594 844 530.50Q868 467 862 388Q858 334 841.50 285Q825 236 796.50 199Q768 162 727 140Q686 118 634 118Q619 118 601 122.50Q583 127 566.50 135.50Q550 144 537 157Q524 170 519 187L516 187Q500 164 467.50 143.50Q435 123 396 123Q361 123 336.50 134Q312 145 296.50 163.50Q281 182 274 205.50Q267 229 267 253Q267 299 277 349Q287 399 311 440.50Q335 482 373.50 509Q412 536 469 536Q488 536 507.50 529Q527 522 543 503L545 504L551 532L664 532L606 241M387 277Q387 259 396.50 244.50Q406 230 433 230Q457 230 473 246Q489 262 498.50 284Q508 306 512.50 330Q517 354 517 371Q517 394 509.50 411Q502 428 473 428Q448 428 431.50 411.50Q415 395 405 372Q395 349 391 322.50Q387 296 387 277Z"  horiz-adv-x="926" vert-adv-y="1000"  />

      
      <glyph glyph-name="uni41" unicode="&#x41;" d="M449 0L427 149L203 149L120 0L-42 0L350 696L481 696L606 0L449 0M397 365L383 503L380 503L315 367L272 278L408 278L397 365Z"  horiz-adv-x="646" vert-adv-y="1000"  />

      
      <glyph glyph-name="uni42" unicode="&#x42;" d="M431 696Q532 696 583.50 652Q635 608 635 526Q635 504 629.50 481Q624 458 611.50 436Q599 414 578 395Q557 376 526 363L525 359Q564 340 583 300.50Q602 261 602 219Q602 165 579 124Q556 83 519.50 55.50Q483 28 438 14Q393 0 350 0L25 0L160 696L431 696M290 561L261 419L371 419Q424 419 449 444.50Q474 470 474 502Q474 526 457.50 543.50Q441 561 400 561L290 561M236 292L206 138L337 138Q364 138 384 146Q404 154 416.50 167.50Q429 181 435.50 197.50Q442 214 442 232Q442 256 425.50 274Q409 292 367 292L236 292Z"  horiz-adv-x="625" vert-adv-y="1000"  />

      
      <glyph glyph-name="uni43" unicode="&#x43;" d="M572 167Q534 86 461 40Q388-6 282-6Q214-6 166.50 16Q119 38 91 75.50Q63 113 54 162.50Q45 212 56 266L88 430Q98 484 121 533Q144 582 181 619.50Q218 657 271 679Q324 701 395 701Q494 701 549.50 654.50Q605 608 628 526L486 471Q483 486 475 502Q467 518 454 530.50Q441 543 423 551.50Q405 560 381 560Q348 560 324.50 550Q301 540 285 523.50Q269 507 259.50 486Q250 465 246 444L209 255Q204 232 207.50 211Q211 190 222 174Q233 158 253 148Q273 138 302 138Q349 138 381 161.50Q413 185 429 223L572 167Z"  horiz-adv-x="600" vert-adv-y="1000"  />

      
      <glyph glyph-name="uni44" unicode="&#x44;" d="M210 138L311 138Q350 138 377.50 148.50Q405 159 424 178.50Q443 198 455 225.50Q467 253 473 287L498 414Q512 486 487.50 524.50Q463 563 390 563L292 563L210 138M437 696Q481 696 521 686Q561 676 591.50 654Q622 632 640 597Q658 562 658 513Q658 468 650 410.50Q642 353 630 298.50Q618 244 603.50 198.50Q589 153 577 132Q553 92 525 66.50Q497 41 465.50 26Q434 11 399.50 5.50Q365 0 329 0L30 0L165 696L437 696Z"  horiz-adv-x="657" vert-adv-y="1000"  />

      
      <glyph glyph-name="uni45" unicode="&#x45;" d="M29 0L164 696L634 696L608 561L289 561L260 417L543 417L517 284L234 284L206 138L541 138L515 0L29 0Z"  horiz-adv-x="573" vert-adv-y="1000"  />

      
      <glyph glyph-name="uni46" unicode="&#x46;" d="M286 563L259 411L542 411L516 278L233 278L179 0L29 0L164 696L636 696L607 563L286 563Z"  horiz-adv-x="555" vert-adv-y="1000"  />

      
      <glyph glyph-name="uni47" unicode="&#x47;" d="M279-6Q211-6 163.50 16Q116 38 88 75.50Q60 113 51 162.50Q42 212 53 266L85 430Q95 484 118 533Q141 582 178 619.50Q215 657 268 679Q321 701 392 701Q483 701 542.50 654.50Q602 608 625 526L483 471Q480 486 472 501.50Q464 517 451 529Q438 541 420 549Q402 557 378 557Q349 557 326 547.50Q303 538 286 522Q269 506 258 485.50Q247 465 243 444L206 255Q201 232 204.50 210.50Q208 189 219 171.50Q230 154 250 143.50Q270 133 299 133Q325 133 348.50 143Q372 153 390.50 170Q409 187 421 208.50Q433 230 438 254L439 259L301 259L325 387L617 387L590 248Q578 186 549 139Q520 92 479.50 59.50Q439 27 387.50 10.50Q336-6 279-6Z"  horiz-adv-x="625" vert-adv-y="1000"  />

      
      <glyph glyph-name="uni48" unicode="&#x48;" d="M402 0L458 284L234 284L179 0L29 0L164 696L314 696L260 417L484 417L538 696L687 696L552 0L402 0Z"  horiz-adv-x="661" vert-adv-y="1000"  />

      
      <glyph glyph-name="uni49" unicode="&#x49;" d="M26 0L161 696L312 696L176 0L26 0Z"  horiz-adv-x="288" vert-adv-y="1000"  />

      
      <glyph glyph-name="uni4a" unicode="&#x4a;" d="M443 225Q432 171 413 127.50Q394 84 364 54Q334 24 290.50 8Q247-8 189-8Q162-8 133.50-0.50Q105 7 78.50 20.50Q52 34 29 53Q6 72-9 95L96 186Q111 164 135.50 148Q160 132 197 132Q243 132 264 156.50Q285 181 295 232L385 696L535 696L443 225L443 225Z"  horiz-adv-x="501" vert-adv-y="1000"  />

      
      <glyph glyph-name="uni4b" unicode="&#x4b;" d="M455 0L331 301L217 194L179 0L29 0L164 696L314 696L259 407L261 405L392 539L562 696L745 696L451 414L624 0L455 0Z"  horiz-adv-x="644" vert-adv-y="1000"  />

      
      <glyph glyph-name="uni4c" unicode="&#x4c;" d="M29 0L164 696L314 696L206 138L537 138L511 0L29 0Z"  horiz-adv-x="573" vert-adv-y="1000"  />

      
      <glyph glyph-name="uni4d" unicode="&#x4d;" d="M517 0L581 331L578 332L489 191L424 93L308 93L280 196L247 332L243 329L179 0L29 0L164 696L300 696L353 494L400 285L404 285L530 494L660 696L802 696L667 0L517 0Z"  horiz-adv-x="767" vert-adv-y="1000"  />

      
      <glyph glyph-name="uni4e" unicode="&#x4e;" d="M456 0L331 271L263 430L261 429L179 0L29 0L164 696L298 696L399 470L490 262L492 262L575 696L725 696L590 0L456 0Z"  horiz-adv-x="696" vert-adv-y="1000"  />

      
      <glyph glyph-name="uni4f" unicode="&#x4f;" d="M380 701Q446 701 497 680.50Q548 660 580.50 624Q613 588 625 538Q637 488 626 430L594 266Q582 204 560 153.50Q538 103 502.50 67.50Q467 32 417 13Q367-6 300-6Q225-6 173 16Q121 38 90.50 75.50Q60 113 50.50 162.50Q41 212 52 266L84 430Q94 484 114.50 533Q135 582 169.50 619.50Q204 657 255.50 679Q307 701 380 701M370 566Q338 566 316 555.50Q294 545 279.50 528Q265 511 256.50 489.50Q248 468 244 447L204 249Q200 229 201.50 208.50Q203 188 214 171Q225 154 247 143Q269 132 307 132Q337 132 359 141Q381 150 396 166Q411 182 420 203.50Q429 225 434 249L474 451Q478 474 473 495Q468 516 454.50 531.50Q441 547 419.50 556.50Q398 566 370 566Z"  horiz-adv-x="624" vert-adv-y="1000"  />

      
      <glyph glyph-name="uni50" unicode="&#x50;" d="M432 696Q530 696 586.50 647.50Q643 599 643 513Q643 451 622 403Q601 355 564.50 322Q528 289 478.50 271.50Q429 254 372 254L229 254L179 0L29 0L164 696L432 696M290 561L255 392L389 392Q410 392 428.50 398.50Q447 405 461.50 417.50Q476 430 484.50 448.50Q493 467 493 490Q493 561 408 561L290 561Z"  horiz-adv-x="597" vert-adv-y="1000"  />

      
      <glyph glyph-name="uni51" unicode="&#x51;" d="M376 701Q442 701 494 680.50Q546 660 579 624Q612 588 624.50 538Q637 488 626 430L594 266Q586 227 574 189Q562 151 545 123L608 64L514-31L452 31Q423 14 386 4Q349-6 304-6Q229-6 176.50 16Q124 38 92.50 75.50Q61 113 51 162.50Q41 212 52 266L84 430Q94 484 114 533Q134 582 168 619.50Q202 657 252.50 679Q303 701 376 701M367 557Q335 557 313 546.50Q291 536 276.50 519Q262 502 253.50 480.50Q245 459 241 438L205 255Q201 235 202.50 214.50Q204 194 215 177Q226 160 248 149Q270 138 308 138Q314 138 319.50 138.50Q325 139 330 140L274 199L369 292L428 235Q430 239 432 245Q434 251 435 255L471 442Q475 465 470 486Q465 507 451.50 522.50Q438 538 416.50 547.50Q395 557 367 557Z"  horiz-adv-x="625" vert-adv-y="1000"  />

      
      <glyph glyph-name="uni52" unicode="&#x52;" d="M414 0L333 278L233 278L179 0L29 0L164 696L443 696Q544 696 597 643.50Q650 591 644 491Q640 420 596 370Q552 320 483 300L579 0L414 0M486 491Q488 532 466 547.50Q444 563 406 563L289 563L259 411L378 411Q426 411 455 431.50Q484 452 486 491Z"  horiz-adv-x="639" vert-adv-y="1000"  />

      
      <glyph glyph-name="uni53" unicode="&#x53;" d="M366 701Q432 701 492 686Q552 671 607 630L527 506Q492 531 449 546.50Q406 562 365 562Q349 562 331 559.50Q313 557 298 549.50Q283 542 273.50 529Q264 516 264 496Q264 478 276.50 465.50Q289 453 309.50 443.50Q330 434 357 426.50Q384 419 414 412Q462 400 493.50 380Q525 360 543.50 334.50Q562 309 569.50 280Q577 251 577 220Q577 160 553.50 117.50Q530 75 490.50 48Q451 21 399 8Q347-5 290-5Q213-5 144.50 18Q76 41 17 101L113 211Q196 138 291 138Q354 138 382.50 160Q411 182 411 213Q411 245 374 264Q337 283 280 297Q247 305 215.50 318.50Q184 332 159.50 352.50Q135 373 120 402.50Q105 432 105 472Q105 526 125 568.50Q145 611 180 640.50Q215 670 262.50 685.50Q310 701 366 701Z"  horiz-adv-x="600" vert-adv-y="1000"  />

      
      <glyph glyph-name="uni54" unicode="&#x54;" d="M414 563L304 0L155 0L264 563L77 563L103 696L626 696L600 563L414 563Z"  horiz-adv-x="545" vert-adv-y="1000"  />

      
      <glyph glyph-name="uni55" unicode="&#x55;" d="M595 243Q584 187 560 141.50Q536 96 499 63.50Q462 31 412 13Q362-5 298-5Q243-5 195.50 13.50Q148 32 115.50 65.50Q83 99 68.50 146.50Q54 194 66 252L152 696L302 696L218 260Q207 200 234 167.50Q261 135 309 135Q359 135 397.50 164Q436 193 447 251L533 696L683 696L595 243L595 243Z"  horiz-adv-x="644" vert-adv-y="1000"  />

      
      <glyph glyph-name="uni56" unicode="&#x56;" d="M318 0L199 0L95 696L253 696L285 414L300 237L305 237L389 411L530 696L694 696L318 0Z"  horiz-adv-x="595" vert-adv-y="1000"  />

      
      <glyph glyph-name="uni57" unicode="&#x57;" d="M613 0L492 0L472 226L461 416L458 416L372 223L265 0L143 0L96 696L253 696L262 490L266 292L269 292L359 490L458 696L568 696L587 491L601 292L605 292L685 490L773 696L930 696L613 0Z"  horiz-adv-x="837" vert-adv-y="1000"  />

      
      <glyph glyph-name="uni58" unicode="&#x58;" d="M406 0L315 231L134 0L-40 0L261 356L108 696L283 696L364 482L528 696L703 696L418 356L582 0L406 0Z"  horiz-adv-x="625" vert-adv-y="1000"  />

      
      <glyph glyph-name="uni59" unicode="&#x59;" d="M386 285L331 0L186 0L242 285L103 696L264 696L305 546L337 411L341 411L425 545L524 696L686 696L386 285Z"  horiz-adv-x="593" vert-adv-y="1000"  />

      
      <glyph glyph-name="uni5a" unicode="&#x5a;" d="M-12 0L13 128L397 563L110 563L135 696L605 696L581 573L197 138L496 138L469 0L-12 0Z"  horiz-adv-x="538" vert-adv-y="1000"  />

      
      <glyph glyph-name="uni5b" unicode="&#x5b;" d="M7-95L162 699L386 699L365 593L274 593L161 10L252 10L232-95L7-95Z"  horiz-adv-x="308" vert-adv-y="1000"  />

      
      <glyph glyph-name="uni5c" unicode="&#x5c;" d="M85 725L205 725L309-42L190-42L85 725Z"  horiz-adv-x="368" vert-adv-y="1000"  />

      
      <glyph glyph-name="uni5d" unicode="&#x5d;" d="M-31-95L-11 10L80 10L193 593L103 593L123 699L347 699L192-95L-31-95Z"  horiz-adv-x="308" vert-adv-y="1000"  />

      
      <glyph glyph-name="uni5e" unicode="&#x5e;" d="M402 237L342 537L164 235L29 235L313 695L425 695L527 237L402 237Z"  horiz-adv-x="550" vert-adv-y="1000"  />

      
      <glyph glyph-name="uni5f" unicode="&#x5f;" d="M-71-160L-53-69L446-69L428-160L-71-160Z"  horiz-adv-x="500" vert-adv-y="1000"  />

      
      <glyph glyph-name="uni60" unicode="&#x60;" d="M418 537L243 725L367 770L488 580L418 537Z"  horiz-adv-x="516" vert-adv-y="1000"  />

      
      <glyph glyph-name="uni61" unicode="&#x61;" d="M274 500Q297 500 325 491Q353 482 373 459L375 460L382 495L522 495L426 0L286 0L294 39L291 40Q282 31 269 22.50Q256 14 241 8Q226 2 211-2Q196-6 184-6Q139-6 110.50 7.50Q82 21 66.50 43.50Q51 66 45.50 94.50Q40 123 40 153Q40 210 51.50 271Q63 332 90.50 383Q118 434 163 467Q208 500 274 500M184 183Q184 160 196 142.50Q208 125 240 125Q268 125 287.50 144.50Q307 164 319 191.50Q331 219 336 248.50Q341 278 341 298Q341 312 339 325Q337 338 331.50 347.50Q326 357 315.50 362.50Q305 368 288 368Q258 368 238 348Q218 328 206 299Q194 270 189 238.50Q184 207 184 183Z"  horiz-adv-x="523" vert-adv-y="1000"  />

      
      <glyph glyph-name="uni62" unicode="&#x62;" d="M254-5Q228-5 205.50 4Q183 13 166 36L163 34L156-1L16-1L158 727L298 727L245 455L247 454Q268 474 298 487Q328 500 353 500Q398 500 426.50 486.50Q455 473 472 451Q489 429 495 400.50Q501 372 501 341Q500 281 486.50 219Q473 157 443.50 107.50Q414 58 367.50 26.50Q321-5 254-5M354 307Q354 332 342 350Q330 368 298 368Q269 368 250 348.50Q231 329 219.50 301.50Q208 274 203 243Q198 212 198 189Q198 178 200.50 167Q203 156 209 147Q215 138 225.50 132.50Q236 127 251 127Q281 127 301 146Q321 165 332.50 192.50Q344 220 349 251Q354 282 354 307Z"  horiz-adv-x="523" vert-adv-y="1000"  />

      
      <glyph glyph-name="uni63" unicode="&#x63;" d="M409 68Q361 31 315 13Q269-5 218-5Q180-5 145.50 6.50Q111 18 85 42.50Q59 67 43.50 105Q28 143 28 197Q28 276 51.50 333.50Q75 391 112.50 428Q150 465 198 482.50Q246 500 296 500Q346 500 389.50 481.50Q433 463 465 428L365 331Q348 353 329 362.50Q310 372 292 372Q269 372 247.50 362.50Q226 353 209.50 333Q193 313 183 280.50Q173 248 173 203Q173 161 191.50 142.50Q210 124 248 124Q267 124 287.50 133.50Q308 143 335 166L409 68L409 68Z"  horiz-adv-x="440" vert-adv-y="1000"  />

      
      <glyph glyph-name="uni64" unicode="&#x64;" d="M293-1L300 34L298 36Q272 13 246 4Q220-5 193-5Q149-5 121 9Q93 23 77 46Q61 69 54.50 99.50Q48 130 48 162Q48 218 59.50 278Q71 338 98 387.50Q125 437 168.50 468.50Q212 500 276 500Q301 500 328 490.50Q355 481 379 455L382 456L435 727L574 727L433-1L293-1M348 302Q348 328 337.50 348Q327 368 295 368Q266 368 246 349.50Q226 331 214 304Q202 277 197 246Q192 215 192 191Q192 181 194.50 170Q197 159 203.50 149.50Q210 140 220.50 133.50Q231 127 248 127Q277 127 296 146.50Q315 166 326.50 193.50Q338 221 343 251Q348 281 348 302Z"  horiz-adv-x="523" vert-adv-y="1000"  />

      
      <glyph glyph-name="uni65" unicode="&#x65;" d="M298 501Q351 501 387 489Q423 477 445.50 457.50Q468 438 477.50 413Q487 388 487 363Q487 313 463 280.50Q439 248 401.50 228.50Q364 209 317.50 201Q271 193 226 193Q215 193 205 193Q195 193 185 194Q184 189 184 185.50Q184 182 184 178Q184 161 190 150Q196 139 206 133Q216 127 229.50 124.50Q243 122 259 122Q278 122 307.50 129.50Q337 137 376 160L436 55Q403 34 373 22Q343 10 316 4Q289-2 264.50-3.50Q240-5 217-5Q182-5 149 3.50Q116 12 91 33Q66 54 51 89Q36 124 36 177Q36 238 50 296.50Q64 355 95.50 400.50Q127 446 176.50 473.50Q226 501 298 501M292 373Q265 373 241.50 353Q218 333 206 300Q215 299 223 299Q231 299 239 299Q268 299 287.50 303Q307 307 318.50 313.50Q330 320 334.50 328Q339 336 339 343Q339 357 328.50 365Q318 373 292 373Z"  horiz-adv-x="505" vert-adv-y="1000"  />

      
      <glyph glyph-name="uni66" unicode="&#x66;" d="M109 384L50 384L72 495L130 495L148 582Q154 613 167 641Q180 669 202.50 690Q225 711 258.50 723.50Q292 736 340 736Q358 736 377.50 734Q397 732 418 727L396 610Q380 614 370 614.50Q360 615 351 615Q333 615 321 610Q309 605 301.50 598Q294 591 290 582Q286 573 285 566L270 495L358 495L336 384L249 384L162-51Q156-82 142-110Q128-138 104.50-159Q81-180 48.50-192.50Q16-205-26-205Q-43-205-62-203Q-81-201-101-196L-79-78Q-65-80-56.50-80.50Q-48-81-40-81Q-21-81-9-75.50Q3-70 10.50-62Q18-54 21-44Q24-34 26-26L109 384Z"  horiz-adv-x="319" vert-adv-y="1000"  />

      
      <glyph glyph-name="uni67" unicode="&#x67;" d="M521 495Q495 362 478.50 276.50Q462 191 452.50 139.50Q443 88 438.50 64Q434 40 432.50 29.50Q431 19 430.50 16Q430 13 428 4Q386-213 167-206Q125-204 82.50-190.50Q40-177 2-144L76-38Q102-58 134.50-68.50Q167-79 186-79Q227-79 251.50-54Q276-29 282 6Q283 10 284 15Q285 20 285.50 26Q286 32 288 40L286 41Q265 20 232 7Q199-6 175-6Q129-6 101.50 7.50Q74 21 59.50 43.50Q45 66 40.50 95Q36 124 36 156Q36 211 48.50 272Q61 333 89.50 383Q118 433 163.50 466Q209 499 276 499Q302 499 328.50 490.50Q355 482 372 459L374 460L381 495L521 495M339 292Q339 306 337.50 319.50Q336 333 330.50 343.50Q325 354 314.50 360.50Q304 367 286 367Q256 367 236.50 348Q217 329 205 301.50Q193 274 188.50 243Q184 212 184 188Q184 165 195.50 145.50Q207 126 239 126Q266 126 285 145.50Q304 165 316 191.50Q328 218 333.50 246Q339 274 339 292Z"  horiz-adv-x="523" vert-adv-y="1000"  />

      
      <glyph glyph-name="uni68" unicode="&#x68;" d="M300-1L357 292Q372 368 302 368Q271 368 247 349Q223 330 215 292L158-1L18-1L162 727L302 727L248 460L252 459Q275 476 305 488Q335 500 363 500Q400 500 430 488.50Q460 477 479 454.50Q498 432 505 398.50Q512 365 503 322L442-1L300-1Z"  horiz-adv-x="540" vert-adv-y="1000"  />

      
      <glyph glyph-name="uni69" unicode="&#x69;" d="M133 571L157 696L297 696L273 571L133 571M22 0L118 495L258 495L162 0L22 0Z"  horiz-adv-x="263" vert-adv-y="1000"  />

      
      <glyph glyph-name="uni6a" unicode="&#x6a;" d="M142 571L166 696L306 696L282 571L142 571M161-52Q148-119 99.50-159.50Q51-200-18-200L-88-200L-64-76L-31-76Q-16-76-5.50-69Q5-62 12-52.50Q19-43 22.50-32.50Q26-22 28-15L127 496L267 496L161-52Z"  horiz-adv-x="280" vert-adv-y="1000"  />

      
      <glyph glyph-name="uni6b" unicode="&#x6b;" d="M331-1L239 196L180 143L152-1L12-1L154 727L294 727L216 326L218 325L297 403L398 495L574 495L349 292L491-1L331-1Z"  horiz-adv-x="523" vert-adv-y="1000"  />

      
      <glyph glyph-name="uni6c" unicode="&#x6c;" d="M163 0Q134 0 109.50 10Q85 20 69 39.50Q53 59 47 88.50Q41 118 49 157L160 727L300 727L192 174Q186 141 198.50 131Q211 121 231 121L251 121L227 0L163 0Z"  horiz-adv-x="280" vert-adv-y="1000"  />

      
      <glyph glyph-name="uni6d" unicode="&#x6d;" d="M590 0L647 294Q655 336 640.50 353Q626 370 592 370Q560 370 536.50 351Q513 332 505 294L448 0L307 0L365 294Q379 370 309 370Q278 370 254 351Q230 332 223 294L165 0L26 0L122 495L262 495L254 455L258 454Q282 474 314 487Q346 500 371 500Q415 500 448.50 482Q482 464 500 429Q532 458 570.50 479Q609 500 652 500Q728 500 768.50 455Q809 410 792 322L730 0L590 0Z"  horiz-adv-x="832" vert-adv-y="1000"  />

      
      <glyph glyph-name="uni6e" unicode="&#x6e;" d="M300 0L357 293Q365 331 348 350Q331 369 302 369Q271 369 247 350Q223 331 215 293L158 0L18 0L115 496L255 496L248 459L250 459Q273 476 304 488.50Q335 501 363 501Q400 501 430 489.50Q460 478 479 455.50Q498 433 505 399.50Q512 366 503 323L440 0L300 0Z"  horiz-adv-x="540" vert-adv-y="1000"  />

      
      <glyph glyph-name="uni6f" unicode="&#x6f;" d="M306 500Q353 500 389 485.50Q425 471 450 446Q475 421 487.50 387Q500 353 500 314Q500 257 486.50 200Q473 143 441.50 97Q410 51 356.50 22.50Q303-6 224-6Q130-6 83 41.50Q36 89 36 164Q36 230 51.50 291Q67 352 99.50 398.50Q132 445 183 472.50Q234 500 306 500M292 372Q259 372 237.50 353Q216 334 203 306Q190 278 185 246Q180 214 180 188Q180 180 181.50 169Q183 158 189.50 148Q196 138 208.50 131Q221 124 243 124Q272 124 293 141.50Q314 159 327.50 187Q341 215 347 248Q353 281 353 313Q353 342 335.50 357Q318 372 292 372Z"  horiz-adv-x="516" vert-adv-y="1000"  />

      
      <glyph glyph-name="uni70" unicode="&#x70;" d="M257 495L251 460L253 459Q279 482 305 490.50Q331 499 357 499Q400 499 429 486Q458 473 474.50 451.50Q491 430 498 402Q505 374 505 344Q505 283 492.50 221Q480 159 452 108.50Q424 58 378.50 26Q333-6 267-6Q242-6 214 4Q186 14 171 39L169 38L122-202L-18-202L118 495L257 495M303 369Q269 369 249 345Q229 321 218.50 290.50Q208 260 205 231.50Q202 203 202 195Q202 183 204 170Q206 157 212 147Q218 137 228 130.50Q238 124 255 124Q285 124 304.50 144Q324 164 336 192.50Q348 221 353 252.50Q358 284 358 307Q358 333 346.50 351Q335 369 303 369Z"  horiz-adv-x="523" vert-adv-y="1000"  />

      
      <glyph glyph-name="uni71" unicode="&#x71;" d="M275 499Q301 499 328 489.50Q355 480 372 457L375 458L382 495L522 495L386-202L246-202L293 39L291 40Q270 20 240 7Q210-6 186-6Q141-6 112 8Q83 22 66.50 44.50Q50 67 43.50 95Q37 123 37 152Q37 208 49.50 269Q62 330 90.50 381Q119 432 164 465.50Q209 499 275 499M287 368Q252 368 232 345.50Q212 323 201 292.50Q190 262 187 231.50Q184 201 184 186Q184 161 197.50 143Q211 125 240 125Q274 125 293.50 148Q313 171 323.50 201.50Q334 232 337 262.50Q340 293 340 307Q340 333 329 350.50Q318 368 287 368Z"  horiz-adv-x="523" vert-adv-y="1000"  />

      
      <glyph glyph-name="uni72" unicode="&#x72;" d="M305 368Q268 368 247 345.50Q226 323 219 290L160-1L17-1L114 495L254 495L243 439L246 438Q270 465 302.50 482.50Q335 500 368 500Q399 500 420.50 493.50Q442 487 462 469L392 342Q369 358 347 363Q325 368 305 368Z"  horiz-adv-x="402" vert-adv-y="1000"  />

      
      <glyph glyph-name="uni73" unicode="&#x73;" d="M267 500Q291 500 317 497.50Q343 495 369.50 488.50Q396 482 421 470Q446 458 468 440L393 338Q375 351 357 359.50Q339 368 321.50 372Q304 376 289 377.50Q274 379 264 379Q224 379 212 368Q200 357 200 346Q200 337 210 330Q220 323 234.50 318.50Q249 314 265.50 311Q282 308 295 306Q318 302 343.50 294.50Q369 287 391 271.50Q413 256 427 232Q441 208 441 171Q441 124 421 91Q401 58 369.50 36.50Q338 15 299 5Q260-5 223-5Q157-5 101.50 10Q46 25-2 73L77 167Q111 135 145 123Q179 111 221 111Q233 111 245.50 113.50Q258 116 268.50 121Q279 126 286 134Q293 142 293 153Q293 165 281.50 173.50Q270 182 238 188Q214 193 183.50 200.50Q153 208 126 223Q99 238 81 263Q63 288 63 328Q63 374 80.50 406.50Q98 439 127 460Q156 481 192.50 490.50Q229 500 267 500Z"  horiz-adv-x="472" vert-adv-y="1000"  />

      
      <glyph glyph-name="uni74" unicode="&#x74;" d="M243 384L203 175Q197 143 205 133.50Q213 124 235 124L266 124L242 0L166 0Q107 0 74.50 35Q42 70 55 133L103 384L50 384L72 496L125 496L152 632L292 632L265 496L337 496L315 384L243 384Z"  horiz-adv-x="328" vert-adv-y="1000"  />

      
      <glyph glyph-name="uni75" unicode="&#x75;" d="M251 496L194 203Q186 165 203 146Q220 127 249 127Q280 127 304 146Q328 165 336 203L393 496L533 496L437 0L297 0L308 45L306 45Q283 23 249.50 9Q216-5 189-5Q155-5 125.50 6.50Q96 18 76 40.50Q56 63 48 96Q40 129 48 173L111 496L251 496Z"  horiz-adv-x="540" vert-adv-y="1000"  />

      
      <glyph glyph-name="uni76" unicode="&#x76;" d="M537 495Q506 420 474 353.50Q442 287 408.50 227Q375 167 340 111Q305 55 267 0L140 0L46 495L195 495L213 362Q220 313 222.50 262.50Q225 212 227 168L231 168Q277 245 313.50 324Q350 403 386 495L537 495Z"  horiz-adv-x="498" vert-adv-y="1000"  />

      
      <glyph glyph-name="uni77" unicode="&#x77;" d="M773 495Q742 419 712.50 354Q683 289 651.50 229.50Q620 170 585.50 113.50Q551 57 511 0L394 0L381 122Q377 155 375.50 190.50Q374 226 373 271L369 271Q337 193 303 127Q269 61 231 0L108 0L43 495L187 495L197 372Q201 325 202.50 281.50Q204 238 201 183L205 183Q224 216 242.50 254.50Q261 293 278 334Q295 375 310.50 416Q326 457 338 495L465 495L479 372Q482 349 484 330Q486 311 487.50 291.50Q489 272 489.50 250.50Q490 229 490 201L496 201Q528 256 560 334.50Q592 413 619 495L773 495Z"  horiz-adv-x="737" vert-adv-y="1000"  />

      
      <glyph glyph-name="uni78" unicode="&#x78;" d="M296 0L236 142L121 0L-48 0L187 252L55 495L223 495L278 359L385 495L554 495L327 252L465 0L296 0Z"  horiz-adv-x="504" vert-adv-y="1000"  />

      
      <glyph glyph-name="uni79" unicode="&#x79;" d="M516 495Q457 356 402 234.50Q347 113 280 6Q254-35 224.50-73.50Q195-112 157-142Q119-172 71.50-189.50Q24-207-38-207L-43-93Q30-84 71.50-52.50Q113-21 140 33L48 495L198 495L219 370Q221 358 223.50 334.50Q226 311 228 282.50Q230 254 230.50 224Q231 194 229 169L233 169Q268 227 300.50 312.50Q333 398 366 494L516 495Z"  horiz-adv-x="476" vert-adv-y="1000"  />

      
      <glyph glyph-name="uni7a" unicode="&#x7a;" d="M-12 0L11 119L284 373L74 373L97 495L481 495L459 381L187 128L410 128L385 0L-12 0Z"  horiz-adv-x="469" vert-adv-y="1000"  />

      
      <glyph glyph-name="uni7b" unicode="&#x7b;" d="M169 299Q198 285 210.50 256Q223 227 215 184L192 66Q190 57 188.50 46.50Q187 36 189 27Q191 18 198 12.50Q205 7 220 7L260 7L240-93L155-93Q123-93 101.50-82Q80-71 67.50-52.50Q55-34 52-9Q49 16 55 44L78 162Q94 249 20 249L40 353Q115 356 133 443L158 572Q163 600 176.50 623Q190 646 209 662Q228 678 251 687Q274 696 298 696L394 696L374 595L334 595Q312 595 299.50 575.50Q287 556 284 537L261 420Q253 376 226 347.50Q199 319 170 304L169 299Z"  horiz-adv-x="308" vert-adv-y="1000"  />

      
      <glyph glyph-name="uni7c" unicode="&#x7c;" d="M67-228L67 730L191 730L191-228L67-228Z"  horiz-adv-x="259" vert-adv-y="1000"  />

      
      <glyph glyph-name="uni7d" unicode="&#x7d;" d="M176 305Q153 320 138.50 348.50Q124 377 132 420L154 537Q156 546 156.50 556.50Q157 567 154 575.50Q151 584 142 589.50Q133 595 117 595L86 595L106 696L202 696Q259 696 282 662.50Q305 629 294 572L269 443Q251 356 327 353L306 249Q232 249 214 162L189 31Q183 3 169.50-20Q156-43 137-59Q118-75 95-84Q72-93 48-93L-47-93L-28 7L12 7Q27 7 36 12.50Q45 18 50.50 27Q56 36 58.50 46.50Q61 57 63 66L86 184Q94 226 117.50 255Q141 284 175 298L176 305Z"  horiz-adv-x="308" vert-adv-y="1000"  />

      
      <glyph glyph-name="uni7e" unicode="&#x7e;" d="M207 350Q230 350 251 341Q272 332 291 322Q310 312 327 303.50Q344 295 358 295Q378 295 402.50 310.50Q427 326 453 358L518 304Q481 238 440.50 210Q400 182 358 182Q334 182 312.50 190.50Q291 199 271 208.50Q251 218 233 226.50Q215 235 199 235Q179 235 156 221.50Q133 208 101 175L35 226Q74 294 116.50 322Q159 350 207 350Z"  horiz-adv-x="550" vert-adv-y="1000"  />

      
      <glyph glyph-name="unic4" unicode="&#xc4;" d="M449 0L427 149L203 149L120 0L-42 0L350 696L481 696L606 0L449 0M397 365L383 503L380 503L315 367L272 278L408 278L397 365M464 744L490 877L642 877L616 744L464 744M249 744L275 877L428 877L402 744L249 744Z"  horiz-adv-x="646" vert-adv-y="1000"  />

      
      <glyph glyph-name="unic5" unicode="&#xc5;" d="M449 0L427 149L203 149L120 0L-42 0L350 696L481 696L606 0L449 0M397 365L383 503L380 503L315 367L272 278L408 278L397 365M436 783Q453 783 469 795.50Q485 808 485 828Q485 841 475.50 849.50Q466 858 451 858Q430 858 416 845Q402 832 402 813Q402 800 411.50 791.50Q421 783 436 783M426 705Q403 705 383.50 712Q364 719 349 732Q334 745 325.50 762.50Q317 780 317 800Q317 827 327 852Q337 877 355.50 896Q374 915 400 926Q426 937 458 937Q481 937 501.50 929.50Q522 922 537 909.50Q552 897 561 879.50Q570 862 570 841Q570 814 560 789Q550 764 531.50 745.50Q513 727 486.50 716Q460 705 426 705Z"  horiz-adv-x="646" vert-adv-y="1000"  />

      
      <glyph glyph-name="unic7" unicode="&#xc7;" d="M244-4Q187 2 146.50 26Q106 50 83 86.50Q60 123 53 169Q46 215 56 266L88 430Q98 484 121 533Q144 582 181 619.50Q218 657 271 679Q324 701 395 701Q494 701 549.50 654.50Q605 608 628 526L486 471Q483 486 475 502Q467 518 454 530.50Q441 543 423 551.50Q405 560 381 560Q348 560 324.50 550Q301 540 285 523.50Q269 507 259.50 486Q250 465 246 444L209 255Q204 232 207.50 211Q211 190 222 174Q233 158 253 148Q273 138 302 138Q349 138 381 161.50Q413 185 429 223L572 167Q537 92 472.50 47Q408 2 315-5L299-36Q345-41 361.50-63.50Q378-86 378-114Q378-135 368.50-154Q359-173 341.50-188Q324-203 299-211.50Q274-220 243-220Q211-220 181.50-212.50Q152-205 132-191L169-129Q192-141 207.50-144Q223-147 240-147Q257-147 271.50-139.50Q286-132 286-113Q286-102 278.50-97.50Q271-93 262-93Q252-93 242-97L207-77L244-4Z"  horiz-adv-x="600" vert-adv-y="1000"  />

      
      <glyph glyph-name="unic9" unicode="&#xc9;" d="M29 0L164 696L634 696L608 561L289 561L260 417L543 417L517 284L234 284L206 138L541 138L515 0L29 0M323 783L517 922L615 833L382 726L323 783Z"  horiz-adv-x="573" vert-adv-y="1000"  />

      
      <glyph glyph-name="unid1" unicode="&#xd1;" d="M456 0L331 271L263 430L261 429L179 0L29 0L164 696L298 696L399 470L490 262L492 262L575 696L725 696L590 0L456 0M398 883Q417 883 436.50 875Q456 867 473.50 858Q491 849 506.50 841.50Q522 834 534 834Q551 834 568 845Q585 856 610 882L672 844Q640 782 607.50 757.50Q575 733 534 733Q514 733 495 740.50Q476 748 459 756.50Q442 765 426.50 772.50Q411 780 397 780Q380 780 360.50 769.50Q341 759 314 730L255 769Q289 833 324 858Q359 883 398 883Z"  horiz-adv-x="696" vert-adv-y="1000"  />

      
      <glyph glyph-name="unid6" unicode="&#xd6;" d="M380 701Q446 701 497 680.50Q548 660 580.50 624Q613 588 625 538Q637 488 626 430L594 266Q582 204 560 153.50Q538 103 502.50 67.50Q467 32 417 13Q367-6 300-6Q225-6 173 16Q121 38 90.50 75.50Q60 113 50.50 162.50Q41 212 52 266L84 430Q94 484 114.50 533Q135 582 169.50 619.50Q204 657 255.50 679Q307 701 380 701M370 566Q338 566 316 555.50Q294 545 279.50 528Q265 511 256.50 489.50Q248 468 244 447L204 249Q200 229 201.50 208.50Q203 188 214 171Q225 154 247 143Q269 132 307 132Q337 132 359 141Q381 150 396 166Q411 182 420 203.50Q429 225 434 249L474 451Q478 474 473 495Q468 516 454.50 531.50Q441 547 419.50 556.50Q398 566 370 566M450 744L476 877L628 877L602 744L450 744M235 744L261 877L414 877L388 744L235 744Z"  horiz-adv-x="624" vert-adv-y="1000"  />

      
      <glyph glyph-name="unidc" unicode="&#xdc;" d="M595 243Q584 187 560 141.50Q536 96 499 63.50Q462 31 412 13Q362-5 298-5Q243-5 195.50 13.50Q148 32 115.50 65.50Q83 99 68.50 146.50Q54 194 66 252L152 696L302 696L218 260Q207 200 234 167.50Q261 135 309 135Q359 135 397.50 164Q436 193 447 251L533 696L683 696L595 243M464 744L490 877L642 877L616 744L464 744M249 744L275 877L428 877L402 744L249 744Z"  horiz-adv-x="644" vert-adv-y="1000"  />

      
      <glyph glyph-name="uni0385" unicode="&#x0385;" d="M473 569L499 699L638 699L613 569L473 569M98 569L123 699L262 699L237 569L98 569M253 567L377 770L502 727L330 537L253 567Z"  horiz-adv-x="616" vert-adv-y="1000"  />

      
      <glyph glyph-name="unie0" unicode="&#xe0;" d="M274 500Q297 500 325 491Q353 482 373 459L375 460L382 495L522 495L426 0L286 0L294 39L291 40Q282 31 269 22.50Q256 14 241 8Q226 2 211-2Q196-6 184-6Q139-6 110.50 7.50Q82 21 66.50 43.50Q51 66 45.50 94.50Q40 123 40 153Q40 210 51.50 271Q63 332 90.50 383Q118 434 163 467Q208 500 274 500M184 183Q184 160 196 142.50Q208 125 240 125Q268 125 287.50 144.50Q307 164 319 191.50Q331 219 336 248.50Q341 278 341 298Q341 312 339 325Q337 338 331.50 347.50Q326 357 315.50 362.50Q305 368 288 368Q258 368 238 348Q218 328 206 299Q194 270 189 238.50Q184 207 184 183M334 537L159 725L283 770L404 580L334 537Z"  horiz-adv-x="523" vert-adv-y="1000"  />

      
      <glyph glyph-name="unie2" unicode="&#xe2;" d="M274 500Q297 500 325 491Q353 482 373 459L375 460L382 495L522 495L426 0L286 0L294 39L291 40Q282 31 269 22.50Q256 14 241 8Q226 2 211-2Q196-6 184-6Q139-6 110.50 7.50Q82 21 66.50 43.50Q51 66 45.50 94.50Q40 123 40 153Q40 210 51.50 271Q63 332 90.50 383Q118 434 163 467Q208 500 274 500M184 183Q184 160 196 142.50Q208 125 240 125Q268 125 287.50 144.50Q307 164 319 191.50Q331 219 336 248.50Q341 278 341 298Q341 312 339 325Q337 338 331.50 347.50Q326 357 315.50 362.50Q305 368 288 368Q258 368 238 348Q218 328 206 299Q194 270 189 238.50Q184 207 184 183M338 629L173 526L129 574L306 729L409 729L527 574L462 525L338 629Z"  horiz-adv-x="523" vert-adv-y="1000"  />

      
      <glyph glyph-name="unie4" unicode="&#xe4;" d="M274 500Q297 500 325 491Q353 482 373 459L375 460L382 495L522 495L426 0L286 0L294 39L291 40Q282 31 269 22.50Q256 14 241 8Q226 2 211-2Q196-6 184-6Q139-6 110.50 7.50Q82 21 66.50 43.50Q51 66 45.50 94.50Q40 123 40 153Q40 210 51.50 271Q63 332 90.50 383Q118 434 163 467Q208 500 274 500M184 183Q184 160 196 142.50Q208 125 240 125Q268 125 287.50 144.50Q307 164 319 191.50Q331 219 336 248.50Q341 278 341 298Q341 312 339 325Q337 338 331.50 347.50Q326 357 315.50 362.50Q305 368 288 368Q258 368 238 348Q218 328 206 299Q194 270 189 238.50Q184 207 184 183M359 569L384 699L530 699L505 569L359 569M145 569L170 699L315 699L290 569L145 569Z"  horiz-adv-x="523" vert-adv-y="1000"  />

      
      <glyph glyph-name="uni0384" unicode="&#x0384;" d="M253 567L377 770L502 727L330 537L253 567Z"  horiz-adv-x="516" vert-adv-y="1000"  />

      
      <glyph glyph-name="unia8" unicode="&#xa8;" d="M359 569L384 699L530 699L505 569L359 569M145 569L170 699L315 699L290 569L145 569Z"  horiz-adv-x="505" vert-adv-y="1000"  />

      
      <glyph glyph-name="unie7" unicode="&#xe7;" d="M191-3Q157 0 127.50 13.50Q98 27 76 51.50Q54 76 41 112Q28 148 28 197Q28 276 51.50 333.50Q75 391 112.50 428Q150 465 198 482.50Q246 500 296 500Q346 500 389.50 481.50Q433 463 465 428L365 331Q348 353 329 362.50Q310 372 292 372Q269 372 247.50 362.50Q226 353 209.50 333Q193 313 183 280.50Q173 248 173 203Q173 161 191.50 142.50Q210 124 248 124Q267 124 287.50 133.50Q308 143 335 166L409 68Q335 11 264-1L246-36Q292-41 308.50-63.50Q325-86 325-114Q325-135 315.50-154Q306-173 288.50-188Q271-203 246-211.50Q221-220 190-220Q158-220 128.50-212.50Q99-205 79-191L116-129Q139-141 154.50-144Q170-147 187-147Q204-147 218.50-139.50Q233-132 233-113Q233-102 225.50-97.50Q218-93 209-93Q199-93 189-97L154-77L191-3Z"  horiz-adv-x="440" vert-adv-y="1000"  />

      
      <glyph glyph-name="unie9" unicode="&#xe9;" d="M298 501Q351 501 387 489Q423 477 445.50 457.50Q468 438 477.50 413Q487 388 487 363Q487 313 463 280.50Q439 248 401.50 228.50Q364 209 317.50 201Q271 193 226 193Q215 193 205 193Q195 193 185 194Q184 189 184 185.50Q184 182 184 178Q184 161 190 150Q196 139 206 133Q216 127 229.50 124.50Q243 122 259 122Q278 122 307.50 129.50Q337 137 376 160L436 55Q403 34 373 22Q343 10 316 4Q289-2 264.50-3.50Q240-5 217-5Q182-5 149 3.50Q116 12 91 33Q66 54 51 89Q36 124 36 177Q36 238 50 296.50Q64 355 95.50 400.50Q127 446 176.50 473.50Q226 501 298 501M292 373Q265 373 241.50 353Q218 333 206 300Q215 299 223 299Q231 299 239 299Q268 299 287.50 303Q307 307 318.50 313.50Q330 320 334.50 328Q339 336 339 343Q339 357 328.50 365Q318 373 292 373M247 567L371 770L496 727L324 537L247 567Z"  horiz-adv-x="505" vert-adv-y="1000"  />

      
      <glyph glyph-name="unie8" unicode="&#xe8;" d="M298 501Q351 501 387 489Q423 477 445.50 457.50Q468 438 477.50 413Q487 388 487 363Q487 313 463 280.50Q439 248 401.50 228.50Q364 209 317.50 201Q271 193 226 193Q215 193 205 193Q195 193 185 194Q184 189 184 185.50Q184 182 184 178Q184 161 190 150Q196 139 206 133Q216 127 229.50 124.50Q243 122 259 122Q278 122 307.50 129.50Q337 137 376 160L436 55Q403 34 373 22Q343 10 316 4Q289-2 264.50-3.50Q240-5 217-5Q182-5 149 3.50Q116 12 91 33Q66 54 51 89Q36 124 36 177Q36 238 50 296.50Q64 355 95.50 400.50Q127 446 176.50 473.50Q226 501 298 501M292 373Q265 373 241.50 353Q218 333 206 300Q215 299 223 299Q231 299 239 299Q268 299 287.50 303Q307 307 318.50 313.50Q330 320 334.50 328Q339 336 339 343Q339 357 328.50 365Q318 373 292 373M327 537L152 725L276 770L397 580L327 537Z"  horiz-adv-x="505" vert-adv-y="1000"  />

      
      <glyph glyph-name="uniea" unicode="&#xea;" d="M298 501Q351 501 387 489Q423 477 445.50 457.50Q468 438 477.50 413Q487 388 487 363Q487 313 463 280.50Q439 248 401.50 228.50Q364 209 317.50 201Q271 193 226 193Q215 193 205 193Q195 193 185 194Q184 189 184 185.50Q184 182 184 178Q184 161 190 150Q196 139 206 133Q216 127 229.50 124.50Q243 122 259 122Q278 122 307.50 129.50Q337 137 376 160L436 55Q403 34 373 22Q343 10 316 4Q289-2 264.50-3.50Q240-5 217-5Q182-5 149 3.50Q116 12 91 33Q66 54 51 89Q36 124 36 177Q36 238 50 296.50Q64 355 95.50 400.50Q127 446 176.50 473.50Q226 501 298 501M292 373Q265 373 241.50 353Q218 333 206 300Q215 299 223 299Q231 299 239 299Q268 299 287.50 303Q307 307 318.50 313.50Q330 320 334.50 328Q339 336 339 343Q339 357 328.50 365Q318 373 292 373M330 629L165 526L121 574L298 729L401 729L519 574L454 525L330 629Z"  horiz-adv-x="505" vert-adv-y="1000"  />

      
      <glyph glyph-name="unieb" unicode="&#xeb;" d="M298 501Q351 501 387 489Q423 477 445.50 457.50Q468 438 477.50 413Q487 388 487 363Q487 313 463 280.50Q439 248 401.50 228.50Q364 209 317.50 201Q271 193 226 193Q215 193 205 193Q195 193 185 194Q184 189 184 185.50Q184 182 184 178Q184 161 190 150Q196 139 206 133Q216 127 229.50 124.50Q243 122 259 122Q278 122 307.50 129.50Q337 137 376 160L436 55Q403 34 373 22Q343 10 316 4Q289-2 264.50-3.50Q240-5 217-5Q182-5 149 3.50Q116 12 91 33Q66 54 51 89Q36 124 36 177Q36 238 50 296.50Q64 355 95.50 400.50Q127 446 176.50 473.50Q226 501 298 501M292 373Q265 373 241.50 353Q218 333 206 300Q215 299 223 299Q231 299 239 299Q268 299 287.50 303Q307 307 318.50 313.50Q330 320 334.50 328Q339 336 339 343Q339 357 328.50 365Q318 373 292 373M359 569L384 699L530 699L505 569L359 569M145 569L170 699L315 699L290 569L145 569Z"  horiz-adv-x="505" vert-adv-y="1000"  />

      
      <glyph glyph-name="unia3" unicode="&#xa3;" d="M461 492Q448 517 425 538.50Q402 560 362 560Q321 560 298.50 540.50Q276 521 276 486Q276 462 284 436Q292 410 293 371L434 371L413 267L273 267Q262 229 245.50 192Q229 155 207 125L491 125L467 0L-5 0L15 108Q53 147 76.50 183Q100 219 114 267L41 267L62 371L127 371Q123 403 118 431.50Q113 460 113 486Q113 516 124.50 553.50Q136 591 164 623.50Q192 656 240 678Q288 700 360 700Q447 700 506.50 665.50Q566 631 595 567L461 492Z"  horiz-adv-x="550" vert-adv-y="1000"  />

      
      <glyph glyph-name="uni2122" unicode="&#x2122;" d="M733 274L731 452L674 329L595 329L537 453L537 274L436 274L436 695L528 695L636 462L738 695L834 695L834 274L733 274M266 600L266 274L161 274L161 600L37 600L37 696L390 696L390 600L266 600Z"  horiz-adv-x="916" vert-adv-y="1000"  />

      
      <glyph glyph-name="uniee" unicode="&#xee;" d="M44 0L140 495L280 495L184 0L44 0M244 629L79 526L35 574L212 729L315 729L433 574L368 525L244 629Z"  horiz-adv-x="312" vert-adv-y="1000"  />

      
      <glyph glyph-name="unief" unicode="&#xef;" d="M44 0L140 495L280 495L184 0L44 0M264 569L289 699L435 699L410 569L264 569M50 569L75 699L220 699L195 569L50 569Z"  horiz-adv-x="314" vert-adv-y="1000"  />

      
      <glyph glyph-name="uni2022" unicode="&#x2022;" d="M94 282Q94 315 106.50 343.50Q119 372 140.50 393.50Q162 415 190.50 427.50Q219 440 252 440Q285 440 313.50 427.50Q342 415 363.50 393.50Q385 372 397.50 343.50Q410 315 410 282Q410 249 397.50 220.50Q385 192 363.50 170.50Q342 149 313.50 136.50Q285 124 252 124Q219 124 190.50 136.50Q162 149 140.50 170.50Q119 192 106.50 220.50Q94 249 94 282Z"  horiz-adv-x="477" vert-adv-y="1000"  />

      
      <glyph glyph-name="unif4" unicode="&#xf4;" d="M306 500Q353 500 389 485.50Q425 471 450 446Q475 421 487.50 387Q500 353 500 314Q500 257 486.50 200Q473 143 441.50 97Q410 51 356.50 22.50Q303-6 224-6Q130-6 83 41.50Q36 89 36 164Q36 230 51.50 291Q67 352 99.50 398.50Q132 445 183 472.50Q234 500 306 500M292 372Q259 372 237.50 353Q216 334 203 306Q190 278 185 246Q180 214 180 188Q180 180 181.50 169Q183 158 189.50 148Q196 138 208.50 131Q221 124 243 124Q272 124 293 141.50Q314 159 327.50 187Q341 215 347 248Q353 281 353 313Q353 342 335.50 357Q318 372 292 372M338 629L173 526L129 574L306 729L409 729L527 574L462 525L338 629Z"  horiz-adv-x="516" vert-adv-y="1000"  />

      
      <glyph glyph-name="unif6" unicode="&#xf6;" d="M306 500Q353 500 389 485.50Q425 471 450 446Q475 421 487.50 387Q500 353 500 314Q500 257 486.50 200Q473 143 441.50 97Q410 51 356.50 22.50Q303-6 224-6Q130-6 83 41.50Q36 89 36 164Q36 230 51.50 291Q67 352 99.50 398.50Q132 445 183 472.50Q234 500 306 500M292 372Q259 372 237.50 353Q216 334 203 306Q190 278 185 246Q180 214 180 188Q180 180 181.50 169Q183 158 189.50 148Q196 138 208.50 131Q221 124 243 124Q272 124 293 141.50Q314 159 327.50 187Q341 215 347 248Q353 281 353 313Q353 342 335.50 357Q318 372 292 372M359 572L384 702L530 702L505 572L359 572M145 572L170 702L315 702L290 572L145 572Z"  horiz-adv-x="516" vert-adv-y="1000"  />

      
      <glyph glyph-name="uniad" unicode="&#xad;" d="M44 192L69 323L408 323L382 192L44 192Z"  horiz-adv-x="431" vert-adv-y="1000"  />

      
      <glyph glyph-name="unif9" unicode="&#xf9;" d="M256 496L199 203Q191 165 208 146Q225 127 254 127Q285 127 309 146Q333 165 341 203L398 496L538 496L442 0L302 0L313 45L311 45Q288 23 254.50 9Q221-5 194-5Q160-5 130.50 6.50Q101 18 81 40.50Q61 63 53 96Q45 129 53 173L116 496L256 496M330 537L155 725L279 770L400 580L330 537Z"  horiz-adv-x="540" vert-adv-y="1000"  />

      
      <glyph glyph-name="unifb" unicode="&#xfb;" d="M256 496L199 203Q191 165 208 146Q225 127 254 127Q285 127 309 146Q333 165 341 203L398 496L538 496L442 0L302 0L313 45L311 45Q288 23 254.50 9Q221-5 194-5Q160-5 130.50 6.50Q101 18 81 40.50Q61 63 53 96Q45 129 53 173L116 496L256 496M348 629L183 526L139 574L316 729L419 729L537 574L472 525L348 629Z"  horiz-adv-x="540" vert-adv-y="1000"  />

      
      <glyph glyph-name="unifc" unicode="&#xfc;" d="M256 496L199 203Q191 165 208 146Q225 127 254 127Q285 127 309 146Q333 165 341 203L398 496L538 496L442 0L302 0L313 45L311 45Q288 23 254.50 9Q221-5 194-5Q160-5 130.50 6.50Q101 18 81 40.50Q61 63 53 96Q45 129 53 173L116 496L256 496M365 569L390 699L536 699L511 569L365 569M151 569L176 699L321 699L296 569L151 569Z"  horiz-adv-x="540" vert-adv-y="1000"  />

      
      <glyph glyph-name="uni2020" unicode="&#x2020;" d="M348 357L246-169L108-169L210 357L48 357L70 473L233 473L276 696L414 696L371 473L534 473L511 357L348 357Z"  horiz-adv-x="500" vert-adv-y="1000"  />

      
      <glyph glyph-name="uni0393" unicode="&#x0393;" d="M288 558L179 0L29 0L164 696L646 696L619 558L288 558Z"  horiz-adv-x="555" vert-adv-y="1000"  />

      
      <glyph glyph-name="uni0394" unicode="&#x0394;" d="M-42 0L358 696L477 696L606 0L-42 0M402 322L384 507L378 507L288 322L190 133L426 133L402 322Z"  horiz-adv-x="648" vert-adv-y="1000"  />

      
      <glyph glyph-name="uni2206" unicode="&#x2206;" d="M-42 0L358 696L477 696L606 0L-42 0M402 322L384 507L378 507L288 322L190 133L426 133L402 322Z"  horiz-adv-x="648" vert-adv-y="1000"  />

      
      <glyph glyph-name="uni0398" unicode="&#x0398;" d="M396 701Q459 701 507 680.50Q555 660 585 624Q615 588 626 538Q637 488 626 430L594 266Q582 204 556.50 153.50Q531 103 491.50 67.50Q452 32 398.50 13Q345-6 278-6Q210-6 162.50 16Q115 38 87 75.50Q59 113 50 162.50Q41 212 52 266L84 430Q94 484 119 533Q144 582 183 619.50Q222 657 275 679Q328 701 396 701M377 557Q348 557 325 547.50Q302 538 285 522Q268 506 257 485.50Q246 465 242 444L205 255Q200 232 203.50 211Q207 190 218 174Q229 158 249 148Q269 138 298 138Q354 138 389.50 171.50Q425 205 435 255L472 444Q476 467 472.50 487.50Q469 508 457 523.50Q445 539 425 548Q405 557 377 557M265 408L435 408L408 284L238 284L265 408Z"  horiz-adv-x="624" vert-adv-y="1000"  />

      
      <glyph glyph-name="uni039B" unicode="&#x039B;" d="M437 0L404 225L370 488L365 488L230 228L107 0L-51 0L348 696L467 696L596 0L437 0Z"  horiz-adv-x="625" vert-adv-y="1000"  />

      
      <glyph glyph-name="uni039E" unicode="&#x039E;" d="M120 558L147 696L638 696L611 558L120 558M117 284L143 417L533 417L507 284L117 284M9 0L35 138L534 138L507 0L9 0Z"  horiz-adv-x="597" vert-adv-y="1000"  />

      
      <glyph glyph-name="uni03A0" unicode="&#x03A0;" d="M402 0L513 562L289 562L179 0L29 0L164 696L687 696L552 0L402 0Z"  horiz-adv-x="661" vert-adv-y="1000"  />

      
      <glyph glyph-name="unidf" unicode="&#xdf;" d="M220-3L243 119L261 119Q285 119 306 131Q327 143 342 164Q357 185 366 213.50Q375 242 375 274Q375 301 363.50 323.50Q352 346 315 351L334 455Q368 459 387.50 483Q407 507 407 539Q407 549 403.50 560Q400 571 392.50 580Q385 589 372.50 595Q360 601 341 601Q321 601 307 594.50Q293 588 283.50 578Q274 568 268.50 555Q263 542 260 530L160 0L17 0L115 517Q135 617 197 669.50Q259 722 355 722Q402 722 437.50 709Q473 696 497 674Q521 652 533.50 624Q546 596 546 565Q546 517 521 476Q496 435 451 415L451 412Q470 404 484.50 389Q499 374 509 354.50Q519 335 523.50 314Q528 293 528 273Q528 216 507.50 165.50Q487 115 451.50 77.50Q416 40 367 18.50Q318-3 261-3L220-3Z"  horiz-adv-x="555" vert-adv-y="1000"  />

      
      <glyph glyph-name="uniae" unicode="&#xae;" d="M263 457L234 457L234 364L182 364L182 608L279 608Q311 608 334 588.50Q357 569 357 534Q357 514 347.50 496.50Q338 479 317 466L364 364L305 364L263 457M234 558L234 506L277 506Q291 506 299 513.50Q307 521 307 534Q307 558 279 558L234 558M265 269Q218 269 178 285.50Q138 302 108.50 330.50Q79 359 62 398.50Q45 438 45 484Q45 530 63 570Q81 610 111 639Q141 668 181 684.50Q221 701 265 701Q312 701 352.50 684.50Q393 668 422.50 639Q452 610 469 570Q486 530 486 484Q486 438 468 398.50Q450 359 419.50 330.50Q389 302 349 285.50Q309 269 265 269M265 650Q230 650 200 637.50Q170 625 147.50 602.50Q125 580 112.50 549.50Q100 519 100 484Q100 449 112.50 419Q125 389 147.50 366.50Q170 344 200 331Q230 318 265 318Q300 318 330 331Q360 344 382 366.50Q404 389 416.50 419Q429 449 429 484Q429 519 416.50 549.50Q404 580 382 602.50Q360 625 330 637.50Q300 650 265 650Z"  horiz-adv-x="526" vert-adv-y="1000"  />

      
      <glyph glyph-name="unia9" unicode="&#xa9;" d="M411-16Q336-16 271 10Q206 36 158 83Q110 130 83 196Q56 262 56 342Q56 420 83 486Q110 552 158 600Q206 648 271 675Q336 702 411 702Q486 702 551 675.50Q616 649 664 601Q712 553 739 487Q766 421 766 342Q766 264 739 198.50Q712 133 664 85Q616 37 551 10.50Q486-16 411-16M411 623Q354 623 305 601.50Q256 580 220.50 542Q185 504 164.50 453Q144 402 144 342Q144 282 164.50 231Q185 180 220.50 142.50Q256 105 305 83.50Q354 62 411 62Q468 62 517 83.50Q566 105 601.50 142.50Q637 180 657.50 231Q678 282 678 342Q678 404 657.50 456Q637 508 601.50 545Q566 582 517 602.50Q468 623 411 623M576 221Q560 168 517.50 139Q475 110 412 110Q369 110 337 123Q305 136 284 158.50Q263 181 252.50 212.50Q242 244 242 282L242 385Q242 419 252.50 450Q263 481 284 505Q305 529 337 543Q369 557 412 557Q475 557 517.50 526.50Q560 496 576 445L484 412Q479 435 460.50 450.50Q442 466 411 466Q374 466 357 444Q340 422 340 394L340 275Q340 246 357 223.50Q374 201 411 201Q440 201 459.50 216.50Q479 232 484 257L576 221Z"  horiz-adv-x="820" vert-adv-y="1000"  />

      
      <glyph glyph-name="uni03A3" unicode="&#x03A3;" d="M-12 0L15 142L207 357L95 558L122 696L591 696L564 558L276 558L387 358L198 142L497 142L469 0L-12 0Z"  horiz-adv-x="538" vert-adv-y="1000"  />

      
      <glyph glyph-name="uni03AA" unicode="&#x03AA;" d="M26 0L161 696L312 696L176 0L26 0M271 744L297 877L449 877L423 744L271 744M56 744L82 877L235 877L209 744L56 744Z"  horiz-adv-x="288" vert-adv-y="1000"  />

      
      <glyph glyph-name="unia7" unicode="&#xa7;" d="M401 189Q419 175 430.50 153.50Q442 132 442 109Q442 56 421.50 19.50Q401-17 368-40.50Q335-64 292.50-74.50Q250-85 206-85Q146-85 91-63Q36-41 1-1L88 93Q113 65 146 48.50Q179 32 211 32Q256 32 280 49Q304 66 304 93Q304 108 286 120.50Q268 133 218 148Q186 157 158.50 170.50Q131 184 110.50 202.50Q90 221 78.50 244.50Q67 268 67 298Q67 318 73.50 338.50Q80 359 92 376.50Q104 394 121 407Q138 420 159 426Q141 443 130 469Q119 495 119 521Q119 563 137 596.50Q155 630 185.50 652.50Q216 675 255 687Q294 699 336 699Q396 699 447.50 687.50Q499 676 540 640L463 543Q428 566 394 574Q360 582 327 582Q288 582 271 565Q254 548 254 530Q254 516 268 506Q282 496 301.50 489Q321 482 340.50 476.50Q360 471 372 466Q388 458 409 448.50Q430 439 448.50 423Q467 407 479.50 383Q492 359 492 323Q492 299 483.50 277Q475 255 462 237.50Q449 220 432.50 207.50Q416 195 401 189M273 354Q262 357 251.50 360Q241 363 232 367Q215 361 207 349.50Q199 338 199 324Q199 310 211.50 301Q224 292 243.50 285Q263 278 287 271Q311 264 334 255Q345 261 352 271.50Q359 282 359 299Q359 314 341 327Q323 340 273 354Z"  horiz-adv-x="510" vert-adv-y="1000"  />

      
      <glyph glyph-name="unib0" unicode="&#xb0;" d="M380 548Q380 516 367 488Q354 460 332 439Q310 418 280 406Q250 394 216 394Q182 394 152.50 406Q123 418 101 439Q79 460 66 488Q53 516 53 548Q53 579 66 607Q79 635 101 656Q123 677 152.50 689Q182 701 216 701Q250 701 280 689Q310 677 332 656Q354 635 367 607Q380 579 380 548M281 548Q281 574 262 591.50Q243 609 216 609Q190 609 170.50 591.50Q151 574 151 548Q151 522 170.50 504Q190 486 216 486Q243 486 262 504Q281 522 281 548Z"  horiz-adv-x="433" vert-adv-y="1000"  />

      
      <glyph glyph-name="unib7" unicode="&#xb7;" d="M70 200L102 365L267 365L235 200L70 200Z"  horiz-adv-x="297" vert-adv-y="1000"  />

      
      <glyph glyph-name="uni0391" unicode="&#x0391;" d="M449 0L427 149L203 149L120 0L-42 0L350 696L481 696L606 0L449 0M397 365L383 503L380 503L315 367L272 278L408 278L397 365Z"  horiz-adv-x="646" vert-adv-y="1000"  />

      
      <glyph glyph-name="unib1" unicode="&#xb1;" d="M359 320L325 147L201 147L235 320L40 320L62 436L257 436L293 618L417 618L381 436L576 436L554 320L359 320M-26 0L-5 113L517 113L496 0L-26 0Z"  horiz-adv-x="550" vert-adv-y="1000"  />

      
      <glyph glyph-name="unia5" unicode="&#xa5;" d="M207 241L216 283L74 283L89 365L187 365L82 696L247 696L289 531L312 407L316 407L386 533L493 696L658 696L422 365L523 365L508 283L363 283L354 241L499 241L483 159L338 159L308 0L161 0L191 159L49 159L65 241L207 241Z"  horiz-adv-x="550" vert-adv-y="1000"  />

      
      <glyph glyph-name="uni0392" unicode="&#x0392;" d="M431 696Q532 696 583.50 652Q635 608 635 526Q635 504 629.50 481Q624 458 611.50 436Q599 414 578 395Q557 376 526 363L525 359Q564 340 583 300.50Q602 261 602 219Q602 165 579 124Q556 83 519.50 55.50Q483 28 438 14Q393 0 350 0L25 0L160 696L431 696M290 561L261 419L371 419Q424 419 449 444.50Q474 470 474 502Q474 526 457.50 543.50Q441 561 400 561L290 561M236 292L206 138L337 138Q364 138 384 146Q404 154 416.50 167.50Q429 181 435.50 197.50Q442 214 442 232Q442 256 425.50 274Q409 292 367 292L236 292Z"  horiz-adv-x="625" vert-adv-y="1000"  />

      
      <glyph glyph-name="uni0395" unicode="&#x0395;" d="M29 0L164 696L634 696L608 561L289 561L260 417L543 417L517 284L234 284L206 138L541 138L515 0L29 0Z"  horiz-adv-x="573" vert-adv-y="1000"  />

      
      <glyph glyph-name="uni0396" unicode="&#x0396;" d="M-12 0L13 128L397 563L110 563L135 696L605 696L581 573L197 138L496 138L469 0L-12 0Z"  horiz-adv-x="538" vert-adv-y="1000"  />

      
      <glyph glyph-name="uni0397" unicode="&#x0397;" d="M402 0L458 284L234 284L179 0L29 0L164 696L314 696L260 417L484 417L538 696L687 696L552 0L402 0Z"  horiz-adv-x="661" vert-adv-y="1000"  />

      
      <glyph glyph-name="uni0399" unicode="&#x0399;" d="M26 0L161 696L312 696L176 0L26 0Z"  horiz-adv-x="288" vert-adv-y="1000"  />

      
      <glyph glyph-name="uni039A" unicode="&#x039A;" d="M455 0L331 301L217 194L179 0L29 0L164 696L314 696L259 407L261 405L392 539L562 696L745 696L451 414L624 0L455 0Z"  horiz-adv-x="644" vert-adv-y="1000"  />

      
      <glyph glyph-name="uni039C" unicode="&#x039C;" d="M517 0L581 331L578 332L489 191L424 93L308 93L280 196L247 332L243 329L179 0L29 0L164 696L300 696L353 494L400 285L404 285L530 494L660 696L802 696L667 0L517 0Z"  horiz-adv-x="767" vert-adv-y="1000"  />

      
      <glyph glyph-name="uni03A6" unicode="&#x03A6;" d="M414 0L274 0L286 64Q230 70 189 90Q148 110 121 140Q94 170 81 208.50Q68 247 68 290Q68 362 91.50 426.50Q115 491 158.50 540.50Q202 590 263.50 619Q325 648 400 650L409 696L549 696L540 650Q649 642 705 580Q761 518 761 419Q761 342 737.50 279Q714 216 670.50 169.50Q627 123 565 95.50Q503 68 426 64L414 0M617 415Q617 434 611.50 453.50Q606 473 594 489Q582 505 563 515.50Q544 526 516 528L450 185Q496 191 528 212.50Q560 234 579.50 265Q599 296 608 335Q617 374 617 415M376 526Q332 523 300.50 501Q269 479 249 446.50Q229 414 220 375Q211 336 211 298Q211 253 236.50 223.50Q262 194 310 185L376 526Z"  horiz-adv-x="767" vert-adv-y="1000"  />

      
      <glyph glyph-name="uni03AB" unicode="&#x03AB;" d="M386 285L331 0L186 0L242 285L103 696L264 696L305 546L337 411L341 411L425 545L524 696L686 696L386 285M434 744L460 877L612 877L586 744L434 744M219 744L245 877L398 877L372 744L219 744Z"  horiz-adv-x="593" vert-adv-y="1000"  />

      
      <glyph glyph-name="uni03A8" unicode="&#x03A8;" d="M734 391Q723 338 701.50 293Q680 248 645 215.50Q610 183 559 164Q508 145 439 144L413 0L263 0L289 144Q174 162 123 233.50Q72 305 94 416L151 696L296 696L238 403Q227 352 245 321Q263 290 315 281L398 696L548 696L466 281Q513 282 546 312.50Q579 343 589 394L650 696L795 696L734 391L734 391Z"  horiz-adv-x="758" vert-adv-y="1000"  />

      
      <glyph glyph-name="uni03A9" unicode="&#x03A9;" d="M522 138L585 138L559 0L304 0L332 145Q374 155 401 185.50Q428 216 436 258L472 444Q476 467 472.50 487.50Q469 508 457 523.50Q445 539 425 548Q405 557 377 557Q348 557 325 547.50Q302 538 285 522Q268 506 257 485.50Q246 465 242 444L206 258Q198 219 212 186Q226 153 267 144L240 0L-14 0L12 138L72 138L74 143Q63 156 57.50 173.50Q52 191 50.50 210.50Q49 230 51 251Q53 272 57 292L84 430Q94 484 119.50 533Q145 582 184.50 619.50Q224 657 277.50 679Q331 701 399 701Q462 701 509.50 680.50Q557 660 586.50 624Q616 588 626.50 538Q637 488 626 430L599 292Q591 247 573 209.50Q555 172 522 140L522 138Z"  horiz-adv-x="628" vert-adv-y="1000"  />

      
      <glyph glyph-name="uni03AC" unicode="&#x03AC;" d="M274 500Q297 500 325 491Q353 482 373 459L375 460L382 495L522 495L426 0L286 0L294 39L291 40Q282 31 269 22.50Q256 14 241 8Q226 2 211-2Q196-6 184-6Q139-6 110.50 7.50Q82 21 66.50 43.50Q51 66 45.50 94.50Q40 123 40 153Q40 210 51.50 271Q63 332 90.50 383Q118 434 163 467Q208 500 274 500M184 183Q184 160 196 142.50Q208 125 240 125Q268 125 287.50 144.50Q307 164 319 191.50Q331 219 336 248.50Q341 278 341 298Q341 312 339 325Q337 338 331.50 347.50Q326 357 315.50 362.50Q305 368 288 368Q258 368 238 348Q218 328 206 299Q194 270 189 238.50Q184 207 184 183M248 567L372 770L497 727L325 537L248 567Z"  horiz-adv-x="523" vert-adv-y="1000"  />

      
      <glyph glyph-name="uni039D" unicode="&#x039D;" d="M456 0L331 271L263 430L261 429L179 0L29 0L164 696L298 696L399 470L490 262L492 262L575 696L725 696L590 0L456 0Z"  horiz-adv-x="696" vert-adv-y="1000"  />

      
      <glyph glyph-name="uni039F" unicode="&#x039F;" d="M380 701Q446 701 497 680.50Q548 660 580.50 624Q613 588 625 538Q637 488 626 430L594 266Q582 204 560 153.50Q538 103 502.50 67.50Q467 32 417 13Q367-6 300-6Q225-6 173 16Q121 38 90.50 75.50Q60 113 50.50 162.50Q41 212 52 266L84 430Q94 484 114.50 533Q135 582 169.50 619.50Q204 657 255.50 679Q307 701 380 701M370 566Q338 566 316 555.50Q294 545 279.50 528Q265 511 256.50 489.50Q248 468 244 447L204 249Q200 229 201.50 208.50Q203 188 214 171Q225 154 247 143Q269 132 307 132Q337 132 359 141Q381 150 396 166Q411 182 420 203.50Q429 225 434 249L474 451Q478 474 473 495Q468 516 454.50 531.50Q441 547 419.50 556.50Q398 566 370 566Z"  horiz-adv-x="624" vert-adv-y="1000"  />

      
      <glyph glyph-name="uni03A1" unicode="&#x03A1;" d="M432 696Q530 696 586.50 647.50Q643 599 643 513Q643 451 622 403Q601 355 564.50 322Q528 289 478.50 271.50Q429 254 372 254L229 254L179 0L29 0L164 696L432 696M290 561L255 392L389 392Q410 392 428.50 398.50Q447 405 461.50 417.50Q476 430 484.50 448.50Q493 467 493 490Q493 561 408 561L290 561Z"  horiz-adv-x="597" vert-adv-y="1000"  />

      
      <glyph glyph-name="uni03A4" unicode="&#x03A4;" d="M414 563L304 0L155 0L264 563L77 563L103 696L626 696L600 563L414 563Z"  horiz-adv-x="545" vert-adv-y="1000"  />

      
      <glyph glyph-name="uniab" unicode="&#xab;" d="M381 10L277 224L455 438L605 438L421 224L521 10L381 10M153 10L49 224L227 438L367 438L192 224L293 10L153 10Z"  horiz-adv-x="591" vert-adv-y="1000"  />

      
      <glyph glyph-name="unibb" unicode="&#xbb;" d="M7 10L191 224L91 438L231 438L335 224L157 10L7 10M235 10L420 224L319 438L459 438L563 224L385 10L235 10Z"  horiz-adv-x="591" vert-adv-y="1000"  />

      
      <glyph glyph-name="uni2026" unicode="&#x2026;" d="M45 0L77 165L246 165L214 0L45 0M397 0L429 165L598 165L566 0L397 0M729 0L761 165L930 165L898 0L729 0Z"  horiz-adv-x="1028" vert-adv-y="1000"  />

      
      <glyph glyph-name="uni03A5" unicode="&#x03A5;" d="M386 285L331 0L186 0L242 285L103 696L264 696L305 546L337 411L341 411L425 545L524 696L686 696L386 285Z"  horiz-adv-x="593" vert-adv-y="1000"  />

      
      <glyph glyph-name="uni03A7" unicode="&#x03A7;" d="M402 0L311 231L130 0L-44 0L257 356L104 696L279 696L360 482L524 696L699 696L414 356L578 0L402 0Z"  horiz-adv-x="617" vert-adv-y="1000"  />

      
      <glyph glyph-name="uni0386" unicode="&#x0386;" d="M449 0L427 149L203 149L120 0L-42 0L350 696L481 696L606 0L449 0M397 365L383 503L380 503L315 367L272 278L408 278L397 365M-21 537L103 740L228 697L56 507L-21 537Z"  horiz-adv-x="646" vert-adv-y="1000"  />

      
      <glyph glyph-name="uni0388" unicode="&#x0388;" d="M29 0L164 696L634 696L608 561L289 561L260 417L543 417L517 284L234 284L206 138L541 138L515 0L29 0M-119 537L5 740L130 697L-42 507L-119 537Z"  horiz-adv-x="573" vert-adv-y="1000"  />

      
      <glyph glyph-name="uni0153" unicode="&#x0153;" d="M311 500Q356 500 390.50 486.50Q425 473 449 449L449 450Q478 474 516.50 487.50Q555 501 605 501Q658 501 694 489Q730 477 752.50 457.50Q775 438 784.50 413Q794 388 794 363Q794 313 770 280.50Q746 248 708.50 228.50Q671 209 624.50 201Q578 193 533 193Q522 193 512 193Q502 193 492 194Q491 189 491 185.50Q491 182 491 178Q491 161 497 150Q503 139 513 133Q523 127 536.50 124.50Q550 122 566 122Q585 122 614.50 129.50Q644 137 683 160L743 55Q710 34 680 22Q650 10 623 4Q596-2 571.50-3.50Q547-5 524-5Q486-5 450.50 4.50Q415 14 389 40L389 43Q358 20 317.50 7Q277-6 224-6Q130-6 83 41.50Q36 89 36 164Q36 230 51.50 291Q67 352 100 398.50Q133 445 185 472.50Q237 500 311 500M292 372Q259 372 237.50 353Q216 334 203 306Q190 278 185 246Q180 214 180 188Q180 180 181.50 169Q183 158 189.50 148Q196 138 208.50 131Q221 124 243 124Q272 124 293 141.50Q314 159 327 187Q340 215 346 248Q352 281 352 313Q352 342 335 357Q318 372 292 372M599 373Q572 373 548.50 353Q525 333 513 300Q522 299 530 299Q538 299 546 299Q575 299 594.50 303Q614 307 625.50 313.50Q637 320 641.50 328Q646 336 646 343Q646 357 635.50 365Q625 373 599 373Z"  horiz-adv-x="812" vert-adv-y="1000"  />

      
      <glyph glyph-name="uni2013" unicode="&#x2013;" d="M22 220L46 344L522 344L497 220L22 220Z"  horiz-adv-x="514" vert-adv-y="1000"  />

      
      <glyph glyph-name="uni2015" unicode="&#x2015;" d="M22 219L46 343L1036 343L1012 219L22 219Z"  horiz-adv-x="1029" vert-adv-y="1000"  />

      
      <glyph glyph-name="uni201C" unicode="&#x201C;" d="M298 725L232 575L267 575L235 409L69 409L100 567L227 725L298 725M501 725L435 575L470 575L438 409L272 409L303 567L429 725L501 725Z"  horiz-adv-x="433" vert-adv-y="1000"  />

      
      <glyph glyph-name="uni201D" unicode="&#x201D;" d="M272 409L338 559L303 559L335 725L501 725L470 567L344 409L272 409M69 409L136 559L100 559L133 725L298 725L268 567L141 409L69 409Z"  horiz-adv-x="433" vert-adv-y="1000"  />

      
      <glyph glyph-name="uni2018" unicode="&#x2018;" d="M318 725L252 575L287 575L255 409L89 409L120 567L246 725L318 725Z"  horiz-adv-x="278" vert-adv-y="1000"  />

      
      <glyph glyph-name="uni2019" unicode="&#x2019;" d="M89 409L155 559L120 559L152 725L318 725L287 567L160 409L89 409Z"  horiz-adv-x="278" vert-adv-y="1000"  />

      
      <glyph glyph-name="unif7" unicode="&#xf7;" d="M317 422Q285 422 264 441.50Q243 461 243 490Q243 510 252 528Q261 546 276 559.50Q291 573 310 581Q329 589 349 589Q382 589 403 569.50Q424 550 424 520Q424 500 415 482.50Q406 465 391 451.50Q376 438 356.50 430Q337 422 317 422M24 240L47 356L561 356L538 240L24 240M234-3Q202-3 181 16.50Q160 36 160 66Q160 86 169 103.50Q178 121 193 134.50Q208 148 227 156Q246 164 266 164Q299 164 320 144.50Q341 125 341 96Q341 76 332 58Q323 40 308 26.50Q293 13 273.50 5Q254-3 234-3Z"  horiz-adv-x="550" vert-adv-y="1000"  />

      
      <glyph glyph-name="uni0389" unicode="&#x0389;" d="M402 0L458 284L234 284L179 0L29 0L164 696L314 696L260 417L484 417L538 696L687 696L552 0L402 0M-123 537L1 740L126 697L-46 507L-123 537Z"  horiz-adv-x="661" vert-adv-y="1000"  />

      
      <glyph glyph-name="uni038A" unicode="&#x038A;" d="M26 0L161 696L312 696L176 0L26 0M-121 537L3 740L128 697L-44 507L-121 537Z"  horiz-adv-x="288" vert-adv-y="1000"  />

      
      <glyph glyph-name="uni038C" unicode="&#x038C;" d="M380 701Q446 701 497 680.50Q548 660 580.50 624Q613 588 625 538Q637 488 626 430L594 266Q582 204 560 153.50Q538 103 502.50 67.50Q467 32 417 13Q367-6 300-6Q225-6 173 16Q121 38 90.50 75.50Q60 113 50.50 162.50Q41 212 52 266L84 430Q94 484 114.50 533Q135 582 169.50 619.50Q204 657 255.50 679Q307 701 380 701M370 566Q338 566 316 555.50Q294 545 279.50 528Q265 511 256.50 489.50Q248 468 244 447L204 249Q200 229 201.50 208.50Q203 188 214 171Q225 154 247 143Q269 132 307 132Q337 132 359 141Q381 150 396 166Q411 182 420 203.50Q429 225 434 249L474 451Q478 474 473 495Q468 516 454.50 531.50Q441 547 419.50 556.50Q398 566 370 566M-106 537L18 740L143 697L-29 507L-106 537Z"  horiz-adv-x="624" vert-adv-y="1000"  />

      
      <glyph glyph-name="uni038E" unicode="&#x038E;" d="M386 285L331 0L186 0L242 285L103 696L264 696L305 546L337 411L341 411L425 545L524 696L686 696L386 285M-168 537L-44 740L81 697L-91 507L-168 537Z"  horiz-adv-x="593" vert-adv-y="1000"  />

      
      <glyph glyph-name="uni03AD" unicode="&#x03AD;" d="M429 73Q375 27 318.50 12Q262-3 206-3Q127-3 78 32.50Q29 68 29 137Q29 179 56 210.50Q83 242 124 253L124 256Q92 268 82.50 291Q73 314 73 334Q73 376 93 407Q113 438 145 458.50Q177 479 216.50 489.50Q256 500 295 500Q350 500 398 484.50Q446 469 481 425L394 328Q358 357 333.50 362.50Q309 368 285 368Q277 368 266 366.50Q255 365 244.50 361Q234 357 225.50 349.50Q217 342 215 331Q212 317 220.50 307Q229 297 264 297L329 297L310 196L238 196Q182 196 176 161Q174 150 185.50 138.50Q197 127 238 127Q262 127 291.50 136.50Q321 146 355 172L429 73M243 567L367 770L492 727L320 537L243 567Z"  horiz-adv-x="466" vert-adv-y="1000"  />

      
      <glyph glyph-name="uni03AE" unicode="&#x03AE;" d="M276-130L357 293Q365 331 348 350Q331 369 302 369Q271 369 247 350Q223 331 215 293L158 0L18 0L115 496L255 496L248 459L250 459Q273 476 304 488.50Q335 501 363 501Q397 501 426.50 489.50Q456 478 475.50 455.50Q495 433 503 399.50Q511 366 503 323L416-130L276-130M243 567L367 770L492 727L320 537L243 567Z"  horiz-adv-x="540" vert-adv-y="1000"  />

      
      <glyph glyph-name="uni03AF" unicode="&#x03AF;" d="M211-8Q200-9 187.50-9Q175-9 166-9Q113-9 86.50 6.50Q60 22 50 45Q40 68 41.50 95Q43 122 48 145L116 495L255 495L189 155Q185 135 190.50 122.50Q196 110 234 108L211-8M144 567L268 770L393 727L221 537L144 567Z"  horiz-adv-x="280" vert-adv-y="1000"  />

      
      <glyph glyph-name="uni03CC" unicode="&#x03CC;" d="M306 500Q353 500 389 485.50Q425 471 450 446Q475 421 487.50 387Q500 353 500 314Q500 257 486.50 200Q473 143 441.50 97Q410 51 356.50 22.50Q303-6 224-6Q130-6 83 41.50Q36 89 36 164Q36 230 51.50 291Q67 352 99.50 398.50Q132 445 183 472.50Q234 500 306 500M292 372Q259 372 237.50 353Q216 334 203 306Q190 278 185 246Q180 214 180 188Q180 180 181.50 169Q183 158 189.50 148Q196 138 208.50 131Q221 124 243 124Q272 124 293 141.50Q314 159 327.50 187Q341 215 347 248Q353 281 353 313Q353 342 335.50 357Q318 372 292 372M253 567L377 770L502 727L330 537L253 567Z"  horiz-adv-x="516" vert-adv-y="1000"  />

      
      <glyph glyph-name="uni038F" unicode="&#x038F;" d="M522 138L585 138L559 0L304 0L332 145Q374 155 401 185.50Q428 216 436 258L472 444Q476 467 472.50 487.50Q469 508 457 523.50Q445 539 425 548Q405 557 377 557Q348 557 325 547.50Q302 538 285 522Q268 506 257 485.50Q246 465 242 444L206 258Q198 219 212 186Q226 153 267 144L240 0L-14 0L12 138L72 138L74 143Q63 156 57.50 173.50Q52 191 50.50 210.50Q49 230 51 251Q53 272 57 292L84 430Q94 484 119.50 533Q145 582 184.50 619.50Q224 657 277.50 679Q331 701 399 701Q462 701 509.50 680.50Q557 660 586.50 624Q616 588 626.50 538Q637 488 626 430L599 292Q591 247 573 209.50Q555 172 522 140L522 138M-97 537L27 740L152 697L-20 507L-97 537Z"  horiz-adv-x="628" vert-adv-y="1000"  />

      
      <glyph glyph-name="uni03CD" unicode="&#x03CD;" d="M477 183Q469 140 448 105Q427 70 396 45.50Q365 21 325.50 8Q286-5 241-5Q197-5 159 8.50Q121 22 95 46.50Q69 71 57.50 106Q46 141 54 183L115 495L255 495L198 204Q191 166 208 147.50Q225 129 256 129Q286 129 310 147.50Q334 166 341 204L398 495L538 495L477 183M253 567L377 770L502 727L330 537L253 567Z"  horiz-adv-x="540" vert-adv-y="1000"  />

      
      <glyph glyph-name="uni03B1" unicode="&#x03B1;" d="M274 500Q297 500 325 491Q353 482 373 459L375 460L382 495L522 495L426 0L286 0L294 39L291 40Q282 31 269 22.50Q256 14 241 8Q226 2 211-2Q196-6 184-6Q139-6 110.50 7.50Q82 21 66.50 43.50Q51 66 45.50 94.50Q40 123 40 153Q40 210 51.50 271Q63 332 90.50 383Q118 434 163 467Q208 500 274 500M184 183Q184 160 196 142.50Q208 125 240 125Q268 125 287.50 144.50Q307 164 319 191.50Q331 219 336 248.50Q341 278 341 298Q341 312 339 325Q337 338 331.50 347.50Q326 357 315.50 362.50Q305 368 288 368Q258 368 238 348Q218 328 206 299Q194 270 189 238.50Q184 207 184 183Z"  horiz-adv-x="523" vert-adv-y="1000"  />

      
      <glyph glyph-name="uni03B2" unicode="&#x03B2;" d="M263-5Q237-5 207 6Q177 17 162 39L160 39L127-132L-14-132L110 519Q129 619 190 671.50Q251 724 346 724Q395 724 430 710.50Q465 697 487 674.50Q509 652 518.50 623.50Q528 595 527 566Q526 543 518 519.50Q510 496 497 476Q484 456 466 440.50Q448 425 427 417L426 414Q451 405 465.50 389.50Q480 374 487.50 355Q495 336 496 315Q497 294 496 274Q491 217 476 166Q461 115 432.50 77Q404 39 362 17Q320-5 263-5M351 275Q351 289 349 302.50Q347 316 340 326.50Q333 337 320.50 343Q308 349 286 349L262 349L283 453L313 453Q331 453 345.50 462Q360 471 370 485Q380 499 385.50 515.50Q391 532 391 548Q391 570 379.50 587.50Q368 605 338 605Q301 605 280 581Q259 557 253 526L203 261Q198 237 195 212Q192 187 195.50 167Q199 147 211.50 134Q224 121 251 121Q277 121 296 136Q315 151 327 174Q339 197 345 224Q351 251 351 275Z"  horiz-adv-x="540" vert-adv-y="1000"  />

      
      <glyph glyph-name="uni03C8" unicode="&#x03C8;" d="M641 205Q630 150 605.50 111.50Q581 73 546 48Q511 23 468 10.50Q425-2 378-4L340-202L199-202L237-3Q199-2 162.50 11Q126 24 99 49.50Q72 75 59.50 113.50Q47 152 58 205L114 495L254 495L201 221Q195 193 200 175.50Q205 158 215 147.50Q225 137 238 132Q251 127 262 125L338 515L479 515L403 125Q416 127 431 131.50Q446 136 460.50 146.50Q475 157 486.50 175Q498 193 504 221L557 495L697 495L641 205L641 205Z"  horiz-adv-x="698" vert-adv-y="1000"  />

      
      <glyph glyph-name="uni03B4" unicode="&#x03B4;" d="M300 376Q264 367 241 345.50Q218 324 204.50 298Q191 272 186 243Q181 214 181 190Q181 159 196 141Q211 123 240 123Q267 123 288 137.50Q309 152 323.50 175.50Q338 199 346 230Q354 261 354 294Q354 325 341.50 347Q329 369 300 376M361 724Q403 724 448.50 716Q494 708 542 679L481 572Q446 594 419.50 599.50Q393 605 371 605Q353 605 342 599Q331 593 326 585Q321 577 319.50 569.50Q318 562 318 560Q318 547 328.50 536.50Q339 526 355.50 514.50Q372 503 392 490.50Q412 478 432 461Q459 437 479 403Q499 369 499 315Q499 234 478 173.50Q457 113 420.50 72.50Q384 32 334.50 12Q285-8 227-8Q133-8 85.50 41.50Q38 91 38 182Q38 225 48 268Q58 311 79.50 348.50Q101 386 134.50 415Q168 444 215 459Q191 479 180 507.50Q169 536 169 563Q169 605 185.50 635.50Q202 666 229 685.50Q256 705 290.50 714.50Q325 724 361 724Z"  horiz-adv-x="516" vert-adv-y="1000"  />

      
      <glyph glyph-name="uni03B5" unicode="&#x03B5;" d="M429 73Q375 27 318.50 12Q262-3 206-3Q127-3 78 32.50Q29 68 29 137Q29 179 56 210.50Q83 242 124 253L124 256Q92 268 82.50 291Q73 314 73 334Q73 376 93 407Q113 438 145 458.50Q177 479 216.50 489.50Q256 500 295 500Q350 500 398 484.50Q446 469 481 425L394 328Q358 357 333.50 362.50Q309 368 285 368Q277 368 266 366.50Q255 365 244.50 361Q234 357 225.50 349.50Q217 342 215 331Q212 317 220.50 307Q229 297 264 297L329 297L310 196L238 196Q182 196 176 161Q174 150 185.50 138.50Q197 127 238 127Q262 127 291.50 136.50Q321 146 355 172L429 73L429 73Z"  horiz-adv-x="466" vert-adv-y="1000"  />

      
      <glyph glyph-name="uni03C6" unicode="&#x03C6;" d="M453 500Q556 500 602.50 455Q649 410 649 325Q649 257 633.50 197.50Q618 138 583.50 94Q549 50 495 23.50Q441-3 365-5L327-200L187-200Q200-134 207.50-95Q215-56 219-36Q223-12 225-3L224-5Q131 3 84 50Q37 97 37 172Q37 221 45.50 270.50Q54 320 75 363Q96 406 131 438.50Q166 471 220 487L253 360Q233 355 219.50 339Q206 323 197.50 301Q189 279 185 252.50Q181 226 181 199Q181 184 184 170Q187 156 194.50 145.50Q202 135 215.50 129Q229 123 249 123L323 500L453 500M390 123Q427 125 449.50 145.50Q472 166 485 194.50Q498 223 502.50 254Q507 285 507 308Q507 335 493.50 352.50Q480 370 438 371L390 123Z"  horiz-adv-x="673" vert-adv-y="1000"  />

      
      <glyph glyph-name="uni03B3" unicode="&#x03B3;" d="M551 494Q517 424 487.50 365.50Q458 307 427.50 251.50Q397 196 361.50 138.50Q326 81 281 13L240-200L102-200L138-16Q129 71 116.50 159Q104 247 90 328Q84 358 77 368.50Q70 379 50 379L41 379L51 492Q72 499 93.50 502.50Q115 506 129 506Q155 506 171.50 498Q188 490 198.50 474Q209 458 214.50 433Q220 408 225 375Q231 334 236 288.50Q241 243 243 193L248 193Q296 272 331 348.50Q366 425 398 494L551 494Z"  horiz-adv-x="494" vert-adv-y="1000"  />

      
      <glyph glyph-name="uni03B7" unicode="&#x03B7;" d="M276-130L357 293Q365 331 348 350Q331 369 302 369Q271 369 247 350Q223 331 215 293L158 0L18 0L115 496L255 496L248 459L250 459Q273 476 304 488.50Q335 501 363 501Q397 501 426.50 489.50Q456 478 475.50 455.50Q495 433 503 399.50Q511 366 503 323L416-130L276-130Z"  horiz-adv-x="540" vert-adv-y="1000"  />

      
      <glyph glyph-name="uni03B9" unicode="&#x03B9;" d="M211-8Q200-9 187.50-9Q175-9 166-9Q113-9 86.50 6.50Q60 22 50 45Q40 68 41.50 95Q43 122 48 145L116 495L255 495L189 155Q185 135 190.50 122.50Q196 110 234 108L211-8Z"  horiz-adv-x="274" vert-adv-y="1000"  />

      
      <glyph glyph-name="uni03BE" unicode="&#x03BE;" d="M167 378Q146 388 132.50 402.50Q119 417 111.50 433Q104 449 101 465.50Q98 482 98 497Q98 548 119 589Q140 630 174.50 658.50Q209 687 253 702.50Q297 718 344 718Q359 718 383.50 717Q408 716 436 710Q464 704 492.50 691.50Q521 679 543 657L464 547Q438 570 409.50 579.50Q381 589 343 589Q314 589 295 577.50Q276 566 265 551Q254 536 249.50 520.50Q245 505 245 498Q245 471 267.50 451Q290 431 328 431L428 431L405 315L298 315Q274 315 251.50 308Q229 301 211.50 287Q194 273 183.50 251.50Q173 230 173 201Q173 177 190.50 159Q208 141 232.50 128Q257 115 282.50 105.50Q308 96 323 90Q349 79 365 68Q381 57 389.50 45.50Q398 34 401 21.50Q404 9 404-5Q404-44 377-93Q350-142 300-203L198-152Q214-125 222.50-107.50Q231-90 235.50-79Q240-68 241-61.50Q242-55 242-52Q242-39 233-31Q224-23 208-16L140 14Q117 24 95.50 38.50Q74 53 57 73Q40 93 29.50 119.50Q19 146 19 181Q19 215 30.50 245.50Q42 276 61.50 300.50Q81 325 108 344Q135 363 165 374L167 378Z"  horiz-adv-x="429" vert-adv-y="1000"  />

      
      <glyph glyph-name="uni03BA" unicode="&#x03BA;" d="M337 0L245 196L186 143L158 0L18 0L115 495L255 495L222 326L224 325L303 403L406 495L584 495L356 295L497 0L337 0Z"  horiz-adv-x="523" vert-adv-y="1000"  />

      
      <glyph glyph-name="uni03BB" unicode="&#x03BB;" d="M234 728Q267 728 289 719.50Q311 711 325 695Q339 679 346.50 657Q354 635 357 608L417 125Q419 109 426.50 103.50Q434 98 459 98L449-2Q429-6 413.50-7Q398-8 387-8Q355-8 336-0.50Q317 7 306 20Q295 33 290 51.50Q285 70 283 92L263 299L257 299L164 116L104 0L-42 0L228 483L221 551Q218 581 207 593Q196 605 162 605Q157 605 152 605Q147 605 141 604L153 717Q176 723 196.50 725.50Q217 728 234 728Z"  horiz-adv-x="468" vert-adv-y="1000"  />

      
      <glyph glyph-name="unib5" unicode="&#xb5;" d="M301 1L307 35L304 37Q281 17 253 6.50Q225-4 198-4Q182-4 160 1L121-200L-20-200L116 495L256 495L199 202Q191 164 208 145.50Q225 127 254 127Q285 127 308.50 145.50Q332 164 340 202L397 495L538 495L442 1L301 1Z"  horiz-adv-x="540" vert-adv-y="1000"  />

      
      <glyph glyph-name="uni03BC" unicode="&#x03BC;" d="M301 1L307 35L304 37Q281 17 253 6.50Q225-4 198-4Q182-4 160 1L121-200L-20-200L116 495L256 495L199 202Q191 164 208 145.50Q225 127 254 127Q285 127 308.50 145.50Q332 164 340 202L397 495L538 495L442 1L301 1Z"  horiz-adv-x="540" vert-adv-y="1000"  />

      
      <glyph glyph-name="uni03BD" unicode="&#x03BD;" d="M536 495Q505 420 473 353.50Q441 287 407.50 227Q374 167 339 111Q304 55 266 0L139 0L45 495L194 495L212 362Q219 313 221.50 262.50Q224 212 226 168L230 168Q276 245 312.50 324Q349 403 385 495L536 495Z"  horiz-adv-x="498" vert-adv-y="1000"  />

      
      <glyph glyph-name="uni03BF" unicode="&#x03BF;" d="M306 500Q353 500 389 485.50Q425 471 450 446Q475 421 487.50 387Q500 353 500 314Q500 257 486.50 200Q473 143 441.50 97Q410 51 356.50 22.50Q303-6 224-6Q130-6 83 41.50Q36 89 36 164Q36 230 51.50 291Q67 352 99.50 398.50Q132 445 183 472.50Q234 500 306 500M292 372Q259 372 237.50 353Q216 334 203 306Q190 278 185 246Q180 214 180 188Q180 180 181.50 169Q183 158 189.50 148Q196 138 208.50 131Q221 124 243 124Q272 124 293 141.50Q314 159 327.50 187Q341 215 347 248Q353 281 353 313Q353 342 335.50 357Q318 372 292 372Z"  horiz-adv-x="516" vert-adv-y="1000"  />

      
      <glyph glyph-name="uni03C0" unicode="&#x03C0;" d="M294 0L366 377L224 377L152 0L12 0L109 496L531 496L434 0L294 0Z"  horiz-adv-x="531" vert-adv-y="1000"  />

      
      <glyph glyph-name="uni03CE" unicode="&#x03CE;" d="M567 500Q613 496 644.50 481.50Q676 467 695.50 444Q715 421 723.50 390.50Q732 360 732 326Q732 251 716 190.50Q700 130 667.50 86.50Q635 43 587 19.50Q539-4 475-4Q431-4 400.50 16.50Q370 37 357 72L354 72Q327 37 291 16.50Q255-4 213-4Q166-4 133 9Q100 22 79.50 44.50Q59 67 49.50 98.50Q40 130 40 168Q40 227 51 284.50Q62 342 90 388Q118 434 164 464Q210 494 281 499L283 365Q256 362 236.50 344.50Q217 327 204.50 301.50Q192 276 186.50 245.50Q181 215 181 186Q181 163 190.50 144.50Q200 126 229 126Q257 126 278.50 143.50Q300 161 308 201L333 330L471 330L446 201Q443 187 443 177Q443 150 457.50 138Q472 126 495 126Q518 126 534.50 139Q551 152 561.50 171Q572 190 578 213Q584 236 587 255.50Q590 275 590.50 289Q591 303 591 305Q591 331 578.50 346Q566 361 531 365L567 500M366 567L490 770L615 727L443 537L366 567Z"  horiz-adv-x="750" vert-adv-y="1000"  />

      
      <glyph glyph-name="uni03C1" unicode="&#x03C1;" d="M59 264Q68 313 85.50 356Q103 399 132 431Q161 463 205.50 481.50Q250 500 313 500Q362 500 399.50 485.50Q437 471 462 446Q487 421 499.50 387Q512 353 512 314Q512 259 500 204.50Q488 150 459 105Q430 60 382 30.50Q334 1 262-4Q235-4 206.50 2.50Q178 9 161 29L157 28L113-200L-30-200L59 264M304 372Q271 372 249.50 353Q228 334 215 306Q202 278 197 246Q192 214 192 188Q192 180 193.50 169Q195 158 201.50 148Q208 138 220.50 131Q233 124 255 124Q284 124 305 141.50Q326 159 339 187Q352 215 358 248Q364 281 364 313Q364 342 347 357Q330 372 304 372Z"  horiz-adv-x="528" vert-adv-y="1000"  />

      
      <glyph glyph-name="uni03C3" unicode="&#x03C3;" d="M474 380Q487 370 493 349Q499 328 499 310Q499 257 485.50 201Q472 145 440.50 99Q409 53 355.50 23.50Q302-6 223-6Q129-6 82 41.50Q35 89 35 164Q35 228 50.50 287.50Q66 347 99 393.50Q132 440 184 468Q236 496 310 496L572 496L550 385L474 385L474 380M291 368Q258 368 236.50 349.50Q215 331 202 304Q189 277 184 245.50Q179 214 179 188Q179 180 180.50 169Q182 158 188.50 148Q195 138 207.50 131Q220 124 242 124Q271 124 292 141Q313 158 326 185Q339 212 345 244.50Q351 277 351 309Q351 338 334 353Q317 368 291 368Z"  horiz-adv-x="533" vert-adv-y="1000"  />

      
      <glyph glyph-name="uni03C4" unicode="&#x03C4;" d="M287 385L246 175Q241 146 249 136Q257 126 279 126L305 126L281 0L209 0Q150 0 118 35Q86 70 98 133L147 385L52 385L74 495L415 495L394 385L287 385Z"  horiz-adv-x="383" vert-adv-y="1000"  />

      
      <glyph glyph-name="uni03B8" unicode="&#x03B8;" d="M345 727Q385 727 419.50 716.50Q454 706 479 682.50Q504 659 518 622.50Q532 586 532 534Q532 502 527.50 458Q523 414 512 355Q501 296 490 253.50Q479 211 468 180Q457 149 446 128Q435 107 425 91Q392 42 347 17.50Q302-7 232-7Q193-7 159.50 2Q126 11 101.50 32Q77 53 63 88Q49 123 49 175Q49 230 56.50 285.50Q64 341 75 393Q83 431 92.50 465.50Q102 500 112 528.50Q122 557 131 578.50Q140 600 147 612Q182 672 229.50 699.50Q277 727 345 727M198 315Q188 273 184.50 241.50Q181 210 181 190Q181 162 193.50 142.50Q206 123 243 123Q278 123 297.50 140Q317 157 327 177Q332 186 342.50 216.50Q353 247 365 315L198 315M333 599Q313 599 293 589Q273 579 260 556Q256 549 251.50 538.50Q247 528 242 512.50Q237 497 231 474.50Q225 452 218 420L383 420Q391 457 393 482Q395 507 395 523Q395 564 378 581.50Q361 599 333 599Z"  horiz-adv-x="516" vert-adv-y="1000"  />

      
      <glyph glyph-name="uni03C9" unicode="&#x03C9;" d="M567 500Q613 496 644.50 481.50Q676 467 695.50 444Q715 421 723.50 390.50Q732 360 732 326Q732 251 716 190.50Q700 130 667.50 86.50Q635 43 587 19.50Q539-4 475-4Q431-4 400.50 16.50Q370 37 357 72L354 72Q327 37 291 16.50Q255-4 213-4Q166-4 133 9Q100 22 79.50 44.50Q59 67 49.50 98.50Q40 130 40 168Q40 227 51 284.50Q62 342 90 388Q118 434 164 464Q210 494 281 499L283 365Q256 362 236.50 344.50Q217 327 204.50 301.50Q192 276 186.50 245.50Q181 215 181 186Q181 163 190.50 144.50Q200 126 229 126Q257 126 278.50 143.50Q300 161 308 201L333 330L471 330L446 201Q443 187 443 177Q443 150 457.50 138Q472 126 495 126Q518 126 534.50 139Q551 152 561.50 171Q572 190 578 213Q584 236 587 255.50Q590 275 590.50 289Q591 303 591 305Q591 331 578.50 346Q566 361 531 365L567 500Z"  horiz-adv-x="750" vert-adv-y="1000"  />

      
      <glyph glyph-name="uni03C2" unicode="&#x03C2;" d="M412 324Q383 350 359 358.50Q335 367 316 367Q294 367 272 358.50Q250 350 232 331Q214 312 202.50 281.50Q191 251 191 207Q191 181 201 163Q211 145 236 134L328 93Q363 78 377.50 56Q392 34 392 8Q392-14 383-38.50Q374-63 360.50-88Q347-113 329.50-137.50Q312-162 296-185L196-139Q212-113 220.50-96.50Q229-80 234-69Q242-48 237-35Q232-22 209-12L150 13Q42 59 42 180Q42 244 59 302Q76 360 110 404.50Q144 449 194.50 475Q245 501 312 501Q337 501 363.50 496.50Q390 492 415.50 483Q441 474 463 460.50Q485 447 501 429L412 324Z"  horiz-adv-x="471" vert-adv-y="1000"  />

      
      <glyph glyph-name="uni03C7" unicode="&#x03C7;" d="M296 0L236 142L121 0L-48 0L187 252L55 495L223 495L278 359L385 495L554 495L327 252L465 0L296 0Z"  horiz-adv-x="499" vert-adv-y="1000"  />

      
      <glyph glyph-name="uni03C5" unicode="&#x03C5;" d="M477 183Q469 140 448 105Q427 70 396 45.50Q365 21 325.50 8Q286-5 241-5Q197-5 159 8.50Q121 22 95 46.50Q69 71 57.50 106Q46 141 54 183L115 495L255 495L198 204Q191 166 208 147.50Q225 129 256 129Q286 129 310 147.50Q334 166 341 204L398 495L538 495L477 183L477 183Z"  horiz-adv-x="540" vert-adv-y="1000"  />

      
      <glyph glyph-name="uni03B6" unicode="&#x03B6;" d="M549 600Q523 583 486 556Q449 529 409 495Q369 461 329 421.50Q289 382 257 341.50Q225 301 205.50 261Q186 221 186 185Q186 163 199.50 149.50Q213 136 235.50 125.50Q258 115 286.50 106Q315 97 345 84Q383 68 397.50 44Q412 20 412-9Q412-31 402-55Q392-79 376-103.50Q360-128 339-153.50Q318-179 296-205L202-153Q224-121 239-91Q254-61 254-50Q254-26 213-12L149 9Q97 26 66 64Q35 102 35 162Q35 201 49.50 241.50Q64 282 89 322Q114 362 145.50 400Q177 438 212 471.50Q247 505 281.50 532.50Q316 560 346 579L346 582L147 582L171 708L570 708L549 600L549 600Z"  horiz-adv-x="429" vert-adv-y="1000"  />

      
      <glyph glyph-name="uni03CA" unicode="&#x03CA;" d="M211-8Q200-9 187.50-9Q175-9 166-9Q113-9 86.50 6.50Q60 22 50 45Q40 68 41.50 95Q43 122 48 145L116 495L255 495L189 155Q185 135 190.50 122.50Q196 110 234 108L211-8M241 569L266 699L412 699L387 569L241 569M27 569L52 699L197 699L172 569L27 569Z"  horiz-adv-x="280" vert-adv-y="1000"  />

      
      <glyph glyph-name="uni03CB" unicode="&#x03CB;" d="M477 183Q469 140 448 105Q427 70 396 45.50Q365 21 325.50 8Q286-5 241-5Q197-5 159 8.50Q121 22 95 46.50Q69 71 57.50 106Q46 141 54 183L115 495L255 495L198 204Q191 166 208 147.50Q225 129 256 129Q286 129 310 147.50Q334 166 341 204L398 495L538 495L477 183M359 569L384 699L530 699L505 569L359 569M145 569L170 699L315 699L290 569L145 569Z"  horiz-adv-x="540" vert-adv-y="1000"  />

      
      <glyph glyph-name="uni0390" unicode="&#x0390;" d="M211-8Q200-9 187.50-9Q175-9 166-9Q113-9 86.50 6.50Q60 22 50 45Q40 68 41.50 95Q43 122 48 145L116 495L255 495L189 155Q185 135 190.50 122.50Q196 110 234 108L211-8M330 569L356 699L495 699L470 569L330 569M-45 569L-20 699L119 699L94 569L-45 569M110 567L234 770L359 727L187 537L110 567Z"  horiz-adv-x="280" vert-adv-y="1000"  />

      
      <glyph glyph-name="uni03B0" unicode="&#x03B0;" d="M477 183Q469 140 448 105Q427 70 396 45.50Q365 21 325.50 8Q286-5 241-5Q197-5 159 8.50Q121 22 95 46.50Q69 71 57.50 106Q46 141 54 183L115 495L255 495L198 204Q191 166 208 147.50Q225 129 256 129Q286 129 310 147.50Q334 166 341 204L398 495L538 495L477 183M448 569L474 699L613 699L588 569L448 569M73 569L98 699L237 699L212 569L73 569M228 567L352 770L477 727L305 537L228 567Z"  horiz-adv-x="540" vert-adv-y="1000"  />

      
      <glyph glyph-name="unie6" unicode="&#xe6;" d="M608 501Q661 501 697 488Q733 475 755.50 454Q778 433 787.50 406.50Q797 380 797 353Q797 305 774.50 273.50Q752 242 716 224Q680 206 635 199Q590 192 545 192Q532 192 519.50 192.50Q507 193 495 194Q494 189 494 185.50Q494 182 494 178Q494 161 500 150Q506 139 516 133Q526 127 539.50 124.50Q553 122 569 122Q588 122 616.50 131.50Q645 141 683 162L748 55Q715 34 685 22Q655 10 627.50 4Q600-2 575-3.50Q550-5 527-5Q479-5 436.50 11Q394 27 370 70Q353 57 331 43.50Q309 30 283 19.50Q257 9 228.50 2Q200-5 170-5Q104-5 63 25Q22 55 22 122Q22 150 30.50 183Q39 216 65.50 243.50Q92 271 139.50 289.50Q187 308 265 308Q283 308 302.50 306.50Q322 305 343 303L347 316Q349 324 349 330Q349 346 336.50 361Q324 376 283 376Q241 376 207.50 368.50Q174 361 148 339L88 426Q137 470 192.50 485Q248 500 302 500Q351 500 392.50 490Q434 480 460 457Q489 477 525.50 489Q562 501 608 501M602 373Q575 373 551.50 353Q528 333 516 300Q525 299 533 299Q541 299 549 299Q578 299 597.50 303Q617 307 628.50 313.50Q640 320 644.50 328Q649 336 649 343Q649 357 638.50 365Q628 373 602 373M324 200Q304 202 288 203.50Q272 205 258 205Q224 205 205.50 199.50Q187 194 177.50 186.50Q168 179 165.50 171.50Q163 164 162 159Q162 154 163 146.50Q164 139 169 131.50Q174 124 186 118.50Q198 113 221 113Q237 113 253.50 116.50Q270 120 284 128Q298 136 308 148.50Q318 161 321 179L324 200Z"  horiz-adv-x="815" vert-adv-y="1000"  />

      
      <glyph glyph-name="unif5" unicode="&#xf5;" d="M306 500Q353 500 389 485.50Q425 471 450 446Q475 421 487.50 387Q500 353 500 314Q500 257 486.50 200Q473 143 441.50 97Q410 51 356.50 22.50Q303-6 224-6Q130-6 83 41.50Q36 89 36 164Q36 230 51.50 291Q67 352 99.50 398.50Q132 445 183 472.50Q234 500 306 500M292 372Q259 372 237.50 353Q216 334 203 306Q190 278 185 246Q180 214 180 188Q180 180 181.50 169Q183 158 189.50 148Q196 138 208.50 131Q221 124 243 124Q272 124 293 141.50Q314 159 327.50 187Q341 215 347 248Q353 281 353 313Q353 342 335.50 357Q318 372 292 372M281 717Q300 717 319.50 709Q339 701 356.50 692Q374 683 389.50 675.50Q405 668 417 668Q434 668 451 679Q468 690 493 716L555 678Q523 616 490.50 591.50Q458 567 417 567Q397 567 378 574.50Q359 582 342 590.50Q325 599 309.50 606.50Q294 614 280 614Q263 614 243.50 603.50Q224 593 197 564L138 603Q172 667 207 692Q242 717 281 717Z"  horiz-adv-x="516" vert-adv-y="1000"  />

      
      <glyph glyph-name="uni20AC" unicode="&#x20AC;" d="M83 330Q84 334 84.50 339.50Q85 345 89 358L52 358L65 439L103 439Q113 491 136 537.50Q159 584 195 619Q231 654 278.50 674.50Q326 695 384 695Q470 695 523 649.50Q576 604 596 529L458 476Q455 493 446.50 507Q438 521 425 530.50Q412 540 397 544.50Q382 549 366 549Q321 548 292.50 520Q264 492 252 439L418 439L405 358L235 358Q234 355 232.50 349Q231 343 229 330L399 330L383 248L214 248Q212 240 212 232.50Q212 225 212 218Q212 181 232.50 160Q253 139 295 139Q327 139 357 158.50Q387 178 407 215L535 163Q490 80 424.50 37Q359-6 268-6Q217-6 178.50 8.50Q140 23 114 49Q88 75 74.50 111Q61 147 61 191Q61 205 62 218.50Q63 232 66 248L29 248L45 330L83 330Z"  horiz-adv-x="550" vert-adv-y="1000"  />

      
      <glyph glyph-name="uni0192" unicode="&#x0192;" d="M172 427L266 427L278 487Q285 523 300 561Q315 599 340 630Q365 661 402 680.50Q439 700 492 700Q518 699 546.50 693Q575 687 596 679L557 567Q543 573 533 576Q523 579 515.50 580.50Q508 582 500.50 582Q493 582 483 582Q468 582 456.50 573Q445 564 436.50 549.50Q428 535 422 517.50Q416 500 412 483L400 427L494 427L486 310L377 310L335 116Q325 71 310 31Q295-9 271-39Q247-69 214-86.50Q181-104 135-104Q123-104 107.50-101.50Q92-99 75.50-95Q59-91 42.50-85.50Q26-80 13-74L57 36Q84 24 99.50 21Q115 18 127 18Q177 18 201 127L240 310L164 310L172 427Z"  horiz-adv-x="550" vert-adv-y="1000"  />

      
      <glyph glyph-name="unib4" unicode="&#xb4;" d="M253 567L377 770L502 727L330 537L253 567Z"  horiz-adv-x="516" vert-adv-y="1000"  />

      
      <glyph glyph-name="unia6" unicode="&#xa6;" d="M67 284L67 730L191 730L191 284L67 284M191 219L191-228L67-228L67 219L191 219Z"  horiz-adv-x="259" vert-adv-y="1000"  />

      
      <glyph glyph-name="uniac" unicode="&#xac;" d="M502 54L378 54L414 240L25 240L48 356L560 356L502 54Z"  horiz-adv-x="550" vert-adv-y="1000"  />

      
      <glyph glyph-name="unib8" unicode="&#xb8;" d="M218 50L290 50L246-36Q292-41 308.50-63.50Q325-86 325-114Q325-135 315.50-154Q306-173 288.50-188Q271-203 246-211.50Q221-220 190-220Q158-220 128.50-212.50Q99-205 79-191L116-129Q139-141 154.50-144Q170-147 187-147Q204-147 218.50-139.50Q233-132 233-113Q233-102 225.50-97.50Q218-93 209-93Q199-93 189-97L154-77L218 50Z"  horiz-adv-x="463" vert-adv-y="1000"  />

      
      <glyph glyph-name="unid7" unicode="&#xd7;" d="M287 213L96 53L26 140L217 300L83 466L181 548L315 382L502 540L573 452L385 295L519 129L421 47L287 213Z"  horiz-adv-x="550" vert-adv-y="1000"  />

      
      <glyph glyph-name="unif0" unicode="&#xf0;" d="M399 414Q402 429 403 442.50Q404 456 404 469Q404 512 388 546L321 503L287 559L344 595Q321 612 289.50 620.50Q258 629 221 631L250 733Q318 729 365.50 710.50Q413 692 445 660L527 712L561 657L484 607Q501 574 508.50 535Q516 496 516 451Q516 370 501.50 288.50Q487 207 452 141.50Q417 76 358 35Q299-6 211-6Q121-6 73.50 41.50Q26 89 26 164Q26 214 38 269.50Q50 325 78 371.50Q106 418 153 448Q200 478 270 478Q283 478 300.50 475Q318 472 336 465Q354 458 369.50 445.50Q385 433 395 415L399 414M274 351Q244 351 224 335.50Q204 320 192 296Q180 272 175 243Q170 214 170 188Q170 180 171.50 169Q173 158 179.50 148Q186 138 198.50 131Q211 124 233 124Q259 124 278.50 138Q298 152 310.50 175Q323 198 329 226.50Q335 255 335 285Q335 314 319 332.50Q303 351 274 351Z"  horiz-adv-x="491" vert-adv-y="1000"  />

      
      <glyph glyph-name="uni02C6" unicode="&#x02C6;" d="M338 629L173 526L129 574L306 729L409 729L527 574L462 525L338 629Z"  horiz-adv-x="516" vert-adv-y="1000"  />

      
      <glyph glyph-name="unic6" unicode="&#xc6;" d="M1059 696L1040 558L702 558L682 417L970 417L951 284L663 284L643 138L981 138L962 0L470 0L490 149L243 149L126 0L-37 0L484 696L1059 696M542 554L342 278L509 278L547 553L542 554Z"  horiz-adv-x="1069" vert-adv-y="1000"  />

      
      <glyph glyph-name="uni02DC" unicode="&#x02DC;" d="M291 712Q310 712 329.50 704Q349 696 366.50 687Q384 678 399.50 670.50Q415 663 427 663Q444 663 461 674Q478 685 503 711L565 673Q533 611 500.50 586.50Q468 562 427 562Q407 562 388 569.50Q369 577 352 585.50Q335 594 319.50 601.50Q304 609 290 609Q273 609 253.50 598.50Q234 588 207 559L148 598Q182 662 217 687Q252 712 291 712Z"  horiz-adv-x="516" vert-adv-y="1000"  />

      
      <glyph glyph-name="uni02C7" unicode="&#x02C7;" d="M518 733L565 684L387 529L284 529L167 684L229 732Q261 707 290 681Q319 655 350 629L518 733Z"  horiz-adv-x="516" vert-adv-y="1000"  />

      
      <glyph glyph-name="uni02D8" unicode="&#x02D8;" d="M343 561Q300 561 273 577.50Q246 594 231.50 618.50Q217 643 212.50 671Q208 699 210 722L310 722Q308 712 309 700.50Q310 689 315 678.50Q320 668 329.50 661Q339 654 353 654Q367 654 379 661Q391 668 400 678.50Q409 689 414.50 700.50Q420 712 422 722L522 722Q517 699 505 671.50Q493 644 471 619Q449 594 417.50 577.50Q386 561 343 561Z"  horiz-adv-x="533" vert-adv-y="1000"  />

      
      <glyph glyph-name="uni0131" unicode="&#x0131;" d="M22 0L118 495L258 495L162 0L22 0Z"  horiz-adv-x="263" vert-adv-y="1000"  />

      
      <glyph glyph-name="uniF6CB" unicode="&#xF6CB;" d="M464 744L490 877L642 877L616 744L464 744M249 744L275 877L428 877L402 744L249 744Z"  horiz-adv-x="646" vert-adv-y="1000"  />

      
      <glyph glyph-name="uniF6C9" unicode="&#xF6C9;" d="M358 783L552 922L650 833L417 726L358 783Z"  horiz-adv-x="646" vert-adv-y="1000"  />

      
      <glyph glyph-name="uni2021" unicode="&#x2021;" d="M214 357L48 357L70 473L236 473L280 696L421 696L377 473L542 473L520 357L355 357L327 213L492 213L469 97L304 97L253-169L112-169L163 97L-3 97L20 213L186 213L214 357Z"  horiz-adv-x="510" vert-adv-y="1000"  />

      
      <glyph glyph-name="uni2014" unicode="&#x2014;" d="M22 220L46 344L1056 344L1032 220L22 220Z"  horiz-adv-x="1050" vert-adv-y="1000"  />

      
      <glyph glyph-name="uni203A" unicode="&#x203A;" d="M7 10L192 224L91 438L231 438L335 224L147 10L7 10Z"  horiz-adv-x="404" vert-adv-y="1000"  />

      
      <glyph glyph-name="unia1" unicode="&#xa1;" d="M106 304L229 304L141-201L-3-201L106 304M278 495L253 367L106 367L131 495L278 495Z"  horiz-adv-x="294" vert-adv-y="1000"  />

      
      <glyph glyph-name="uniaf" unicode="&#xaf;" d="M164 578L187 696L520 696L497 578L164 578Z"  horiz-adv-x="516" vert-adv-y="1000"  />

      
      <glyph glyph-name="unibf" unicode="&#xbf;" d="M472 2Q452-101 382-154Q312-207 209-207Q168-207 132.50-195Q97-183 71.50-161.50Q46-140 31.50-110.50Q17-81 17-46Q17-8 30 22Q43 52 63 77.50Q83 103 108 125.50Q133 148 156 171.50Q179 195 198.50 220.50Q218 246 227 278L232 300L376 300L371 273Q366 244 356.50 220.50Q347 197 331.50 174Q316 151 293.50 126Q271 101 241 69Q232 59 220.50 48.50Q209 38 199.50 26.50Q190 15 183.50 3Q177-9 177-22Q177-44 195-56.50Q213-69 236-69Q250-69 264-65.50Q278-62 291-52Q304-42 314-24.50Q324-7 330 20L472 2M414 494L389 366L245 366L269 494L414 494Z"  horiz-adv-x="495" vert-adv-y="1000"  />

      
      </font>
</defs>
</svg>
